STARTFONT 2.1
COMMENT
COMMENT Converted from OpenType font "Patriot-Medium.otf" by "otf2bdf 3.0".
COMMENT
FONT -FreeType-Patriot Medium-Medium-R-Normal--77-560-100-100-P-377-ISO10646-1
SIZE 56 100 100
FONTBOUNDINGBOX 130 104 -30 -21
STARTPROPERTIES 19
FOUNDRY "FreeType"
FAMILY_NAME "Patriot Medium"
WEIGHT_NAME "Medium"
SLANT "R"
SETWIDTH_NAME "Normal"
ADD_STYLE_NAME ""
PIXEL_SIZE 77
POINT_SIZE 560
RESOLUTION_X 100
RESOLUTION_Y 100
SPACING "P"
AVERAGE_WIDTH 377
CHARSET_REGISTRY "ISO10646"
CHARSET_ENCODING "1"
FONT_ASCENT 78
FONT_DESCENT 15
COPYRIGHT "Copyright © 2020 by Behalf Studio. All rights reserved."
_OTF_FONTFILE "Patriot-Medium.otf"
_OTF_PSNAME "Patriot-Medium"
ENDPROPERTIES
CHARS 426
STARTCHAR 0020
ENCODING 32
SWIDTH 372 0
DWIDTH 29 0
BBX 0 0 0 0
BITMAP
ENDCHAR
STARTCHAR 0021
ENCODING 33
SWIDTH 270 0
DWIDTH 21 0
BBX 13 55 4 -1
BITMAP
3FE0
3FE0
3FE0
3FE0
3FE0
3FE0
3FE0
3FE0
3FE0
3FE0
3FE0
3FE0
3FE0
3FE0
3FE0
3FE0
3FE0
3FE0
3FE0
3FE0
3FE0
3FE0
3FE0
3FE0
3FE0
3FE0
3FE0
3FE0
3FE0
3FE0
3FE0
3FE0
3FE0
3FE0
3FE0
0000
0000
0000
0000
0000
0000
0000
0000
1FC0
3FE0
7FF0
7FF0
FFF8
FFF8
FFF8
FFF8
7FF0
7FF0
3FE0
0F80
ENDCHAR
STARTCHAR 0022
ENCODING 34
SWIDTH 334 0
DWIDTH 26 0
BBX 17 17 5 37
BITMAP
FC1F80
FC1F80
FC1F80
FC1F80
FC1F80
FC1F80
FC1F80
FC1F80
FC1F80
FC1F80
FC1F80
FC1F80
FC1F80
FC1F80
FC1F80
FC1F80
FC1F80
ENDCHAR
STARTCHAR 0023
ENCODING 35
SWIDTH 642 0
DWIDTH 50 0
BBX 42 54 4 0
BITMAP
000FF003FC00
000FF003F800
000FF003F800
000FF007F800
000FF007F800
000FE007F800
000FE007F800
001FE007F800
001FE007F800
001FE007F000
001FE00FF000
001FE00FF000
001FC00FF000
001FC00FF000
003FC00FF000
003FC00FF000
3FFFFFFFFFC0
3FFFFFFFFFC0
3FFFFFFFFFC0
3FFFFFFFFFC0
3FFFFFFFFFC0
3FFFFFFFFFC0
007F801FE000
007F801FC000
007F803FC000
007F803FC000
007F003FC000
007F003FC000
00FF003FC000
00FF003FC000
00FF003F8000
00FF007F8000
FFFFFFFFFF00
FFFFFFFFFF00
FFFFFFFFFF00
FFFFFFFFFF00
FFFFFFFFFF00
FFFFFFFFFF00
FFFFFFFFFF00
01FE00FF0000
01FE00FF0000
01FC00FF0000
03FC00FF0000
03FC00FF0000
03FC00FE0000
03FC00FE0000
03FC01FE0000
03FC01FE0000
03F801FE0000
07F801FE0000
07F801FE0000
07F801FC0000
07F801FC0000
07F803FC0000
ENDCHAR
STARTCHAR 0024
ENCODING 36
SWIDTH 552 0
DWIDTH 43 0
BBX 35 70 4 -8
BITMAP
0001FC0000
0001FC0000
0001FC0000
0001FC0000
0001FC0000
0001FC0000
0003FC0000
001FFF8000
007FFFE000
01FFFFF000
03FFFFF800
07FFFFFC00
07FFFFFE00
0FFFFFFF00
0FFFFFFF00
1FFFFFFF80
1FFC03FF80
1FF801FFC0
3FF800FFC0
3FF000FFC0
3FF0007F00
3FF0007800
3FF8000000
1FF8000000
1FFC000000
1FFE000000
0FFF000000
0FFF800000
07FFE00000
03FFF80000
01FFFC0000
00FFFF0000
007FFF8000
003FFFE000
001FFFF000
0007FFF800
0003FFFC00
0000FFFE00
00003FFF00
00001FFF80
000007FF80
000003FFC0
000001FFC0
000000FFE0
0000007FE0
0000007FE0
00C0007FE0
0FC0007FE0
7FC0007FE0
FFE0007FE0
7FE0007FE0
7FF000FFE0
3FF801FFC0
3FFE07FFC0
1FFFFFFFC0
1FFFFFFF80
0FFFFFFF80
07FFFFFF00
03FFFFFE00
01FFFFFC00
00FFFFF000
003FFFE000
0007FF0000
0001FC0000
0001FC0000
0001FC0000
0001FC0000
0001FC0000
0001FC0000
0001FC0000
ENDCHAR
STARTCHAR 0025
ENCODING 37
SWIDTH 912 0
DWIDTH 71 0
BBX 63 57 4 -1
BITMAP
001FC00000000000
00FFF8000001FE00
03FFFC000003FC00
07FFFF000003F800
0FFFFF800007F800
1FFFFF80000FF000
3FFFFFC0000FE000
3FF0FFE0001FC000
7FC03FE0003FC000
7F801FF0007F8000
7F800FF0007F0000
FF000FF000FF0000
FF000FF001FE0000
FF000FF001FC0000
FF000FF003FC0000
FF000FF007F80000
7F800FF007F00000
7F801FF00FE00000
7FC03FE01FE00000
3FF07FE03FC00000
3FFFFFC03F800000
1FFFFFC07F800000
0FFFFF80FF000000
07FFFF00FE000000
03FFFC01FE000000
00FFF803FC000000
001F8003F8000000
00000007F0000000
0000000FF0000000
0000001FE0000000
0000001FC001F000
0000003FC01FFE00
0000007F803FFF80
0000007F00FFFFE0
000000FF01FFFFF0
000001FE03FFFFF8
000001FC03FFFFF8
000003F807FF1FFC
000007F807FC07FC
00000FF00FF803FE
00000FE00FF001FE
00001FE00FF001FE
00003FC00FE001FE
00003F800FE000FE
00007F800FE000FE
0000FF000FE001FE
0000FE000FF001FE
0001FC000FF003FE
0003FC000FF803FE
0007F80007FE0FFC
0007F00007FFFFFC
000FF00003FFFFF8
001FE00001FFFFF0
001FC00000FFFFE0
003FC000007FFFC0
007F8000001FFF00
000000000007FC00
ENDCHAR
STARTCHAR 0026
ENCODING 38
SWIDTH 668 0
DWIDTH 52 0
BBX 44 56 4 -1
BITMAP
0007FF800000
003FFFF00000
007FFFF80000
01FFFFFE0000
03FFFFFF0000
07FFFFFF8000
07FFFFFFC000
0FFFFFFFE000
0FFFCFFFE000
1FFE01FFC000
1FFC007F8000
1FF8003F0000
3FF0001E0000
3FF0000C0000
3FF000080000
3FF000000000
3FF000000000
3FF000000000
3FF000000000
1FF800000000
1FFC00000000
1FFE00000000
0FFFFFFFFFF0
07FFFFFFFFF0
07FFFFFFFFF0
03FFFFFFFFF0
01FFFFFFFFF0
07FFFFFFFFF0
0FFFFFFFFFF0
0FFFFFFFFFF0
1FFFFFFFFFF0
3FFF8003FF00
3FFC0003FF00
7FF00003FF00
7FF00003FF00
7FE00003FF00
7FE00003FF00
FFC00007FE00
FFC00007FE00
FFC00007FE00
FFC0000FFE00
FFE0000FFE00
7FE0001FFC00
7FF0001FFC00
7FF8003FF800
7FFC007FF800
3FFF03FFF000
3FFFFFFFF000
1FFFFFFFE000
0FFFFFFFC000
07FFFFFF8000
03FFFFFF0000
01FFFFFE0000
007FFFFC0000
001FFFF00000
0003FF000000
ENDCHAR
STARTCHAR 0027
ENCODING 39
SWIDTH 180 0
DWIDTH 14 0
BBX 7 17 4 37
BITMAP
FE
FE
FE
FE
FE
FE
FE
FE
FE
FE
FE
FE
FE
FE
FE
FE
FE
ENDCHAR
STARTCHAR 0028
ENCODING 40
SWIDTH 347 0
DWIDTH 27 0
BBX 19 73 4 -10
BITMAP
000E00
000F00
001FC0
003FE0
003FC0
007F80
007F80
00FF00
00FF00
01FE00
01FC00
03FC00
03F800
07F800
07F000
0FF000
0FE000
0FE000
1FE000
1FC000
1FC000
3F8000
3F8000
3F8000
7F8000
7F0000
7F0000
7F0000
7F0000
7F0000
7F0000
FE0000
FE0000
FE0000
FE0000
FE0000
FE0000
FE0000
FE0000
FE0000
FE0000
FF0000
7F0000
7F0000
7F0000
7F0000
7F0000
7F0000
3F8000
3F8000
3F8000
3FC000
1FC000
1FC000
1FE000
0FE000
0FE000
0FF000
07F000
07F800
03F800
03FC00
01FC00
01FE00
00FF00
00FF00
007F80
007FC0
003FC0
001FC0
001F80
000F00
000400
ENDCHAR
STARTCHAR 0029
ENCODING 41
SWIDTH 347 0
DWIDTH 27 0
BBX 19 73 4 -10
BITMAP
0E0000
1E0000
3F0000
FF8000
7F8000
3FC000
3FC000
1FE000
0FF000
0FF000
07F800
07F800
03FC00
03FC00
01FC00
01FE00
00FE00
00FF00
007F00
007F00
007F80
003F80
003F80
003F80
001FC0
001FC0
001FC0
001FC0
001FC0
000FC0
000FE0
000FE0
000FE0
000FE0
000FE0
000FE0
000FE0
000FE0
000FE0
000FE0
000FE0
000FE0
000FE0
001FC0
001FC0
001FC0
001FC0
001FC0
003FC0
003F80
003F80
003F80
007F80
007F00
007F00
00FF00
00FE00
01FE00
01FC00
03FC00
03F800
07F800
07F800
0FF000
1FE000
1FE000
3FC000
7FC000
7F8000
7F0000
3F0000
0E0000
040000
ENDCHAR
STARTCHAR 002A
ENCODING 42
SWIDTH 450 0
DWIDTH 35 0
BBX 27 26 4 29
BITMAP
00040000
001F0000
001F8000
003F8000
003FC000
003FC000
003F8000
003F8000
7E1F8FC0
7F9F1FE0
FFCF7FE0
FFEF7FE0
7FFFFFE0
7FFFFFC0
1FFFFF80
031F8C00
007FC000
00FFF000
03FBF800
03FBFC00
07F9FE00
0FF9FE00
0FF1FF00
0FF0FE00
0FE07E00
07C07C00
ENDCHAR
STARTCHAR 002B
ENCODING 43
SWIDTH 565 0
DWIDTH 44 0
BBX 36 35 4 8
BITMAP
0003FC0000
0003FC0000
0003FC0000
0003FC0000
0003FC0000
0003FC0000
0003FC0000
0003FC0000
0003FC0000
0003FC0000
0003FC0000
0003FC0000
0003FC0000
0003FC0000
FFFFFFFFF0
FFFFFFFFF0
FFFFFFFFF0
FFFFFFFFF0
FFFFFFFFF0
FFFFFFFFF0
FFFFFFFFF0
0003FC0000
0003FC0000
0003FC0000
0003FC0000
0003FC0000
0003FC0000
0003FC0000
0003FC0000
0003FC0000
0003FC0000
0003FC0000
0003FC0000
0003FC0000
0003FC0000
ENDCHAR
STARTCHAR 002C
ENCODING 44
SWIDTH 270 0
DWIDTH 21 0
BBX 13 15 4 -9
BITMAP
07F8
07F8
0FF0
0FF0
0FE0
1FE0
1FC0
1FC0
3F80
3F80
3F00
7F00
7E00
7E00
FC00
ENDCHAR
STARTCHAR 002D
ENCODING 45
SWIDTH 437 0
DWIDTH 34 0
BBX 26 6 4 15
BITMAP
FFFFFFC0
FFFFFFC0
FFFFFFC0
FFFFFFC0
FFFFFFC0
FFFFFFC0
ENDCHAR
STARTCHAR 002E
ENCODING 46
SWIDTH 270 0
DWIDTH 21 0
BBX 13 12 4 -1
BITMAP
1FC0
3FE0
7FF0
7FF0
FFF8
FFF8
FFF8
FFF8
7FF0
7FF0
3FE0
0F80
ENDCHAR
STARTCHAR 002F
ENCODING 47
SWIDTH 411 0
DWIDTH 32 0
BBX 24 57 4 -1
BITMAP
00007F
0000FF
0000FF
0000FE
0001FE
0001FE
0001FE
0001FC
0003FC
0003FC
0003F8
0007F8
0007F8
0007F8
0007F0
000FF0
000FF0
000FE0
001FE0
001FE0
001FE0
001FC0
003FC0
003FC0
003F80
007F80
007F80
007F80
00FF00
00FF00
00FF00
00FE00
01FE00
01FE00
01FE00
03FC00
03FC00
03FC00
03F800
07F800
07F800
07F800
0FF000
0FF000
0FF000
0FE000
1FE000
1FE000
1FE000
3FC000
3FC000
3FC000
3F8000
7F8000
7F8000
7F8000
FF0000
ENDCHAR
STARTCHAR 0030
ENCODING 48
SWIDTH 720 0
DWIDTH 56 0
BBX 51 57 3 -1
BITMAP
000000F0000000
00003FFF800000
0001FFFFF00000
0007FFFFFC0000
001FFFFFFE0000
003FFFFFFF8000
007FFFFFFFC000
01FFFFFFFFE000
03FFFFFFFFF000
03FFFC07FFF800
07FFE000FFFC00
0FFF80003FFC00
0FFF00001FFE00
1FFC00000FFF00
1FF8000007FF00
3FF8000003FF00
3FF0000001FF80
7FE0000001FF80
7FE0000000FFC0
7FC0000000FFC0
7FC00000007FC0
FFC00000007FC0
FF800000007FC0
FF800000007FE0
FF800000007FE0
FF800000003FE0
FF800000003FE0
FF800000003FE0
FF800000003FE0
FF800000003FE0
FF800000003FE0
FF800000003FE0
FF800000003FE0
FF800000007FE0
FF800000007FC0
FFC00000007FC0
FFC00000007FC0
7FC0000000FFC0
7FE0000000FFC0
7FE0000001FF80
3FF0000001FF80
3FF0000003FF80
3FF8000003FF00
1FFC000007FF00
1FFE00000FFE00
0FFF00003FFE00
07FFC0007FFC00
07FFF003FFF800
03FFFFFFFFF000
01FFFFFFFFE000
00FFFFFFFFC000
007FFFFFFF8000
001FFFFFFF0000
000FFFFFFC0000
0003FFFFF80000
0000FFFFC00000
00000FFE000000
ENDCHAR
STARTCHAR 0031
ENCODING 49
SWIDTH 321 0
DWIDTH 25 0
BBX 18 54 3 0
BITMAP
007FC0
007FC0
007FC0
007FC0
FFFFC0
FFFFC0
FFFFC0
FFFFC0
FFFFC0
FFFFC0
FFFFC0
FFFFC0
FFFFC0
007FC0
007FC0
007FC0
007FC0
007FC0
007FC0
007FC0
007FC0
007FC0
007FC0
007FC0
007FC0
007FC0
007FC0
007FC0
007FC0
007FC0
007FC0
007FC0
007FC0
007FC0
007FC0
007FC0
007FC0
007FC0
007FC0
007FC0
007FC0
007FC0
007FC0
007FC0
007FC0
007FC0
007FC0
007FC0
007FC0
007FC0
007FC0
007FC0
007FC0
007FC0
ENDCHAR
STARTCHAR 0032
ENCODING 50
SWIDTH 565 0
DWIDTH 44 0
BBX 38 56 3 0
BITMAP
0000300000
000FFFC000
003FFFF000
00FFFFFC00
01FFFFFE00
03FFFFFF00
07FFFFFF80
0FFFFFFFC0
1FFFFFFFE0
1FFF03FFE0
3FFC00FFF0
3FF8007FF0
7FF0003FF0
7FE0001FF0
7FE0001FF8
FFC0001FF8
FFC0001FF8
FFC0001FF8
3FC0001FF8
0040001FF8
0000001FF0
0000001FF0
0000003FF0
0000003FF0
0000007FE0
0000007FE0
000000FFC0
000001FFC0
000001FF80
000003FF80
000007FF00
00000FFE00
00001FFE00
00003FFC00
00007FF800
0000FFF000
0000FFE000
0001FFC000
0003FF8000
0007FF0000
000FFE0000
001FFC0000
003FF80000
007FF80000
00FFF00000
01FFE00000
03FFC00000
07FF800000
0FFFFFFFFC
1FFFFFFFFC
3FFFFFFFFC
7FFFFFFFFC
FFFFFFFFFC
FFFFFFFFFC
FFFFFFFFFC
FFFFFFFFFC
ENDCHAR
STARTCHAR 0033
ENCODING 51
SWIDTH 527 0
DWIDTH 41 0
BBX 36 55 3 -1
BITMAP
7FFFFFFFC0
7FFFFFFFC0
7FFFFFFFC0
7FFFFFFF80
7FFFFFFF00
7FFFFFFE00
7FFFFFFC00
7FFFFFFC00
00001FF800
00003FF000
00007FE000
0000FFC000
0001FF8000
0003FF0000
0007FE0000
000FFC0000
001FF80000
007FFE0000
00FFFFC000
01FFFFE000
03FFFFF800
07FFFFFC00
0FFFFFFE00
0FFFFFFF00
07FFFFFF80
03FE1FFF80
03F003FFC0
01C001FFC0
008000FFE0
0000007FE0
0000003FF0
0000003FF0
0000003FF0
0000001FF0
0000001FF0
0000001FF0
0000001FF0
0000001FF0
0000003FF0
0000003FF0
0000003FE0
0200007FE0
0700007FE0
1F8000FFC0
3FC003FFC0
7FF007FF80
FFFFFFFF80
7FFFFFFF00
7FFFFFFE00
3FFFFFFE00
0FFFFFF800
07FFFFF000
03FFFFE000
00FFFF8000
000FFC0000
ENDCHAR
STARTCHAR 0034
ENCODING 52
SWIDTH 552 0
DWIDTH 43 0
BBX 40 54 1 0
BITMAP
000001FFE0
00001FFFE0
00007FFFE0
0001FFFFE0
0007FFFFE0
000FFFFFE0
001FFFFFE0
007FFFFFE0
007FFFFFE0
00FFFE3FE0
01FFF03FE0
03FFE03FE0
07FF803FE0
07FF003FE0
0FFE003FE0
0FFE003FE0
1FFC003FE0
1FF8003FE0
1FF8003FE0
3FF0003FE0
3FF0003FE0
3FE0003FE0
7FE0003FE0
7FE0003FE0
7FC0003FE0
7FC0003FE0
7FC0003FE0
7FC0003FE0
FFC0003FE0
FFC0003FE0
FFFFFFFFFF
FFFFFFFFFF
FFFFFFFFFF
FFFFFFFFFF
FFFFFFFFFF
FFFFFFFFFF
FFFFFFFFFF
FFFFFFFFFF
FFFFFFFFFF
0000003FE0
0000003FE0
0000003FE0
0000003FE0
0000003FE0
0000003FE0
0000003FE0
0000003FE0
0000003FE0
0000003FE0
0000003FE0
0000003FE0
0000003FE0
0000003FE0
0000003FE0
ENDCHAR
STARTCHAR 0035
ENCODING 53
SWIDTH 552 0
DWIDTH 43 0
BBX 36 55 4 -1
BITMAP
1FFFFFFFC0
1FFFFFFFC0
1FFFFFFFC0
3FFFFFFFC0
3FFFFFFFC0
3FFFFFFFC0
3FFFFFFFC0
3FFFFFFFC0
3FE0000000
3FC0000000
3FC0000000
3FC0000000
3FC0000000
3FC0000000
7FC0000000
7FC0000000
7FC0700000
7FCFFF0000
7FFFFFE000
7FFFFFF000
7FFFFFFC00
7FFFFFFE00
7FFFFFFF00
7FFFFFFF80
FFFFFFFF80
FFFC0FFFC0
FFF003FFC0
3FC000FFE0
0F80007FE0
0300007FF0
0000003FF0
0000003FF0
0000001FF0
0000001FF0
0000001FF0
0000001FF0
0000001FF0
0000001FF0
0000001FF0
0000003FF0
0000003FF0
0200007FE0
0700007FE0
1F8000FFE0
3FC003FFC0
7FF007FFC0
FFFFFFFF80
FFFFFFFF00
7FFFFFFF00
3FFFFFFE00
1FFFFFFC00
07FFFFF000
03FFFFE000
00FFFF8000
001FFC0000
ENDCHAR
STARTCHAR 0036
ENCODING 54
SWIDTH 617 0
DWIDTH 48 0
BBX 43 55 3 -1
BITMAP
00000FFE0000
00001FFC0000
00003FF80000
00007FF00000
00007FF00000
0000FFE00000
0001FFC00000
0001FFC00000
0003FF800000
0007FF000000
000FFE000000
000FFE000000
001FFC000000
003FF8000000
003FF8000000
007FFFFC0000
00FFFFFF0000
01FFFFFFC000
01FFFFFFE000
03FFFFFFF000
07FFFFFFF800
07FFFFFFFC00
0FFFFFFFFE00
0FFF801FFF00
1FFE000FFF00
1FFC0003FF80
3FF80001FF80
3FF00001FFC0
7FE00000FFC0
7FE000007FC0
7FC000007FC0
7FC000007FE0
7FC000007FE0
7FC000007FE0
FFC000003FE0
7FC000007FE0
7FC000007FE0
7FC000007FE0
7FC000007FC0
7FE00000FFC0
7FE00000FFC0
3FF00001FFC0
3FF80001FF80
3FFC0003FF80
1FFE000FFF00
0FFF803FFF00
0FFFFFFFFE00
07FFFFFFFC00
03FFFFFFF800
01FFFFFFF000
00FFFFFFE000
007FFFFFC000
001FFFFF0000
0007FFFC0000
0000FFE00000
ENDCHAR
STARTCHAR 0037
ENCODING 55
SWIDTH 475 0
DWIDTH 37 0
BBX 35 54 3 0
BITMAP
FFFFFFFFE0
FFFFFFFFE0
FFFFFFFFE0
FFFFFFFFE0
FFFFFFFFC0
FFFFFFFFC0
FFFFFFFF80
FFFFFFFF80
000001FF80
000003FF00
000003FF00
000003FE00
000007FE00
000007FE00
000007FC00
00000FFC00
00000FF800
00001FF800
00001FF800
00001FF000
00003FF000
1FFFFFFF00
1FFFFFFF00
1FFFFFFF00
1FFFFFFF00
1FFFFFFF00
1FFFFFFF00
1FFFFFFF00
1FFFFFFF00
1FFFFFFF00
0003FF0000
0003FE0000
0007FE0000
0007FE0000
0007FC0000
000FFC0000
000FF80000
001FF80000
001FF80000
001FF00000
003FF00000
003FE00000
007FE00000
007FE00000
007FC00000
00FFC00000
00FF800000
00FF800000
01FF800000
01FF000000
03FF000000
03FE000000
03FE000000
07FE000000
ENDCHAR
STARTCHAR 0038
ENCODING 56
SWIDTH 565 0
DWIDTH 44 0
BBX 40 57 2 -1
BITMAP
0000380000
0003FFC000
000FFFF000
001FFFFC00
003FFFFE00
007FFFFF00
00FFFFFF80
01FFFFFF80
01FFFFFFC0
03FF80FFC0
03FF007FC0
03FE007FE0
03FE003FE0
03FC003FE0
03FC003FE0
03FE003FE0
03FE007FE0
03FF007FC0
03FF00FFC0
01FFE3FFC0
01FFFFFF80
00FFFFFF80
00FFFFFF00
00FFFFFF00
01FFFFFFC0
03FFFFFFE0
07FFFFFFF0
0FFFF7FFF8
1FFF007FF8
3FFC001FFC
3FF8000FFC
3FF00007FE
7FE00007FE
7FC00003FE
7FC00003FF
FFC00001FF
FFC00001FF
FFC00001FF
FFC00001FF
FFC00001FF
FFC00003FF
7FC00003FF
7FE00003FE
7FE00007FE
7FF0000FFE
3FF8000FFC
3FFC003FFC
1FFF007FFC
1FFFFFFFF8
0FFFFFFFF0
07FFFFFFE0
03FFFFFFC0
01FFFFFF80
00FFFFFF00
003FFFFE00
000FFFF800
0001FFC000
ENDCHAR
STARTCHAR 0039
ENCODING 57
SWIDTH 591 0
DWIDTH 46 0
BBX 42 56 3 0
BITMAP
00000C000000
0003FFF00000
001FFFFC0000
007FFFFF0000
00FFFFFFC000
01FFFFFFE000
03FFFFFFF000
07FFFFFFF800
0FFFFFFFFC00
1FFFC0FFFE00
1FFE001FFE00
3FFC000FFF00
3FF00007FF00
7FF00003FF80
7FE00001FF80
FFC00001FF80
FFC00000FFC0
FFC00000FFC0
FF800000FFC0
FF8000007FC0
FF8000007FC0
FF8000007FC0
FF8000007FC0
FF8000007FC0
FF800000FFC0
FFC00000FFC0
FFC00000FF80
7FE00001FF80
7FE00003FF80
7FF00007FF00
3FF8000FFF00
3FFE001FFE00
1FFF80FFFE00
0FFFFFFFFC00
07FFFFFFF800
03FFFFFFF800
01FFFFFFF000
00FFFFFFE000
007FFFFFE000
001FFFFFC000
0003FBFF8000
000003FF8000
000007FF0000
00000FFE0000
00000FFC0000
00001FFC0000
00003FF80000
00007FF00000
00007FF00000
0000FFE00000
0001FFC00000
0001FF800000
0003FF800000
0007FF000000
000FFE000000
000FFE000000
ENDCHAR
STARTCHAR 003A
ENCODING 58
SWIDTH 270 0
DWIDTH 21 0
BBX 13 40 4 -1
BITMAP
0300
1FC0
3FE0
7FF0
7FF8
FFF8
FFF8
FFF8
7FF8
7FF0
3FF0
1FE0
0700
0000
0000
0000
0000
0000
0000
0000
0000
0000
0000
0000
0000
0000
0000
0000
1FC0
3FE0
7FF0
7FF0
FFF8
FFF8
FFF8
FFF8
7FF0
7FF0
3FE0
0F80
ENDCHAR
STARTCHAR 003B
ENCODING 59
SWIDTH 295 0
DWIDTH 23 0
BBX 15 48 4 -9
BITMAP
0080
07F0
0FF8
1FFC
1FFE
3FFE
3FFE
3FFE
1FFE
1FFC
0FFC
07F8
01C0
0000
0000
0000
0000
0000
0000
0000
0000
0000
0000
0000
0000
0000
0000
0000
0000
0000
0000
0000
0000
07F8
07F8
0FF0
0FF0
0FE0
1FE0
1FC0
1FC0
3F80
3F80
3F00
7F00
7E00
7E00
FC00
ENDCHAR
STARTCHAR 003C
ENCODING 60
SWIDTH 565 0
DWIDTH 44 0
BBX 36 33 4 7
BITMAP
0000000030
00000001F0
0000000FF0
0000003FF0
000001FFF0
00000FFFF0
00007FFFF0
0001FFFFC0
000FFFFE00
007FFFF800
01FFFFC000
0FFFFE0000
7FFFF00000
FFFF800000
FFFC000000
FFE0000000
FF80000000
FFE0000000
FFFC000000
FFFF800000
7FFFF00000
1FFFFE0000
03FFFF8000
007FFFF000
001FFFFE00
0003FFFFC0
00007FFFF0
00000FFFF0
000003FFF0
0000007FF0
0000000FF0
00000003F0
0000000070
ENDCHAR
STARTCHAR 003D
ENCODING 61
SWIDTH 565 0
DWIDTH 44 0
BBX 36 23 4 14
BITMAP
FFFFFFFFF0
FFFFFFFFF0
FFFFFFFFF0
FFFFFFFFF0
FFFFFFFFF0
FFFFFFFFF0
FFFFFFFFF0
0000000000
0000000000
0000000000
0000000000
0000000000
0000000000
0000000000
0000000000
0000000000
FFFFFFFFF0
FFFFFFFFF0
FFFFFFFFF0
FFFFFFFFF0
FFFFFFFFF0
FFFFFFFFF0
FFFFFFFFF0
ENDCHAR
STARTCHAR 003E
ENCODING 62
SWIDTH 565 0
DWIDTH 44 0
BBX 36 34 4 7
BITMAP
E000000000
FC00000000
FF00000000
FFE0000000
FFFC000000
FFFF000000
FFFFE00000
3FFFFC0000
07FFFF8000
00FFFFE000
001FFFFC00
0007FFFF80
0000FFFFE0
00001FFFF0
000003FFF0
0000007FF0
0000001FF0
0000003FF0
000001FFF0
00000FFFF0
00007FFFF0
0003FFFF80
001FFFFE00
007FFFF000
03FFFF8000
1FFFFE0000
FFFFF00000
FFFF800000
FFFC000000
FFF0000000
FF80000000
FC00000000
F000000000
8000000000
ENDCHAR
STARTCHAR 003F
ENCODING 63
SWIDTH 437 0
DWIDTH 34 0
BBX 26 56 4 -1
BITMAP
00FFE000
03FFF800
07FFFE00
0FFFFF00
1FFFFF00
3FFFFF80
3FFFFFC0
7FFFFFC0
7FC0FFC0
FF807FC0
7F807FC0
0F003FC0
01003FC0
00007FC0
00007FC0
00007FC0
0000FF80
0001FF80
0001FF00
0003FE00
0007FE00
000FFC00
000FF800
001FF000
001FF000
003FE000
003FE000
007FC000
007FC000
00FF8000
00FF8000
00FF8000
00FF0000
00FF0000
00FF0000
00FF0000
00FF0000
00000000
00000000
00000000
00000000
00000000
00000000
00000000
007F0000
00FF8000
01FFC000
01FFC000
03FFE000
03FFE000
03FFE000
01FFE000
01FFC000
01FFC000
00FF8000
003E0000
ENDCHAR
STARTCHAR 0040
ENCODING 64
SWIDTH 810 0
DWIDTH 63 0
BBX 55 57 4 -1
BITMAP
0000007FE00000
00000FFFFE0000
00003FFFFFC000
0001FFFFFFF000
0003FFFFFFF800
000FFFFFFFFE00
001FFE0007FF00
003FF00001FF80
007FC000007FC0
00FF0000001FE0
01FE0000000FE0
03FC00000007F0
07F800000003F8
07F000000003F8
0FE000000001FC
1FC000FE0001FC
1FC003FFBF80FC
1F800FFFFF00FC
3F801FFFFF007E
3F001FFFFF007E
7F003FFFFF007E
7E007FFBFF007E
7E007FC0FF007E
7E00FF807F007E
7E00FF807F007E
FE00FF007E007E
FE00FF007E007E
FE00FF007E007E
FE01FF007E00FE
FE01FF007E00FC
FE01FF00FE00FC
FE00FF00FE01FC
FE00FF81FE03F8
7E00FF83FE03F8
7E00FFFFFF07F0
7E007FFFFFFFE0
7F007FFFFFFFC0
3F003FFFBFFFC0
3F001FFF1FFF00
3F800FFE0FFE00
1F8003F803F800
1FC00000000000
0FE00000000000
0FE00000000000
07F00000000000
03F80000000200
03FC0000000700
01FF0000001F80
00FF8000003FC0
007FE00000FFC0
003FFC0007FF00
000FFFE07FFE00
0007FFFFFFFC00
0001FFFFFFF000
00007FFFFFC000
00001FFFFF0000
000001FFF80000
ENDCHAR
STARTCHAR 0041
ENCODING 65
SWIDTH 565 0
DWIDTH 44 0
BBX 39 56 4 0
BITMAP
0000C00000
001FFE0000
00FFFF8000
01FFFFE000
03FFFFF000
07FFFFF800
0FFFFFFC00
1FFFFFFE00
3FFFFFFE00
3FFF3FFF00
7FF807FF00
7FF003FF80
7FE001FF80
FFE001FF80
FFC000FFC0
FFC000FFC0
FFC000FFC0
FFC000FFC0
FFC000FFC0
FFC000FFC0
FFC000FFC0
FFC000FFC0
FFC000FFC0
FFC000FFC0
FFC000FFC0
FFC000FFC0
FFC000FFC0
FFC000FFC0
FFC000FFC0
FFC000FFC0
FFC000FFC0
FFC000FFC0
FFC000FFC0
FFC000FFC0
FFC000FFC0
FFC000FFC0
FFC000FFC0
FFC000FFC0
FFC000FFC0
FFC000FFC0
FFC000FFC0
FFC000FFC0
FFC000FFC0
FFC000FFC0
FFC000FFC0
FFC000FFC0
FFC000FFC0
FFFFFFFFFE
FFFFFFFFFE
FFFFFFFFFE
FFFFFFFFFE
FFFFFFFFFE
FFFFFFFFFE
FFFFFFFFFE
FFFFFFFFFE
FFFFFFFFFE
ENDCHAR
STARTCHAR 0042
ENCODING 66
SWIDTH 617 0
DWIDTH 48 0
BBX 44 54 3 0
BITMAP
07FFFFFE0000
07FFFFFFC000
07FFFFFFF000
07FFFFFFF800
07FFFFFFFC00
07FFFFFFFE00
07FFFFFFFF00
07FFFFFFFF00
07FFFFFFFF80
07FC0007FF80
07FC0003FFC0
07FC0001FFC0
07FC0000FFC0
07FC0000FFC0
07FC0000FFC0
07FC0000FFC0
07FC0000FFC0
07FC0000FFC0
07FC0000FFC0
07FC0001FF80
07FC0003FF80
07FC000FFF80
FFFFFFFFFF00
FFFFFFFFFF00
FFFFFFFFFE00
FFFFFFFFFC00
FFFFFFFFFE00
FFFFFFFFFF00
FFFFFFFFFF80
FFFFFFFFFF80
FFFFFFFFFFC0
07FC0003FFC0
07FC0001FFE0
07FC0000FFE0
07FC00007FE0
07FC00007FE0
07FC00003FF0
07FC00003FF0
07FC00003FF0
07FC00003FF0
07FC00007FE0
07FC00007FE0
07FC0000FFE0
07FC0001FFE0
07FC000FFFC0
07FFFFFFFFC0
07FFFFFFFF80
07FFFFFFFF80
07FFFFFFFF00
07FFFFFFFE00
07FFFFFFFC00
07FFFFFFF000
07FFFFFFC000
07FFFFFC0000
ENDCHAR
STARTCHAR 0043
ENCODING 67
SWIDTH 681 0
DWIDTH 53 0
BBX 49 57 3 -1
BITMAP
0000003E000000
00000FFFF80000
00007FFFFF0000
0001FFFFFFC000
0007FFFFFFF000
000FFFFFFFF800
003FFFFFFFFC00
007FFFFFFFFE00
00FFFFFFFFFF00
01FFFFF3FFFF80
03FFFC001FFF00
07FFF00007FE00
07FFC00001FC00
0FFF800000F800
1FFE0000007000
1FFC0000002000
3FFC0000000000
3FF80000000000
3FF00000000000
7FF00000000000
7FE00000000000
7FE00000000000
FFC00000000000
FFC00000000000
FFC00000000000
FFC00000000000
FFC00000000000
FF800000000000
FF800000000000
FF800000000000
FFC00000000000
FFC00000000000
FFC00000000000
FFC00000000000
FFC00000000000
FFE00000000000
7FE00000000000
7FE00000000000
7FF00000000000
3FF00000000000
3FF80000000000
1FFC0000000000
1FFE0000003000
0FFF0000007800
0FFF800001FC00
07FFE00003FE00
03FFF8000FFF00
01FFFF007FFF80
00FFFFFFFFFF80
007FFFFFFFFF00
003FFFFFFFFE00
001FFFFFFFFC00
000FFFFFFFF000
0003FFFFFFE000
0000FFFFFF8000
00001FFFFE0000
000003FFE00000
ENDCHAR
STARTCHAR 0044
ENCODING 68
SWIDTH 668 0
DWIDTH 52 0
BBX 46 54 4 0
BITMAP
FFFFFF800000
FFFFFFF80000
FFFFFFFE0000
FFFFFFFF8000
FFFFFFFFE000
FFFFFFFFF000
FFFFFFFFF800
FFFFFFFFFC00
FFFFFFFFFE00
FFC001FFFF00
FFC0003FFF80
FFC0000FFF80
FFC00003FFC0
FFC00001FFE0
FFC00000FFE0
FFC000007FF0
FFC000007FF0
FFC000003FF0
FFC000003FF8
FFC000001FF8
FFC000001FF8
FFC000001FF8
FFC000001FF8
FFC000000FF8
FFC000000FFC
FFC000000FFC
FFC000000FFC
FFC000000FFC
FFC000000FFC
FFC000000FF8
FFC000000FF8
FFC000001FF8
FFC000001FF8
FFC000001FF8
FFC000003FF8
FFC000003FF0
FFC000003FF0
FFC000007FF0
FFC00000FFE0
FFC00001FFE0
FFC00003FFC0
FFC00007FFC0
FFC0001FFF80
FFC0007FFF80
FFC007FFFF00
FFFFFFFFFE00
FFFFFFFFFC00
FFFFFFFFF800
FFFFFFFFF000
FFFFFFFFC000
FFFFFFFF0000
FFFFFFFC0000
FFFFFFE00000
FFFFFE000000
ENDCHAR
STARTCHAR 0045
ENCODING 69
SWIDTH 501 0
DWIDTH 39 0
BBX 37 54 2 0
BITMAP
07FFFFF000
07FFFFF000
07FFFFF000
07FFFFF000
07FFFFF000
07FFFFF000
07FFFFF000
07FFFFF000
07FFFFF000
07FE000000
07FE000000
07FE000000
07FE000000
07FE000000
07FE000000
07FE000000
07FE000000
07FE000000
07FE000000
07FE000000
07FE000000
07FE000000
FFFFFFFE00
FFFFFFFE00
FFFFFFFE00
FFFFFFFE00
FFFFFFFE00
FFFFFFFE00
FFFFFFFE00
FFFFFFFE00
FFFFFFFE00
07FE000000
07FE000000
07FE000000
07FE000000
07FE000000
07FE000000
07FE000000
07FE000000
07FE000000
07FE000000
07FE000000
07FE000000
07FE000000
07FE000000
07FFFFFFF8
07FFFFFFF8
07FFFFFFF8
07FFFFFFF8
07FFFFFFF8
07FFFFFFF8
07FFFFFFF8
07FFFFFFF8
07FFFFFFF8
ENDCHAR
STARTCHAR 0046
ENCODING 70
SWIDTH 475 0
DWIDTH 37 0
BBX 35 54 2 0
BITMAP
03FFFFFFE0
03FFFFFFE0
03FFFFFFE0
03FFFFFFE0
03FFFFFFE0
03FFFFFFE0
03FFFFFFE0
03FFFFFFE0
03FFFFFFE0
03FF000000
03FF000000
03FF000000
03FF000000
03FF000000
03FF000000
03FF000000
03FF000000
03FF000000
03FF000000
03FF000000
03FF000000
03FF000000
03FF000000
03FF000000
FFFFFFFF80
FFFFFFFF80
FFFFFFFF80
FFFFFFFF80
FFFFFFFF80
FFFFFFFF80
FFFFFFFF80
FFFFFFFF80
FFFFFFFF80
03FF000000
03FF000000
03FF000000
03FF000000
03FF000000
03FF000000
03FF000000
03FF000000
03FF000000
03FF000000
03FF000000
03FF000000
03FF000000
03FF000000
03FF000000
03FF000000
03FF000000
03FF000000
03FF000000
03FF000000
03FF000000
ENDCHAR
STARTCHAR 0047
ENCODING 71
SWIDTH 822 0
DWIDTH 64 0
BBX 61 57 3 -1
BITMAP
0000003E00000000
000007FFF8000000
00003FFFFF000000
0001FFFFFFC00000
0007FFFFFFF00000
000FFFFFFFF80000
003FFFFFFFFE0000
007FFFFFFFFF0000
00FFFFFFFFFF8000
01FFFFF3FFFFC000
03FFFC001FFF8000
07FFF00007FF0000
07FFC00001FE0000
0FFF800000FC0000
1FFE000000300000
1FFC000000200000
3FFC000000000000
3FF8000000000000
3FF0000000000000
7FF0000000000000
7FE0000000000000
7FE0000000000000
FFC0000000000000
FFC0000000000000
FFC0001FFFFFFFF8
FFC0001FFFFFFFF8
FFC0001FFFFFFFF8
FF80001FFFFFFFF8
FF80001FFFFFFFF8
FF80001FFFFFFFF8
FFC0001FFFFFFFF8
FFC0001FFFFFFFF8
FFC0001FFFFFFFF8
FFC000000003FF00
FFC000000003FF00
FFE000000003FF00
7FE000000007FF00
7FE000000007FF00
7FF000000007FE00
3FF00000000FFE00
3FF80000001FFE00
1FFC0000001FFC00
1FFE0000003FFC00
0FFF0000007FF800
0FFF800000FFF000
07FFE00003FFF000
03FFF8000FFFE000
01FFFF007FFFC000
00FFFFFFFFFF8000
007FFFFFFFFF0000
003FFFFFFFFE0000
001FFFFFFFFC0000
0007FFFFFFF80000
0003FFFFFFE00000
0000FFFFFF800000
00001FFFFE000000
000001FFF0000000
ENDCHAR
STARTCHAR 0048
ENCODING 72
SWIDTH 565 0
DWIDTH 44 0
BBX 39 54 2 0
BITMAP
07FE0007FE
07FE0007FE
07FE0007FE
07FE0007FE
07FE0007FE
07FE0007FE
07FE0007FE
07FE0007FE
07FE0007FE
07FE0007FE
07FE0007FE
07FE0007FE
07FE0007FE
07FE0007FE
07FE0007FE
07FE0007FE
07FE0007FE
07FE0007FE
07FE0007FE
07FE0007FE
07FE0007FE
07FE0007FE
07FE0007FE
FFFFFFFFFE
FFFFFFFFFE
FFFFFFFFFE
FFFFFFFFFE
FFFFFFFFFE
FFFFFFFFFE
FFFFFFFFFE
FFFFFFFFFE
FFFFFFFFFE
07FE0007FE
07FE0007FE
07FE0007FE
07FE0007FE
07FE0007FE
07FE0007FE
07FE0007FE
07FE0007FE
07FE0007FE
07FE0007FE
07FE0007FE
07FE0007FE
07FE0007FE
07FE0007FE
07FE0007FE
07FE0007FE
07FE0007FE
07FE0007FE
07FE0007FE
07FE0007FE
07FE0007FE
07FE0007FE
ENDCHAR
STARTCHAR 0049
ENCODING 73
SWIDTH 218 0
DWIDTH 17 0
BBX 22 62 -2 1
BITMAP
002000
003000
003000
007000
007800
00F800
00F800
1FFFC0
FFFFFC
3FFFF0
1FFFE0
0FFF80
07FF00
03FF00
07FF00
07FF00
07FF80
078F80
0F0380
0C0180
080040
000000
000000
000000
000000
000000
000000
000000
000000
03FF00
03FF00
03FF00
03FF00
03FF00
03FF00
03FF00
03FF00
03FF00
03FF00
03FF00
03FF00
03FF00
03FF00
03FF00
03FF00
03FF00
03FF00
03FF00
03FF00
03FF00
03FF00
03FF00
03FF00
03FF00
03FF00
03FF00
03FF00
03FF00
03FF00
03FF00
03FF00
03FF00
ENDCHAR
STARTCHAR 004A
ENCODING 74
SWIDTH 475 0
DWIDTH 37 0
BBX 32 55 1 -1
BITMAP
00007FFF
00007FFF
00007FFF
00007FFF
00007FFF
00007FFF
00007FFF
00007FFF
00007FFF
000003FF
000003FF
000003FF
000003FF
000003FF
000003FF
000003FF
000003FF
000003FF
000003FF
000003FF
000003FF
000003FF
000003FF
000003FF
000003FF
000003FF
000003FF
000003FF
000003FF
000003FF
000003FF
000003FF
000003FF
000003FF
000003FF
000003FF
000003FF
000003FF
000003FF
000003FF
000003FF
018003FF
078007FE
1FC00FFE
3FE00FFE
FFF03FFC
7FFFFFFC
7FFFFFFC
3FFFFFF8
1FFFFFF0
1FFFFFE0
0FFFFFC0
03FFFF80
00FFFE00
003FF800
ENDCHAR
STARTCHAR 004B
ENCODING 75
SWIDTH 552 0
DWIDTH 43 0
BBX 38 54 2 0
BITMAP
07FE007FE0
07FE007FE0
07FE007FE0
07FE007FE0
07FE007FE0
07FE007FE0
07FE007FE0
07FE007FE0
07FE007FE0
07FE007FE0
07FE007FE0
07FE007FE0
07FE007FE0
07FE007FE0
07FE007FE0
07FE007FE0
07FE007FE0
07FE00FFC0
07FE00FFC0
07FE01FFC0
07FE03FFC0
07FE0FFF80
FFFFFFFF80
FFFFFFFF00
FFFFFFFE00
FFFFFFFF80
FFFFFFFFC0
FFFFFFFFC0
FFFFFFFFE0
FFFFFFFFF0
07FE03FFF0
07FE007FF8
07FE003FF8
07FE001FF8
07FE001FFC
07FE000FFC
07FE000FFC
07FE000FFC
07FE000FFC
07FE000FFC
07FE0007FC
07FE0007FC
07FE0007FC
07FE0007FC
07FE0007FC
07FE0007FC
07FE0007FC
07FE0007FC
07FE0007FC
07FE0007FC
07FE0007FC
07FE0007FC
07FE0007FC
07FE0007FC
ENDCHAR
STARTCHAR 004C
ENCODING 76
SWIDTH 450 0
DWIDTH 35 0
BBX 30 54 4 0
BITMAP
FFC00000
FFC00000
FFC00000
FFC00000
FFC00000
FFC00000
FFC00000
FFC00000
FFC00000
FFC00000
FFC00000
FFC00000
FFC00000
FFC00000
FFC00000
FFC00000
FFC00000
FFC00000
FFC00000
FFC00000
FFC00000
FFC00000
FFC00000
FFC00000
FFC00000
FFC00000
FFC00000
FFC00000
FFC00000
FFC00000
FFC00000
FFC00000
FFC00000
FFC00000
FFC00000
FFC00000
FFC00000
FFC00000
FFC00000
FFC00000
FFC00000
FFC00000
FFC00000
FFC00000
FFC00000
FFFFFFFC
FFFFFFFC
FFFFFFFC
FFFFFFFC
FFFFFFFC
FFFFFFFC
FFFFFFFC
FFFFFFFC
FFFFFFFC
ENDCHAR
STARTCHAR 004D
ENCODING 77
SWIDTH 874 0
DWIDTH 68 0
BBX 63 56 1 0
BITMAP
0200000000000000
0700000380000000
0F800003C00003FE
1FE00003E00003FE
1FF00003F80003FE
3FF80003FC0003FE
7FFC0003FE0003FE
FFFF0003FF0003FE
7FFF8003FFC003FE
1FFFC003FFE003FE
0FFFF003FFF003FE
07FFF803FFFC03FE
07FFFC03FFFE03FE
07FFFE03FFFF03FE
07FFFF83FFFF83FE
07FFFFC3FFFFE3FE
07FFFFE3FFFFF3FE
07FFFFF3FFFFFBFE
07FFFFFFFEFFFFFE
07FE7FFFFE7FFFFE
07FE3FFFFE1FFFFE
07FE1FFFFE0FFFFE
07FE0FFFFE07FFFE
07FE03FFFE03FFFE
07FE01FFFE00FFFE
07FE00FFFE007FFE
07FE007FFE003FFE
07FE001FFE001FFE
07FE000FFE0007FE
07FE0007FE0003FE
07FE0003FE0003FE
07FE0003FE0003FE
07FE0003FE0003FE
07FE0003FE0003FE
07FE0003FE0003FE
07FE0003FE0003FE
07FE0003FE0003FE
07FE0003FE0003FE
07FE0003FE0003FE
07FE0003FE0003FE
07FE0003FE0003FE
07FE0003FE0003FE
07FE0003FE0003FE
07FE0003FE0003FE
07FE0003FE0003FE
07FE0003FE0003FE
07FE0003FE0003FE
07FE0003FE0003FE
07FE0003FE0003FE
07FE0003FE0003FE
07FE0003FE0003FE
07FE0003FE0003FE
07FE0003FE0003FE
07FE0003FE0003FE
07FE0003FE0003FE
07FE0003FE0003FE
ENDCHAR
STARTCHAR 004E
ENCODING 78
SWIDTH 552 0
DWIDTH 43 0
BBX 38 56 1 0
BITMAP
0200000000
0700000000
0F80000FFC
1FE0000FFC
1FF0000FFC
3FF8000FFC
7FFC000FFC
FFFF000FFC
7FFF800FFC
1FFFC00FFC
0FFFF00FFC
0FFFF80FFC
0FFFFC0FFC
0FFFFE0FFC
0FFFFF8FFC
0FFFFFCFFC
0FFFFFEFFC
0FFFFFFFFC
0FFFFFFFFC
0FFCFFFFFC
0FFC7FFFFC
0FFC3FFFFC
0FFC0FFFFC
0FFC07FFFC
0FFC03FFFC
0FFC01FFFC
0FFC007FFC
0FFC003FFC
0FFC001FFC
0FFC000FFC
0FFC000FFC
0FFC000FFC
0FFC000FFC
0FFC000FFC
0FFC000FFC
0FFC000FFC
0FFC000FFC
0FFC000FFC
0FFC000FFC
0FFC000FFC
0FFC000FFC
0FFC000FFC
0FFC000FFC
0FFC000FFC
0FFC000FFC
0FFC000FFC
0FFC000FFC
0FFC000FFC
0FFC000FFC
0FFC000FFC
0FFC000FFC
0FFC000FFC
0FFC000FFC
0FFC000FFC
0FFC000FFC
0FFC000FFC
ENDCHAR
STARTCHAR 004F
ENCODING 79
SWIDTH 810 0
DWIDTH 63 0
BBX 58 57 3 -1
BITMAP
0000003E00000000
000007FFF8000000
00003FFFFF000000
0001FFFFFFE00000
0007FFFFFFF00000
000FFFFFFFFC0000
003FFFFFFFFE0000
007FFFFFFFFF8000
00FFFFFFFFFFC000
01FFFFF3FFFFE000
03FFFC000FFFF000
07FFF00003FFF000
07FFC00000FFF800
0FFF8000007FFC00
1FFF0000003FFC00
1FFC0000001FFE00
3FFC0000000FFE00
3FF800000007FF00
3FF000000003FF00
7FF000000003FF80
7FE000000001FF80
7FE000000001FF80
FFC000000001FFC0
FFC000000000FFC0
FFC000000000FFC0
FFC000000000FFC0
FFC000000000FFC0
FF8000000000FFC0
FF8000000000FFC0
FF8000000000FFC0
FFC000000000FFC0
FFC000000000FFC0
FFC000000000FFC0
FFC000000000FFC0
FFC000000000FFC0
FFE000000001FF80
7FE000000001FF80
7FE000000001FF80
7FF000000003FF80
3FF800000007FF00
3FF800000007FF00
1FFC0000000FFE00
1FFE0000001FFE00
0FFF0000003FFC00
0FFF8000007FFC00
07FFE00001FFF800
03FFF80007FFF000
01FFFF003FFFE000
00FFFFFFFFFFC000
007FFFFFFFFF8000
003FFFFFFFFF0000
001FFFFFFFFE0000
0007FFFFFFF80000
0003FFFFFFF00000
0000FFFFFFC00000
00001FFFFE000000
000001FFF0000000
ENDCHAR
STARTCHAR 0050
ENCODING 80
SWIDTH 565 0
DWIDTH 44 0
BBX 41 54 2 0
BITMAP
0FFFFFF80000
0FFFFFFF0000
0FFFFFFFC000
0FFFFFFFE000
0FFFFFFFF000
0FFFFFFFF800
0FFFFFFFFC00
0FFFFFFFFE00
0FFFFFFFFF00
0FFC001FFF00
0FFC0007FF00
0FFC0003FF80
0FFC0001FF80
0FFC0001FF80
0FFC0000FF80
0FFC0000FF80
0FFC0000FF80
0FFC0000FF80
0FFC0000FF80
0FFC0001FF80
0FFC0001FF80
0FFC0003FF80
0FFC0007FF00
0FFC000FFF00
0FFC007FFE00
FFFFFFFFFE00
FFFFFFFFFC00
FFFFFFFFF800
FFFFFFFFF800
FFFFFFFFE000
FFFFFFFFC000
FFFFFFFF0000
FFFFFFFC0000
FFFFFFC00000
0FFC00000000
0FFC00000000
0FFC00000000
0FFC00000000
0FFC00000000
0FFC00000000
0FFC00000000
0FFC00000000
0FFC00000000
0FFC00000000
0FFC00000000
0FFC00000000
0FFC00000000
0FFC00000000
0FFC00000000
0FFC00000000
0FFC00000000
0FFC00000000
0FFC00000000
0FFC00000000
ENDCHAR
STARTCHAR 0051
ENCODING 81
SWIDTH 810 0
DWIDTH 63 0
BBX 58 58 3 -2
BITMAP
0000003E00000000
000007FFF8000000
00003FFFFF000000
0001FFFFFFE00000
0007FFFFFFF00000
000FFFFFFFFC0000
003FFFFFFFFE0000
007FFFFFFFFF8000
00FFFFFFFFFFC000
01FFFFF3FFFFE000
03FFFC000FFFF000
07FFF00003FFF000
07FFC00000FFF800
0FFF8000007FFC00
1FFF0000003FFC00
1FFC0000001FFE00
3FFC0000000FFE00
3FF800000007FF00
3FF000000003FF00
7FF000000003FF80
7FE000000001FF80
7FE000000001FF80
FFC000000001FFC0
FFC000000000FFC0
FFC000000000FFC0
FFC000000000FFC0
FFC000000000FFC0
FF8000000000FFC0
FF8000000000FFC0
FF8000000000FFC0
FFC000000000FFC0
FFC000000000FFC0
FFC000000000FFC0
FFC000000000FFC0
FFC000000000FFC0
FFE000000001FF80
7FE000000001FF80
7FE0000000C3FF80
7FF0000001E3FF80
3FF8000003F7FF00
3FF8000007FFFF00
1FFC00000FFFFE00
1FFE00001FFFFE00
0FFF00003FFFFC00
0FFF80001FFFFC00
07FFE0000FFFF800
03FFF80007FFF000
01FFFF003FFFF000
00FFFFFFFFFFF800
007FFFFFFFFFFC00
003FFFFFFFFFFE00
001FFFFFFFFFFE00
0007FFFFFFFFFC00
0003FFFFFFFFF800
0000FFFFFFC7F000
00001FFFFE03E000
000001FFF001C000
0000000000008000
ENDCHAR
STARTCHAR 0052
ENCODING 82
SWIDTH 604 0
DWIDTH 47 0
BBX 43 54 2 0
BITMAP
07FFFFFE0000
07FFFFFFC000
07FFFFFFE000
07FFFFFFF800
07FFFFFFFC00
07FFFFFFFE00
07FFFFFFFF00
07FFFFFFFF00
07FFFFFFFF80
07FE0007FF80
07FE0003FFC0
07FE0001FFC0
07FE0000FFC0
07FE00007FC0
07FE00007FE0
07FE00007FE0
07FE00007FE0
07FE00007FE0
07FE00007FC0
07FE0000FFC0
07FE0000FFC0
07FE0001FFC0
07FE0003FF80
07FE000FFF80
FFFFFFFFFF80
FFFFFFFFFF00
FFFFFFFFFE00
FFFFFFFFFC00
FFFFFFFFF800
FFFFFFFFF000
FFFFFFFFF000
FFFFFFFFF800
FFFFFFFFF800
07FE00FFFC00
07FE001FFC00
07FE000FFE00
07FE0007FE00
07FE0007FE00
07FE0003FF00
07FE0003FF00
07FE0003FF00
07FE0003FF00
07FE0001FF00
07FE0001FF00
07FE0001FF00
07FE0001FF00
07FE0001FF00
07FE0001FF00
07FE0001FF00
07FE0001FF00
07FE0001FF00
07FE0001FF00
07FE0001FF00
07FE0001FF00
ENDCHAR
STARTCHAR 0053
ENCODING 83
SWIDTH 501 0
DWIDTH 39 0
BBX 35 57 2 -1
BITMAP
0003F80000
001FFF8000
007FFFE000
01FFFFF000
03FFFFF800
07FFFFFC00
07FFFFFE00
0FFFFFFF00
0FFFFFFF00
1FFFFFFF80
1FFC03FF80
1FF801FFC0
1FF800FFC0
3FF000FFC0
3FF0007F00
3FF0007800
1FF8000000
1FF8000000
1FFC000000
1FFE000000
0FFF000000
0FFF800000
07FFE00000
03FFF80000
01FFFC0000
00FFFF0000
007FFFC000
003FFFE000
001FFFF000
0007FFFC00
0001FFFE00
0000FFFE00
00003FFF00
00001FFF80
000007FFC0
000003FFC0
000001FFC0
000000FFE0
0000007FE0
0000007FE0
00C0007FE0
0FC0007FE0
7FC0007FE0
FFE0007FE0
7FF0007FE0
7FF000FFE0
3FF801FFC0
3FFE07FFC0
1FFFFFFFC0
1FFFFFFF80
0FFFFFFF80
07FFFFFF00
03FFFFFE00
01FFFFFC00
00FFFFF000
003FFFE000
0007FF0000
ENDCHAR
STARTCHAR 0054
ENCODING 84
SWIDTH 514 0
DWIDTH 40 0
BBX 36 54 2 0
BITMAP
FFFFFFFFF0
FFFFFFFFF0
FFFFFFFFF0
FFFFFFFFF0
FFFFFFFFF0
FFFFFFFFF0
FFFFFFFFF0
FFFFFFFFF0
FFFFFFFFF0
0007FE0000
0007FE0000
0007FE0000
0007FE0000
0007FE0000
0007FE0000
0007FE0000
0007FE0000
0007FE0000
0007FE0000
0007FE0000
0007FE0000
0007FE0000
0007FE0000
0007FE0000
0007FE0000
0007FE0000
0007FE0000
0007FE0000
0007FE0000
0007FE0000
0007FE0000
0007FE0000
0007FE0000
0007FE0000
0007FE0000
0007FE0000
0007FE0000
0007FE0000
0007FE0000
0007FE0000
0007FE0000
0007FE0000
0007FE0000
0007FE0000
0007FE0000
0007FE0000
0007FE0000
0007FE0000
0007FE0000
0007FE0000
0007FE0000
0007FE0000
0007FE0000
0007FE0000
ENDCHAR
STARTCHAR 0055
ENCODING 85
SWIDTH 527 0
DWIDTH 41 0
BBX 35 55 3 -1
BITMAP
FFC0007FE0
FFC0007FE0
FFC0007FE0
FFC0007FE0
FFC0007FE0
FFC0007FE0
FFC0007FE0
FFC0007FE0
FFC0007FE0
FFC0007FE0
FFC0007FE0
FFC0007FE0
FFC0007FE0
FFC0007FE0
FFC0007FE0
FFC0007FE0
FFC0007FE0
FFC0007FE0
FFC0007FE0
FFC0007FE0
FFC0007FE0
FFC0007FE0
FFC0007FE0
FFC0007FE0
FFC0007FE0
FFC0007FE0
FFC0007FE0
FFC0007FE0
FFC0007FE0
FFC0007FE0
FFC0007FE0
FFC0007FE0
FFC0007FE0
FFC0007FE0
FFC0007FE0
FFC0007FE0
FFC0007FE0
7FC0007FE0
7FC0007FE0
7FC0007FC0
7FE000FFC0
7FE000FFC0
7FE000FFC0
3FF001FFC0
3FF803FF80
3FFE0FFF80
1FFFFFFF00
1FFFFFFF00
0FFFFFFE00
07FFFFFC00
03FFFFF800
01FFFFF000
00FFFFE000
003FFF8000
0007FE0000
ENDCHAR
STARTCHAR 0056
ENCODING 86
SWIDTH 488 0
DWIDTH 38 0
BBX 33 54 1 0
BITMAP
FFC001FF80
FFC001FF80
FFC001FF80
FFC001FF80
FFC001FF80
FFC001FF80
FFC001FF80
FFC001FF80
FFC001FF80
FFC001FF80
FFC001FF80
FFC001FF80
FFC001FF80
FFC001FF80
FFC001FF80
FFC001FF80
FFC001FF80
FFC001FF80
FFC001FF80
FFC001FF80
FFC001FF80
FFC001FF80
FFC001FF80
FFC001FF80
FFC001FF80
FFC001FF80
FFC001FF80
FFC001FF80
FFC001FF80
FFC001FF80
FFC001FF80
7FC001FF00
7FC003FF00
7FE003FF00
7FE003FF00
7FE003FF00
7FE003FF00
3FF007FE00
3FF007FE00
3FF007FE00
1FF80FFC00
1FF80FFC00
1FFC1FFC00
0FFC1FF800
0FFE3FF800
07FE3FF000
07FF7FF000
03FF7FE000
01FFFFC000
01FFFFC000
00FFFF8000
007FFF0000
003FFE0000
001FFC0000
ENDCHAR
STARTCHAR 0057
ENCODING 87
SWIDTH 784 0
DWIDTH 61 0
BBX 56 54 1 0
BITMAP
FFC001FF8001FF
FFC001FF8001FF
FFC001FF8001FF
FFC001FF8001FF
FFC001FF8001FF
FFC001FF8001FF
FFC001FF8001FF
FFC001FF8001FF
FFC001FF8001FF
FFC001FF8001FF
FFC001FF8001FF
FFC001FF8001FF
FFC001FF8001FF
FFC001FF8001FF
FFC001FF8001FF
FFC001FF8001FF
FFC001FF8001FF
FFC001FF8001FF
FFC001FF8001FF
FFC001FF8001FF
FFC001FF8001FF
FFC001FF8001FF
FFC001FF8001FF
FFC001FF8001FF
FFC001FF8001FF
FFC001FF8001FF
FFC001FF8001FF
FFC001FF8003FF
FFC001FF8003FF
FFC001FF8003FF
FFC001FFC003FF
7FC001FFC003FF
7FC003FFC003FF
7FE003FFC003FF
7FE003FFC007FE
7FE003FFE007FE
7FE003FFE007FE
3FF007FFE007FE
3FF007FFE00FFC
3FF007FFF00FFC
1FF80FFFF00FFC
1FF80FFFF01FF8
1FFC1FFFF81FF8
0FFC1FFFF83FF8
0FFE3FFFFC3FF0
07FE3FFFFE7FF0
07FF7FF7FE7FE0
03FF7FE7FFFFC0
01FFFFC3FFFFC0
01FFFFC1FFFF80
00FFFF80FFFF00
007FFF00FFFE00
003FFE007FFE00
001FFC003FFC00
ENDCHAR
STARTCHAR 0058
ENCODING 88
SWIDTH 527 0
DWIDTH 41 0
BBX 34 54 4 0
BITMAP
FFC000FFC0
FFC000FFC0
FFC000FFC0
FFC000FFC0
FFC000FFC0
FFC000FFC0
FFC000FFC0
FFC000FFC0
FFC000FFC0
FFC000FFC0
FFC000FFC0
FFC000FFC0
FFC000FFC0
FFC000FFC0
FFC001FF80
7FE001FF80
7FF003FF80
7FF807FF80
3FFE1FFF00
3FFFFFFF00
1FFFFFFE00
0FFFFFFC00
0FFFFFFC00
07FFFFF800
0FFFFFFC00
1FFFFFFE00
1FFFFFFE00
3FFFFFFF00
3FFC0FFF00
7FF003FF80
7FF003FF80
7FE001FF80
FFC001FFC0
FFC000FFC0
FFC000FFC0
FFC000FFC0
FFC000FFC0
FFC000FFC0
FFC000FFC0
FFC000FFC0
FFC000FFC0
FFC000FFC0
FFC000FFC0
FFC000FFC0
FFC000FFC0
FFC000FFC0
FFC000FFC0
FFC000FFC0
FFC000FFC0
FFC000FFC0
FFC000FFC0
FFC000FFC0
FFC000FFC0
FFC000FFC0
ENDCHAR
STARTCHAR 0059
ENCODING 89
SWIDTH 514 0
DWIDTH 40 0
BBX 34 54 3 0
BITMAP
FFC0007FC0
FFC0007FC0
FFC0007FC0
FFC0007FC0
FFC0007FC0
FFC0007FC0
FFC0007FC0
FFC0007FC0
FFC0007FC0
FFC0007FC0
FFC0007FC0
FFC0007FC0
FFC0007FC0
FFC0007FC0
FFC0007FC0
FFC0007FC0
FFC0007FC0
FFC0007FC0
FFC0007FC0
FFC0007FC0
FFC0007FC0
FFC0007FC0
FFC0007FC0
FFC0007FC0
FFC000FFC0
FFC000FFC0
FFC000FFC0
FFC000FFC0
7FE001FFC0
7FE001FF80
7FF003FF80
3FF807FF80
3FFFFFFF00
1FFFFFFF00
1FFFFFFE00
0FFFFFFC00
07FFFFF800
03FFFFF000
01FFFFE000
007FFFC000
001FFE0000
000FFC0000
000FFC0000
000FFC0000
000FFC0000
000FFC0000
000FFC0000
000FFC0000
000FFC0000
000FFC0000
000FFC0000
000FFC0000
000FFC0000
000FFC0000
ENDCHAR
STARTCHAR 005A
ENCODING 90
SWIDTH 514 0
DWIDTH 40 0
BBX 37 54 2 0
BITMAP
FFFFFFFFF8
FFFFFFFFF8
FFFFFFFFF8
FFFFFFFFF8
FFFFFFFFF8
FFFFFFFFF0
FFFFFFFFE0
FFFFFFFFE0
FFFFFFFFC0
000001FFC0
000001FF80
000003FF00
000007FF00
000007FE00
00000FFE00
00000FFC00
00001FFC00
00003FF800
00003FF000
00007FF000
00007FE000
0000FFE000
0001FFC000
0001FF8000
0003FF8000
0003FF0000
0007FF0000
000FFE0000
000FFE0000
001FFC0000
001FF80000
003FF80000
007FF00000
007FF00000
00FFE00000
00FFC00000
01FFC00000
01FF800000
03FF800000
07FF000000
07FE000000
0FFE000000
0FFC000000
1FFC000000
3FF8000000
3FFFFFFFE0
7FFFFFFFE0
7FFFFFFFE0
FFFFFFFFE0
FFFFFFFFE0
FFFFFFFFE0
FFFFFFFFE0
FFFFFFFFE0
FFFFFFFFE0
ENDCHAR
STARTCHAR 005B
ENCODING 91
SWIDTH 257 0
DWIDTH 20 0
BBX 12 75 4 -11
BITMAP
FFF0
FFF0
FFF0
FFF0
FFF0
FFF0
FE00
FE00
FE00
FE00
FE00
FE00
FE00
FE00
FE00
FE00
FE00
FE00
FE00
FE00
FE00
FE00
FE00
FE00
FE00
FE00
FE00
FE00
FE00
FE00
FE00
FE00
FE00
FE00
FE00
FE00
FE00
FE00
FE00
FE00
FE00
FE00
FE00
FE00
FE00
FE00
FE00
FE00
FE00
FE00
FE00
FE00
FE00
FE00
FE00
FE00
FE00
FE00
FE00
FE00
FE00
FE00
FE00
FE00
FE00
FE00
FE00
FE00
FE00
FE00
FFF0
FFF0
FFF0
FFF0
FFF0
ENDCHAR
STARTCHAR 005C
ENCODING 92
SWIDTH 411 0
DWIDTH 32 0
BBX 24 57 4 -1
BITMAP
FF0000
7F0000
7F8000
7F8000
7F8000
3FC000
3FC000
3FC000
1FC000
1FE000
1FE000
1FE000
0FF000
0FF000
0FF000
07F000
07F800
07F800
03F800
03FC00
03FC00
03FC00
01FC00
01FE00
01FE00
00FE00
00FF00
00FF00
00FF00
007F00
007F80
007F80
003F80
003FC0
003FC0
003FC0
001FC0
001FE0
001FE0
000FE0
000FF0
000FF0
000FF0
0007F0
0007F8
0007F8
0003F8
0003FC
0003FC
0003FC
0001FC
0001FE
0001FE
0000FE
0000FF
0000FF
0000FF
ENDCHAR
STARTCHAR 005D
ENCODING 93
SWIDTH 257 0
DWIDTH 20 0
BBX 12 75 4 -11
BITMAP
FFF0
FFF0
FFF0
FFF0
FFF0
FFF0
03F0
03F0
03F0
03F0
03F0
03F0
03F0
03F0
03F0
03F0
03F0
03F0
03F0
03F0
03F0
03F0
03F0
03F0
03F0
03F0
03F0
03F0
03F0
03F0
03F0
03F0
03F0
03F0
03F0
03F0
03F0
03F0
03F0
03F0
03F0
03F0
03F0
03F0
03F0
03F0
03F0
03F0
03F0
03F0
03F0
03F0
03F0
03F0
03F0
03F0
03F0
03F0
03F0
03F0
03F0
03F0
03F0
03F0
03F0
03F0
03F0
03F0
03F0
03F0
FFF0
FFF0
FFF0
FFF0
FFF0
ENDCHAR
STARTCHAR 005E
ENCODING 94
SWIDTH 514 0
DWIDTH 40 0
BBX 30 20 5 27
BITMAP
003FF000
003FF000
007FF800
007FF800
00FFFC00
01FFFE00
01FDFE00
03FCFF00
03F8FF00
07F87F80
07F03F80
0FF03FC0
0FE01FC0
1FC01FE0
1FC00FF0
3F8007F0
7F8007F8
7F0003F8
FF0003FC
FE0001FC
ENDCHAR
STARTCHAR 005F
ENCODING 95
SWIDTH 540 0
DWIDTH 42 0
BBX 34 6 4 -9
BITMAP
FFFFFFFFC0
FFFFFFFFC0
FFFFFFFFC0
FFFFFFFFC0
FFFFFFFFC0
FFFFFFFFC0
ENDCHAR
STARTCHAR 0060
ENCODING 96
SWIDTH 154 0
DWIDTH 12 0
BBX 12 10 0 59
BITMAP
FF00
7F00
3F80
1F80
1FC0
0FC0
07E0
03E0
03F0
01F0
ENDCHAR
STARTCHAR 0061
ENCODING 97
SWIDTH 565 0
DWIDTH 44 0
BBX 39 56 4 0
BITMAP
0000C00000
001FFE0000
00FFFF8000
01FFFFE000
03FFFFF000
07FFFFF800
0FFFFFFC00
1FFFFFFE00
3FFFFFFE00
3FFF3FFF00
7FF807FF00
7FF003FF80
7FE001FF80
FFE001FF80
FFC000FFC0
FFC000FFC0
FFC000FFC0
FFC000FFC0
FFC000FFC0
FFC000FFC0
FFC000FFC0
FFC000FFC0
FFC000FFC0
FFC000FFC0
FFC000FFC0
FFC000FFC0
FFC000FFC0
FFC000FFC0
FFC000FFC0
FFC000FFC0
FFC000FFC0
FFC000FFC0
FFC000FFC0
FFC000FFC0
FFC000FFC0
FFC000FFC0
FFC000FFC0
FFC000FFC0
FFC000FFC0
FFC000FFC0
FFC000FFC0
FFC000FFC0
FFC000FFC0
FFC000FFC0
FFC000FFC0
FFC000FFC0
FFC000FFC0
FFFFFFFFFE
FFFFFFFFFE
FFFFFFFFFE
FFFFFFFFFE
FFFFFFFFFE
FFFFFFFFFE
FFFFFFFFFE
FFFFFFFFFE
FFFFFFFFFE
ENDCHAR
STARTCHAR 0062
ENCODING 98
SWIDTH 617 0
DWIDTH 48 0
BBX 44 54 3 0
BITMAP
07FFFFFE0000
07FFFFFFC000
07FFFFFFF000
07FFFFFFF800
07FFFFFFFC00
07FFFFFFFE00
07FFFFFFFF00
07FFFFFFFF00
07FFFFFFFF80
07FC0007FF80
07FC0003FFC0
07FC0001FFC0
07FC0000FFC0
07FC0000FFC0
07FC0000FFC0
07FC0000FFC0
07FC0000FFC0
07FC0000FFC0
07FC0000FFC0
07FC0001FF80
07FC0003FF80
07FC000FFF80
FFFFFFFFFF00
FFFFFFFFFF00
FFFFFFFFFE00
FFFFFFFFFC00
FFFFFFFFFE00
FFFFFFFFFF00
FFFFFFFFFF80
FFFFFFFFFF80
FFFFFFFFFFC0
07FC0003FFC0
07FC0001FFE0
07FC0000FFE0
07FC00007FE0
07FC00007FE0
07FC00003FF0
07FC00003FF0
07FC00003FF0
07FC00003FF0
07FC00007FE0
07FC00007FE0
07FC0000FFE0
07FC0001FFE0
07FC000FFFC0
07FFFFFFFFC0
07FFFFFFFF80
07FFFFFFFF80
07FFFFFFFF00
07FFFFFFFE00
07FFFFFFFC00
07FFFFFFF000
07FFFFFFC000
07FFFFFC0000
ENDCHAR
STARTCHAR 0063
ENCODING 99
SWIDTH 681 0
DWIDTH 53 0
BBX 49 57 3 -1
BITMAP
0000003E000000
00000FFFF80000
00007FFFFF0000
0001FFFFFFC000
0007FFFFFFF000
000FFFFFFFF800
003FFFFFFFFC00
007FFFFFFFFE00
00FFFFFFFFFF00
01FFFFF3FFFF80
03FFFC001FFF00
07FFF00007FE00
07FFC00001FC00
0FFF800000F800
1FFE0000007000
1FFC0000002000
3FFC0000000000
3FF80000000000
3FF00000000000
7FF00000000000
7FE00000000000
7FE00000000000
FFC00000000000
FFC00000000000
FFC00000000000
FFC00000000000
FFC00000000000
FF800000000000
FF800000000000
FF800000000000
FFC00000000000
FFC00000000000
FFC00000000000
FFC00000000000
FFC00000000000
FFE00000000000
7FE00000000000
7FE00000000000
7FF00000000000
3FF00000000000
3FF80000000000
1FFC0000000000
1FFE0000003000
0FFF0000007800
0FFF800001FC00
07FFE00003FE00
03FFF8000FFF00
01FFFF007FFF80
00FFFFFFFFFF80
007FFFFFFFFF00
003FFFFFFFFE00
001FFFFFFFFC00
000FFFFFFFF000
0003FFFFFFE000
0000FFFFFF8000
00001FFFFE0000
000003FFE00000
ENDCHAR
STARTCHAR 0064
ENCODING 100
SWIDTH 668 0
DWIDTH 52 0
BBX 46 54 4 0
BITMAP
FFFFFF800000
FFFFFFF80000
FFFFFFFE0000
FFFFFFFF8000
FFFFFFFFE000
FFFFFFFFF000
FFFFFFFFF800
FFFFFFFFFC00
FFFFFFFFFE00
FFC001FFFF00
FFC0003FFF80
FFC0000FFF80
FFC00003FFC0
FFC00001FFE0
FFC00000FFE0
FFC000007FF0
FFC000007FF0
FFC000003FF0
FFC000003FF8
FFC000001FF8
FFC000001FF8
FFC000001FF8
FFC000001FF8
FFC000000FF8
FFC000000FFC
FFC000000FFC
FFC000000FFC
FFC000000FFC
FFC000000FFC
FFC000000FF8
FFC000000FF8
FFC000001FF8
FFC000001FF8
FFC000001FF8
FFC000003FF8
FFC000003FF0
FFC000003FF0
FFC000007FF0
FFC00000FFE0
FFC00001FFE0
FFC00003FFC0
FFC00007FFC0
FFC0001FFF80
FFC0007FFF80
FFC007FFFF00
FFFFFFFFFE00
FFFFFFFFFC00
FFFFFFFFF800
FFFFFFFFF000
FFFFFFFFC000
FFFFFFFF0000
FFFFFFFC0000
FFFFFFE00000
FFFFFE000000
ENDCHAR
STARTCHAR 0065
ENCODING 101
SWIDTH 501 0
DWIDTH 39 0
BBX 37 54 2 0
BITMAP
07FFFFF000
07FFFFF000
07FFFFF000
07FFFFF000
07FFFFF000
07FFFFF000
07FFFFF000
07FFFFF000
07FFFFF000
07FE000000
07FE000000
07FE000000
07FE000000
07FE000000
07FE000000
07FE000000
07FE000000
07FE000000
07FE000000
07FE000000
07FE000000
07FE000000
FFFFFFFE00
FFFFFFFE00
FFFFFFFE00
FFFFFFFE00
FFFFFFFE00
FFFFFFFE00
FFFFFFFE00
FFFFFFFE00
FFFFFFFE00
07FE000000
07FE000000
07FE000000
07FE000000
07FE000000
07FE000000
07FE000000
07FE000000
07FE000000
07FE000000
07FE000000
07FE000000
07FE000000
07FE000000
07FFFFFFF8
07FFFFFFF8
07FFFFFFF8
07FFFFFFF8
07FFFFFFF8
07FFFFFFF8
07FFFFFFF8
07FFFFFFF8
07FFFFFFF8
ENDCHAR
STARTCHAR 0066
ENCODING 102
SWIDTH 475 0
DWIDTH 37 0
BBX 35 54 2 0
BITMAP
03FFFFFFE0
03FFFFFFE0
03FFFFFFE0
03FFFFFFE0
03FFFFFFE0
03FFFFFFE0
03FFFFFFE0
03FFFFFFE0
03FFFFFFE0
03FF000000
03FF000000
03FF000000
03FF000000
03FF000000
03FF000000
03FF000000
03FF000000
03FF000000
03FF000000
03FF000000
03FF000000
03FF000000
03FF000000
03FF000000
FFFFFFFF80
FFFFFFFF80
FFFFFFFF80
FFFFFFFF80
FFFFFFFF80
FFFFFFFF80
FFFFFFFF80
FFFFFFFF80
FFFFFFFF80
03FF000000
03FF000000
03FF000000
03FF000000
03FF000000
03FF000000
03FF000000
03FF000000
03FF000000
03FF000000
03FF000000
03FF000000
03FF000000
03FF000000
03FF000000
03FF000000
03FF000000
03FF000000
03FF000000
03FF000000
03FF000000
ENDCHAR
STARTCHAR 0067
ENCODING 103
SWIDTH 822 0
DWIDTH 64 0
BBX 61 57 3 -1
BITMAP
0000003E00000000
000007FFF8000000
00003FFFFF000000
0001FFFFFFC00000
0007FFFFFFF00000
000FFFFFFFF80000
003FFFFFFFFE0000
007FFFFFFFFF0000
00FFFFFFFFFF8000
01FFFFF3FFFFC000
03FFFC001FFF8000
07FFF00007FF0000
07FFC00001FE0000
0FFF800000FC0000
1FFE000000300000
1FFC000000200000
3FFC000000000000
3FF8000000000000
3FF0000000000000
7FF0000000000000
7FE0000000000000
7FE0000000000000
FFC0000000000000
FFC0000000000000
FFC0001FFFFFFFF8
FFC0001FFFFFFFF8
FFC0001FFFFFFFF8
FF80001FFFFFFFF8
FF80001FFFFFFFF8
FF80001FFFFFFFF8
FFC0001FFFFFFFF8
FFC0001FFFFFFFF8
FFC0001FFFFFFFF8
FFC000000003FF00
FFC000000003FF00
FFE000000003FF00
7FE000000007FF00
7FE000000007FF00
7FF000000007FE00
3FF00000000FFE00
3FF80000001FFE00
1FFC0000001FFC00
1FFE0000003FFC00
0FFF0000007FF800
0FFF800000FFF000
07FFE00003FFF000
03FFF8000FFFE000
01FFFF007FFFC000
00FFFFFFFFFF8000
007FFFFFFFFF0000
003FFFFFFFFE0000
001FFFFFFFFC0000
0007FFFFFFF80000
0003FFFFFFE00000
0000FFFFFF800000
00001FFFFE000000
000001FFF0000000
ENDCHAR
STARTCHAR 0068
ENCODING 104
SWIDTH 565 0
DWIDTH 44 0
BBX 39 54 2 0
BITMAP
07FE0007FE
07FE0007FE
07FE0007FE
07FE0007FE
07FE0007FE
07FE0007FE
07FE0007FE
07FE0007FE
07FE0007FE
07FE0007FE
07FE0007FE
07FE0007FE
07FE0007FE
07FE0007FE
07FE0007FE
07FE0007FE
07FE0007FE
07FE0007FE
07FE0007FE
07FE0007FE
07FE0007FE
07FE0007FE
07FE0007FE
FFFFFFFFFE
FFFFFFFFFE
FFFFFFFFFE
FFFFFFFFFE
FFFFFFFFFE
FFFFFFFFFE
FFFFFFFFFE
FFFFFFFFFE
FFFFFFFFFE
07FE0007FE
07FE0007FE
07FE0007FE
07FE0007FE
07FE0007FE
07FE0007FE
07FE0007FE
07FE0007FE
07FE0007FE
07FE0007FE
07FE0007FE
07FE0007FE
07FE0007FE
07FE0007FE
07FE0007FE
07FE0007FE
07FE0007FE
07FE0007FE
07FE0007FE
07FE0007FE
07FE0007FE
07FE0007FE
ENDCHAR
STARTCHAR 0069
ENCODING 105
SWIDTH 218 0
DWIDTH 17 0
BBX 22 62 -2 1
BITMAP
002000
003000
003000
007000
007800
00F800
00F800
1FFFC0
FFFFFC
3FFFF0
1FFFE0
0FFF80
07FF00
03FF00
07FF00
07FF00
07FF80
078F80
0F0380
0C0180
080040
000000
000000
000000
000000
000000
000000
000000
000000
03FF00
03FF00
03FF00
03FF00
03FF00
03FF00
03FF00
03FF00
03FF00
03FF00
03FF00
03FF00
03FF00
03FF00
03FF00
03FF00
03FF00
03FF00
03FF00
03FF00
03FF00
03FF00
03FF00
03FF00
03FF00
03FF00
03FF00
03FF00
03FF00
03FF00
03FF00
03FF00
03FF00
ENDCHAR
STARTCHAR 006A
ENCODING 106
SWIDTH 475 0
DWIDTH 37 0
BBX 32 55 1 -1
BITMAP
00007FFF
00007FFF
00007FFF
00007FFF
00007FFF
00007FFF
00007FFF
00007FFF
00007FFF
000003FF
000003FF
000003FF
000003FF
000003FF
000003FF
000003FF
000003FF
000003FF
000003FF
000003FF
000003FF
000003FF
000003FF
000003FF
000003FF
000003FF
000003FF
000003FF
000003FF
000003FF
000003FF
000003FF
000003FF
000003FF
000003FF
000003FF
000003FF
000003FF
000003FF
000003FF
000003FF
018003FF
078007FE
1FC00FFE
3FE00FFE
FFF03FFC
7FFFFFFC
7FFFFFFC
3FFFFFF8
1FFFFFF0
1FFFFFE0
0FFFFFC0
03FFFF80
00FFFE00
003FF800
ENDCHAR
STARTCHAR 006B
ENCODING 107
SWIDTH 552 0
DWIDTH 43 0
BBX 38 54 2 0
BITMAP
07FE007FE0
07FE007FE0
07FE007FE0
07FE007FE0
07FE007FE0
07FE007FE0
07FE007FE0
07FE007FE0
07FE007FE0
07FE007FE0
07FE007FE0
07FE007FE0
07FE007FE0
07FE007FE0
07FE007FE0
07FE007FE0
07FE007FE0
07FE00FFC0
07FE00FFC0
07FE01FFC0
07FE03FFC0
07FE0FFF80
FFFFFFFF80
FFFFFFFF00
FFFFFFFE00
FFFFFFFF80
FFFFFFFFC0
FFFFFFFFC0
FFFFFFFFE0
FFFFFFFFF0
07FE03FFF0
07FE007FF8
07FE003FF8
07FE001FF8
07FE001FFC
07FE000FFC
07FE000FFC
07FE000FFC
07FE000FFC
07FE000FFC
07FE0007FC
07FE0007FC
07FE0007FC
07FE0007FC
07FE0007FC
07FE0007FC
07FE0007FC
07FE0007FC
07FE0007FC
07FE0007FC
07FE0007FC
07FE0007FC
07FE0007FC
07FE0007FC
ENDCHAR
STARTCHAR 006C
ENCODING 108
SWIDTH 450 0
DWIDTH 35 0
BBX 30 54 4 0
BITMAP
FFC00000
FFC00000
FFC00000
FFC00000
FFC00000
FFC00000
FFC00000
FFC00000
FFC00000
FFC00000
FFC00000
FFC00000
FFC00000
FFC00000
FFC00000
FFC00000
FFC00000
FFC00000
FFC00000
FFC00000
FFC00000
FFC00000
FFC00000
FFC00000
FFC00000
FFC00000
FFC00000
FFC00000
FFC00000
FFC00000
FFC00000
FFC00000
FFC00000
FFC00000
FFC00000
FFC00000
FFC00000
FFC00000
FFC00000
FFC00000
FFC00000
FFC00000
FFC00000
FFC00000
FFC00000
FFFFFFFC
FFFFFFFC
FFFFFFFC
FFFFFFFC
FFFFFFFC
FFFFFFFC
FFFFFFFC
FFFFFFFC
FFFFFFFC
ENDCHAR
STARTCHAR 006D
ENCODING 109
SWIDTH 874 0
DWIDTH 68 0
BBX 63 56 1 0
BITMAP
0200000000000000
0700000380000000
0F800003C00003FE
1FE00003E00003FE
1FF00003F80003FE
3FF80003FC0003FE
7FFC0003FE0003FE
FFFF0003FF0003FE
7FFF8003FFC003FE
1FFFC003FFE003FE
0FFFF003FFF003FE
07FFF803FFFC03FE
07FFFC03FFFE03FE
07FFFE03FFFF03FE
07FFFF83FFFF83FE
07FFFFC3FFFFE3FE
07FFFFE3FFFFF3FE
07FFFFF3FFFFFBFE
07FFFFFFFEFFFFFE
07FE7FFFFE7FFFFE
07FE3FFFFE1FFFFE
07FE1FFFFE0FFFFE
07FE0FFFFE07FFFE
07FE03FFFE03FFFE
07FE01FFFE00FFFE
07FE00FFFE007FFE
07FE007FFE003FFE
07FE001FFE001FFE
07FE000FFE0007FE
07FE0007FE0003FE
07FE0003FE0003FE
07FE0003FE0003FE
07FE0003FE0003FE
07FE0003FE0003FE
07FE0003FE0003FE
07FE0003FE0003FE
07FE0003FE0003FE
07FE0003FE0003FE
07FE0003FE0003FE
07FE0003FE0003FE
07FE0003FE0003FE
07FE0003FE0003FE
07FE0003FE0003FE
07FE0003FE0003FE
07FE0003FE0003FE
07FE0003FE0003FE
07FE0003FE0003FE
07FE0003FE0003FE
07FE0003FE0003FE
07FE0003FE0003FE
07FE0003FE0003FE
07FE0003FE0003FE
07FE0003FE0003FE
07FE0003FE0003FE
07FE0003FE0003FE
07FE0003FE0003FE
ENDCHAR
STARTCHAR 006E
ENCODING 110
SWIDTH 552 0
DWIDTH 43 0
BBX 38 56 1 0
BITMAP
0200000000
0700000000
0F80000FFC
1FE0000FFC
1FF0000FFC
3FF8000FFC
7FFC000FFC
FFFF000FFC
7FFF800FFC
1FFFC00FFC
0FFFF00FFC
0FFFF80FFC
0FFFFC0FFC
0FFFFE0FFC
0FFFFF8FFC
0FFFFFCFFC
0FFFFFEFFC
0FFFFFFFFC
0FFFFFFFFC
0FFCFFFFFC
0FFC7FFFFC
0FFC3FFFFC
0FFC0FFFFC
0FFC07FFFC
0FFC03FFFC
0FFC01FFFC
0FFC007FFC
0FFC003FFC
0FFC001FFC
0FFC000FFC
0FFC000FFC
0FFC000FFC
0FFC000FFC
0FFC000FFC
0FFC000FFC
0FFC000FFC
0FFC000FFC
0FFC000FFC
0FFC000FFC
0FFC000FFC
0FFC000FFC
0FFC000FFC
0FFC000FFC
0FFC000FFC
0FFC000FFC
0FFC000FFC
0FFC000FFC
0FFC000FFC
0FFC000FFC
0FFC000FFC
0FFC000FFC
0FFC000FFC
0FFC000FFC
0FFC000FFC
0FFC000FFC
0FFC000FFC
ENDCHAR
STARTCHAR 006F
ENCODING 111
SWIDTH 810 0
DWIDTH 63 0
BBX 58 57 3 -1
BITMAP
0000003E00000000
000007FFF8000000
00003FFFFF000000
0001FFFFFFE00000
0007FFFFFFF00000
000FFFFFFFFC0000
003FFFFFFFFE0000
007FFFFFFFFF8000
00FFFFFFFFFFC000
01FFFFF3FFFFE000
03FFFC000FFFF000
07FFF00003FFF000
07FFC00000FFF800
0FFF8000007FFC00
1FFF0000003FFC00
1FFC0000001FFE00
3FFC0000000FFE00
3FF800000007FF00
3FF000000003FF00
7FF000000003FF80
7FE000000001FF80
7FE000000001FF80
FFC000000001FFC0
FFC000000000FFC0
FFC000000000FFC0
FFC000000000FFC0
FFC000000000FFC0
FF8000000000FFC0
FF8000000000FFC0
FF8000000000FFC0
FFC000000000FFC0
FFC000000000FFC0
FFC000000000FFC0
FFC000000000FFC0
FFC000000000FFC0
FFE000000001FF80
7FE000000001FF80
7FE000000001FF80
7FF000000003FF80
3FF800000007FF00
3FF800000007FF00
1FFC0000000FFE00
1FFE0000001FFE00
0FFF0000003FFC00
0FFF8000007FFC00
07FFE00001FFF800
03FFF80007FFF000
01FFFF003FFFE000
00FFFFFFFFFFC000
007FFFFFFFFF8000
003FFFFFFFFF0000
001FFFFFFFFE0000
0007FFFFFFF80000
0003FFFFFFF00000
0000FFFFFFC00000
00001FFFFE000000
000001FFF0000000
ENDCHAR
STARTCHAR 0070
ENCODING 112
SWIDTH 565 0
DWIDTH 44 0
BBX 41 54 2 0
BITMAP
0FFFFFF80000
0FFFFFFF0000
0FFFFFFFC000
0FFFFFFFE000
0FFFFFFFF000
0FFFFFFFF800
0FFFFFFFFC00
0FFFFFFFFE00
0FFFFFFFFF00
0FFC001FFF00
0FFC0007FF00
0FFC0003FF80
0FFC0001FF80
0FFC0001FF80
0FFC0000FF80
0FFC0000FF80
0FFC0000FF80
0FFC0000FF80
0FFC0000FF80
0FFC0001FF80
0FFC0001FF80
0FFC0003FF80
0FFC0007FF00
0FFC000FFF00
0FFC007FFE00
FFFFFFFFFE00
FFFFFFFFFC00
FFFFFFFFF800
FFFFFFFFF800
FFFFFFFFE000
FFFFFFFFC000
FFFFFFFF0000
FFFFFFFC0000
FFFFFFC00000
0FFC00000000
0FFC00000000
0FFC00000000
0FFC00000000
0FFC00000000
0FFC00000000
0FFC00000000
0FFC00000000
0FFC00000000
0FFC00000000
0FFC00000000
0FFC00000000
0FFC00000000
0FFC00000000
0FFC00000000
0FFC00000000
0FFC00000000
0FFC00000000
0FFC00000000
0FFC00000000
ENDCHAR
STARTCHAR 0071
ENCODING 113
SWIDTH 810 0
DWIDTH 63 0
BBX 58 58 3 -2
BITMAP
0000003E00000000
000007FFF8000000
00003FFFFF000000
0001FFFFFFE00000
0007FFFFFFF00000
000FFFFFFFFC0000
003FFFFFFFFE0000
007FFFFFFFFF8000
00FFFFFFFFFFC000
01FFFFF3FFFFE000
03FFFC000FFFF000
07FFF00003FFF000
07FFC00000FFF800
0FFF8000007FFC00
1FFF0000003FFC00
1FFC0000001FFE00
3FFC0000000FFE00
3FF800000007FF00
3FF000000003FF00
7FF000000003FF80
7FE000000001FF80
7FE000000001FF80
FFC000000001FFC0
FFC000000000FFC0
FFC000000000FFC0
FFC000000000FFC0
FFC000000000FFC0
FF8000000000FFC0
FF8000000000FFC0
FF8000000000FFC0
FFC000000000FFC0
FFC000000000FFC0
FFC000000000FFC0
FFC000000000FFC0
FFC000000000FFC0
FFE000000001FF80
7FE000000001FF80
7FE0000000C3FF80
7FF0000001E3FF80
3FF8000003F7FF00
3FF8000007FFFF00
1FFC00000FFFFE00
1FFE00001FFFFE00
0FFF00003FFFFC00
0FFF80001FFFFC00
07FFE0000FFFF800
03FFF80007FFF000
01FFFF003FFFF000
00FFFFFFFFFFF800
007FFFFFFFFFFC00
003FFFFFFFFFFE00
001FFFFFFFFFFE00
0007FFFFFFFFFC00
0003FFFFFFFFF800
0000FFFFFFC7F000
00001FFFFE03E000
000001FFF001C000
0000000000008000
ENDCHAR
STARTCHAR 0072
ENCODING 114
SWIDTH 604 0
DWIDTH 47 0
BBX 43 54 2 0
BITMAP
07FFFFFE0000
07FFFFFFC000
07FFFFFFE000
07FFFFFFF800
07FFFFFFFC00
07FFFFFFFE00
07FFFFFFFF00
07FFFFFFFF00
07FFFFFFFF80
07FE0007FF80
07FE0003FFC0
07FE0001FFC0
07FE0000FFC0
07FE00007FC0
07FE00007FE0
07FE00007FE0
07FE00007FE0
07FE00007FE0
07FE00007FC0
07FE0000FFC0
07FE0000FFC0
07FE0001FFC0
07FE0003FF80
07FE000FFF80
FFFFFFFFFF80
FFFFFFFFFF00
FFFFFFFFFE00
FFFFFFFFFC00
FFFFFFFFF800
FFFFFFFFF000
FFFFFFFFF000
FFFFFFFFF800
FFFFFFFFF800
07FE00FFFC00
07FE001FFC00
07FE000FFE00
07FE0007FE00
07FE0007FE00
07FE0003FF00
07FE0003FF00
07FE0003FF00
07FE0003FF00
07FE0001FF00
07FE0001FF00
07FE0001FF00
07FE0001FF00
07FE0001FF00
07FE0001FF00
07FE0001FF00
07FE0001FF00
07FE0001FF00
07FE0001FF00
07FE0001FF00
07FE0001FF00
ENDCHAR
STARTCHAR 0073
ENCODING 115
SWIDTH 501 0
DWIDTH 39 0
BBX 35 57 2 -1
BITMAP
0003F80000
001FFF8000
007FFFE000
01FFFFF000
03FFFFF800
07FFFFFC00
07FFFFFE00
0FFFFFFF00
0FFFFFFF00
1FFFFFFF80
1FFC03FF80
1FF801FFC0
1FF800FFC0
3FF000FFC0
3FF0007F00
3FF0007800
1FF8000000
1FF8000000
1FFC000000
1FFE000000
0FFF000000
0FFF800000
07FFE00000
03FFF80000
01FFFC0000
00FFFF0000
007FFFC000
003FFFE000
001FFFF000
0007FFFC00
0001FFFE00
0000FFFE00
00003FFF00
00001FFF80
000007FFC0
000003FFC0
000001FFC0
000000FFE0
0000007FE0
0000007FE0
00C0007FE0
0FC0007FE0
7FC0007FE0
FFE0007FE0
7FF0007FE0
7FF000FFE0
3FF801FFC0
3FFE07FFC0
1FFFFFFFC0
1FFFFFFF80
0FFFFFFF80
07FFFFFF00
03FFFFFE00
01FFFFFC00
00FFFFF000
003FFFE000
0007FF0000
ENDCHAR
STARTCHAR 0074
ENCODING 116
SWIDTH 514 0
DWIDTH 40 0
BBX 36 54 2 0
BITMAP
FFFFFFFFF0
FFFFFFFFF0
FFFFFFFFF0
FFFFFFFFF0
FFFFFFFFF0
FFFFFFFFF0
FFFFFFFFF0
FFFFFFFFF0
FFFFFFFFF0
0007FE0000
0007FE0000
0007FE0000
0007FE0000
0007FE0000
0007FE0000
0007FE0000
0007FE0000
0007FE0000
0007FE0000
0007FE0000
0007FE0000
0007FE0000
0007FE0000
0007FE0000
0007FE0000
0007FE0000
0007FE0000
0007FE0000
0007FE0000
0007FE0000
0007FE0000
0007FE0000
0007FE0000
0007FE0000
0007FE0000
0007FE0000
0007FE0000
0007FE0000
0007FE0000
0007FE0000
0007FE0000
0007FE0000
0007FE0000
0007FE0000
0007FE0000
0007FE0000
0007FE0000
0007FE0000
0007FE0000
0007FE0000
0007FE0000
0007FE0000
0007FE0000
0007FE0000
ENDCHAR
STARTCHAR 0075
ENCODING 117
SWIDTH 527 0
DWIDTH 41 0
BBX 35 55 3 -1
BITMAP
FFC0007FE0
FFC0007FE0
FFC0007FE0
FFC0007FE0
FFC0007FE0
FFC0007FE0
FFC0007FE0
FFC0007FE0
FFC0007FE0
FFC0007FE0
FFC0007FE0
FFC0007FE0
FFC0007FE0
FFC0007FE0
FFC0007FE0
FFC0007FE0
FFC0007FE0
FFC0007FE0
FFC0007FE0
FFC0007FE0
FFC0007FE0
FFC0007FE0
FFC0007FE0
FFC0007FE0
FFC0007FE0
FFC0007FE0
FFC0007FE0
FFC0007FE0
FFC0007FE0
FFC0007FE0
FFC0007FE0
FFC0007FE0
FFC0007FE0
FFC0007FE0
FFC0007FE0
FFC0007FE0
FFC0007FE0
7FC0007FE0
7FC0007FE0
7FC0007FC0
7FE000FFC0
7FE000FFC0
7FE000FFC0
3FF001FFC0
3FF803FF80
3FFE0FFF80
1FFFFFFF00
1FFFFFFF00
0FFFFFFE00
07FFFFFC00
03FFFFF800
01FFFFF000
00FFFFE000
003FFF8000
0007FE0000
ENDCHAR
STARTCHAR 0076
ENCODING 118
SWIDTH 488 0
DWIDTH 38 0
BBX 33 54 1 0
BITMAP
FFC001FF80
FFC001FF80
FFC001FF80
FFC001FF80
FFC001FF80
FFC001FF80
FFC001FF80
FFC001FF80
FFC001FF80
FFC001FF80
FFC001FF80
FFC001FF80
FFC001FF80
FFC001FF80
FFC001FF80
FFC001FF80
FFC001FF80
FFC001FF80
FFC001FF80
FFC001FF80
FFC001FF80
FFC001FF80
FFC001FF80
FFC001FF80
FFC001FF80
FFC001FF80
FFC001FF80
FFC001FF80
FFC001FF80
FFC001FF80
FFC001FF80
7FC001FF00
7FC003FF00
7FE003FF00
7FE003FF00
7FE003FF00
7FE003FF00
3FF007FE00
3FF007FE00
3FF007FE00
1FF80FFC00
1FF80FFC00
1FFC1FFC00
0FFC1FF800
0FFE3FF800
07FE3FF000
07FF7FF000
03FF7FE000
01FFFFC000
01FFFFC000
00FFFF8000
007FFF0000
003FFE0000
001FFC0000
ENDCHAR
STARTCHAR 0077
ENCODING 119
SWIDTH 784 0
DWIDTH 61 0
BBX 56 54 1 0
BITMAP
FFC001FF8001FF
FFC001FF8001FF
FFC001FF8001FF
FFC001FF8001FF
FFC001FF8001FF
FFC001FF8001FF
FFC001FF8001FF
FFC001FF8001FF
FFC001FF8001FF
FFC001FF8001FF
FFC001FF8001FF
FFC001FF8001FF
FFC001FF8001FF
FFC001FF8001FF
FFC001FF8001FF
FFC001FF8001FF
FFC001FF8001FF
FFC001FF8001FF
FFC001FF8001FF
FFC001FF8001FF
FFC001FF8001FF
FFC001FF8001FF
FFC001FF8001FF
FFC001FF8001FF
FFC001FF8001FF
FFC001FF8001FF
FFC001FF8001FF
FFC001FF8003FF
FFC001FF8003FF
FFC001FF8003FF
FFC001FFC003FF
7FC001FFC003FF
7FC003FFC003FF
7FE003FFC003FF
7FE003FFC007FE
7FE003FFE007FE
7FE003FFE007FE
3FF007FFE007FE
3FF007FFE00FFC
3FF007FFF00FFC
1FF80FFFF00FFC
1FF80FFFF01FF8
1FFC1FFFF81FF8
0FFC1FFFF83FF8
0FFE3FFFFC3FF0
07FE3FFFFE7FF0
07FF7FF7FE7FE0
03FF7FE7FFFFC0
01FFFFC3FFFFC0
01FFFFC1FFFF80
00FFFF80FFFF00
007FFF00FFFE00
003FFE007FFE00
001FFC003FFC00
ENDCHAR
STARTCHAR 0078
ENCODING 120
SWIDTH 527 0
DWIDTH 41 0
BBX 34 54 4 0
BITMAP
FFC000FFC0
FFC000FFC0
FFC000FFC0
FFC000FFC0
FFC000FFC0
FFC000FFC0
FFC000FFC0
FFC000FFC0
FFC000FFC0
FFC000FFC0
FFC000FFC0
FFC000FFC0
FFC000FFC0
FFC000FFC0
FFC001FF80
7FE001FF80
7FF003FF80
7FF807FF80
3FFE1FFF00
3FFFFFFF00
1FFFFFFE00
0FFFFFFC00
0FFFFFFC00
07FFFFF800
0FFFFFFC00
1FFFFFFE00
1FFFFFFE00
3FFFFFFF00
3FFC0FFF00
7FF003FF80
7FF003FF80
7FE001FF80
FFC001FFC0
FFC000FFC0
FFC000FFC0
FFC000FFC0
FFC000FFC0
FFC000FFC0
FFC000FFC0
FFC000FFC0
FFC000FFC0
FFC000FFC0
FFC000FFC0
FFC000FFC0
FFC000FFC0
FFC000FFC0
FFC000FFC0
FFC000FFC0
FFC000FFC0
FFC000FFC0
FFC000FFC0
FFC000FFC0
FFC000FFC0
FFC000FFC0
ENDCHAR
STARTCHAR 0079
ENCODING 121
SWIDTH 514 0
DWIDTH 40 0
BBX 34 54 3 0
BITMAP
FFC0007FC0
FFC0007FC0
FFC0007FC0
FFC0007FC0
FFC0007FC0
FFC0007FC0
FFC0007FC0
FFC0007FC0
FFC0007FC0
FFC0007FC0
FFC0007FC0
FFC0007FC0
FFC0007FC0
FFC0007FC0
FFC0007FC0
FFC0007FC0
FFC0007FC0
FFC0007FC0
FFC0007FC0
FFC0007FC0
FFC0007FC0
FFC0007FC0
FFC0007FC0
FFC0007FC0
FFC000FFC0
FFC000FFC0
FFC000FFC0
FFC000FFC0
7FE001FFC0
7FE001FF80
7FF003FF80
3FF807FF80
3FFFFFFF00
1FFFFFFF00
1FFFFFFE00
0FFFFFFC00
07FFFFF800
03FFFFF000
01FFFFE000
007FFFC000
001FFE0000
000FFC0000
000FFC0000
000FFC0000
000FFC0000
000FFC0000
000FFC0000
000FFC0000
000FFC0000
000FFC0000
000FFC0000
000FFC0000
000FFC0000
000FFC0000
ENDCHAR
STARTCHAR 007A
ENCODING 122
SWIDTH 514 0
DWIDTH 40 0
BBX 37 54 2 0
BITMAP
FFFFFFFFF8
FFFFFFFFF8
FFFFFFFFF8
FFFFFFFFF8
FFFFFFFFF8
FFFFFFFFF0
FFFFFFFFE0
FFFFFFFFE0
FFFFFFFFC0
000001FFC0
000001FF80
000003FF00
000007FF00
000007FE00
00000FFE00
00000FFC00
00001FFC00
00003FF800
00003FF000
00007FF000
00007FE000
0000FFE000
0001FFC000
0001FF8000
0003FF8000
0003FF0000
0007FF0000
000FFE0000
000FFE0000
001FFC0000
001FF80000
003FF80000
007FF00000
007FF00000
00FFE00000
00FFC00000
01FFC00000
01FF800000
03FF800000
07FF000000
07FE000000
0FFE000000
0FFC000000
1FFC000000
3FF8000000
3FFFFFFFE0
7FFFFFFFE0
7FFFFFFFE0
FFFFFFFFE0
FFFFFFFFE0
FFFFFFFFE0
FFFFFFFFE0
FFFFFFFFE0
FFFFFFFFE0
ENDCHAR
STARTCHAR 007B
ENCODING 123
SWIDTH 334 0
DWIDTH 26 0
BBX 19 76 4 -12
BITMAP
001FE0
007FE0
00FFE0
01FFE0
01FFE0
03FFE0
03FE00
03F800
03F800
03F800
03F800
03F800
03F800
03F800
03F800
03F800
03F800
03F800
03F800
03F800
03F800
03F800
03F800
03F800
03F800
03F800
03F800
03F800
03F800
07F000
07F000
07F000
0FF000
3FE000
FFE000
FFC000
FF8000
FF0000
FF8000
FFC000
FFE000
3FE000
0FE000
0FF000
07F000
07F000
03F000
03F800
03F800
03F800
03F800
03F800
03F800
03F800
03F800
03F800
03F800
03F800
03F800
03F800
03F800
03F800
03F800
03F800
03F800
03F800
03F800
03F800
03FC00
03FFE0
01FFE0
01FFE0
00FFE0
007FE0
003FE0
0003E0
ENDCHAR
STARTCHAR 007C
ENCODING 124
SWIDTH 167 0
DWIDTH 13 0
BBX 6 64 4 -9
BITMAP
FC
FC
FC
FC
FC
FC
FC
FC
FC
FC
FC
FC
FC
FC
FC
FC
FC
FC
FC
FC
FC
FC
FC
FC
FC
FC
FC
FC
FC
FC
FC
FC
FC
FC
FC
FC
FC
FC
FC
FC
FC
FC
FC
FC
FC
FC
FC
FC
FC
FC
FC
FC
FC
FC
FC
FC
FC
FC
FC
FC
FC
FC
FC
FC
ENDCHAR
STARTCHAR 007D
ENCODING 125
SWIDTH 334 0
DWIDTH 26 0
BBX 19 76 4 -12
BITMAP
FF0000
FFC000
FFE000
FFF000
FFF000
FFF800
0FF800
03F800
03F800
03F800
03F800
03F800
03F800
03F800
03F800
03F800
03F800
03F800
03F800
03F800
03F800
03F800
03F800
03F800
03F800
03F800
03F800
03F800
03F800
01FC00
01FC00
01FC00
01FE00
00FF80
00FFE0
007FE0
003FE0
001FE0
003FE0
007FE0
00FFE0
00FF80
01FE00
01FE00
01FC00
01FC00
03F800
03F800
03F800
03F800
03F800
03F800
03F800
03F800
03F800
03F800
03F800
03F800
03F800
03F800
03F800
03F800
03F800
03F800
03F800
03F800
03F800
03F800
07F800
FFF800
FFF000
FFF000
FFE000
FFC000
FF8000
F80000
ENDCHAR
STARTCHAR 007E
ENCODING 126
SWIDTH 552 0
DWIDTH 43 0
BBX 35 10 4 20
BITMAP
3FFC000000
FFFFE00020
FFFFFFCFE0
FFFFFFFFE0
FFFFFFFFE0
FFFFFFFFE0
FFFFFFFFE0
E00FFFFFE0
00007FFFC0
000003FE00
ENDCHAR
STARTCHAR 00A1
ENCODING 161
SWIDTH 270 0
DWIDTH 21 0
BBX 13 56 4 -9
BITMAP
0F80
3FE0
3FF0
7FF0
7FF8
FFF8
FFF8
FFF8
7FF0
7FF0
3FE0
1FC0
0000
0000
0000
0000
0000
0000
0000
0000
3FC0
3FC0
3FC0
3FC0
3FC0
3FC0
3FC0
3FC0
3FC0
3FC0
3FC0
3FC0
3FC0
3FC0
3FC0
3FC0
3FC0
3FC0
3FC0
3FC0
3FC0
3FC0
3FC0
3FC0
3FC0
3FC0
3FC0
3FC0
3FC0
3FC0
3FC0
3FC0
3FC0
3FC0
3FC0
3FC0
ENDCHAR
STARTCHAR 00A2
ENCODING 162
SWIDTH 514 0
DWIDTH 40 0
BBX 32 48 4 3
BITMAP
0003FC00
0003FC00
0003FC00
0003FC00
0003FC00
0003FE00
000FFFC0
003FFFF0
00FFFFFC
01FFFFFE
03FFFFFF
07FFFFFF
0FFFDFFE
1FFC01FC
1FF80078
3FE00030
3FC00000
7FC00000
7F800000
7F800000
7F000000
FF000000
FF000000
FF000000
FF000000
FF000000
FF000000
7F800000
7F800000
7F800000
7FC00000
3FE00010
3FF00038
1FF800FC
0FFE03FE
0FFFFFFF
07FFFFFF
03FFFFFF
01FFFFFC
007FFFF8
001FFFE0
0007FF80
0003FC00
0003FC00
0003FC00
0003FC00
0003FC00
0003FC00
ENDCHAR
STARTCHAR 00A3
ENCODING 163
SWIDTH 552 0
DWIDTH 43 0
BBX 35 55 4 0
BITMAP
00003FFF80
0001FFFFE0
0007FFFFE0
000FFFFFE0
003FFFFFE0
007FFFFFE0
00FFFFFFE0
00FFFFFFE0
01FFFFFFE0
03FFFC01E0
03FFE00020
03FFC00000
07FF800000
07FF000000
07FF000000
07FE000000
07FE000000
07FE000000
07FE000000
07FE000000
07FE000000
07FE000000
03FF000000
03FF000000
03FF000000
FFFFFFFE00
FFFFFFFE00
FFFFFFFE00
FFFFFFFE00
FFFFFFFE00
FFFFFFFE00
007FE00000
007FE00000
007FE00000
003FF00000
003FF00000
003FF00000
003FF00000
003FF00000
003FF00000
003FF00000
007FF00000
007FE00000
00FFE00000
03FFC00000
3FFFC00000
FFFF800000
FFFFFFFFE0
FFFFFFFFE0
FFFFFFFFE0
FFFFFFFFE0
FFFFFFFFE0
FFFFFFFFE0
FFFFFFFFE0
FFFFFFFFE0
ENDCHAR
STARTCHAR 00A4
ENCODING 164
SWIDTH 591 0
DWIDTH 46 0
BBX 37 38 5 6
BITMAP
0800000080
1C000000C0
3E000001E0
7F03FE03F0
FF9FFFC7F8
FFFFFFFFF8
7FFFFFFFF0
3FFFFFFFE0
1FFFFFFFC0
0FFE03FF80
0FF800FF00
0FE0007F80
1FC0003FC0
1FC0001FC0
1F80000FC0
3F80000FC0
3F00000FE0
3F000007E0
3F000007E0
3F000007E0
3F000007E0
3F00000FE0
3F80000FE0
3F80000FC0
1FC0001FC0
1FC0001FC0
0FE0003F80
0FF000FF80
07FC01FF80
0FFFFFFFC0
1FFFFFFFE0
3FFFFFFFF0
7FFFFFFFF8
FF9FFFCFF8
7F07FF07F0
3E000003E0
1C000001C0
0800000080
ENDCHAR
STARTCHAR 00A5
ENCODING 165
SWIDTH 655 0
DWIDTH 51 0
BBX 42 55 5 0
BITMAP
000000001BC0
FFE00001FFC0
FFE00001FF80
7FF00003FF80
7FF00003FF00
3FF80007FF00
3FF80007FE00
1FFC000FFE00
1FFC000FFC00
0FFE001FFC00
0FFE001FF800
07FF003FF800
07FF003FF000
03FF807FF000
03FF807FE000
01FFC07FE000
01FFC0FFC000
00FFE0FFC000
00FFE1FF8000
007FF1FF8000
007FF3FF0000
003FFBFF0000
003FFFFE0000
001FFFFE0000
001FFFFC0000
000FFFFC0000
000FFFF80000
0007FFF80000
07FFFFFFF000
07FFFFFFF000
07FFFFFFF000
07FFFFFFF000
07FFFFFFF000
07FFFFFFF000
07FFFFFFF000
0000FFC00000
0000FFC00000
0000FFC00000
0000FFC00000
07FFFFFFF000
07FFFFFFF000
07FFFFFFF000
07FFFFFFF000
07FFFFFFF000
07FFFFFFF000
0000FFC00000
0000FFC00000
0000FFC00000
0000FFC00000
0000FFC00000
0000FFC00000
0000FFC00000
0000FFC00000
0000FFC00000
0000FFC00000
ENDCHAR
STARTCHAR 00A6
ENCODING 166
SWIDTH 167 0
DWIDTH 13 0
BBX 6 64 4 -9
BITMAP
FC
FC
FC
FC
FC
FC
FC
FC
FC
FC
FC
FC
FC
FC
FC
FC
FC
FC
FC
FC
FC
FC
FC
FC
00
00
00
00
00
00
00
00
00
00
00
00
00
00
00
FC
FC
FC
FC
FC
FC
FC
FC
FC
FC
FC
FC
FC
FC
FC
FC
FC
FC
FC
FC
FC
FC
FC
FC
FC
ENDCHAR
STARTCHAR 00A7
ENCODING 167
SWIDTH 488 0
DWIDTH 38 0
BBX 29 64 5 -9
BITMAP
007FF000
01FFFC00
07FFFF00
0FFFFF80
1FFFFF80
1FFFFFC0
3FFFFFE0
3FFFFFE0
3FF87FF0
7FE03FF0
7FE01FF0
7FC01FF0
7FC00F00
3FE00800
3FF00000
3FF80000
1FFC0000
0FFF0000
0FFF8000
07FFE000
01FFF800
00FFFC00
03FFFF00
0FFFFF80
1FFFFFC0
3FFFFFE0
7FFFFFE0
7FE07FF0
FF801FF0
FF800FF0
FF000FF8
FF000FF8
FF000FF8
FF800FF0
FF800FF0
7FC01FF0
7FF8FFE0
3FFFFFE0
3FFFFFC0
1FFFFF80
07FFFE00
03FFF800
01FFF800
007FFC00
001FFE00
000FFF00
0003FF80
0001FFC0
00007FC0
00007FE0
03003FE0
1F803FE0
FF803FE0
FFC03FE0
FFE07FE0
7FFFFFE0
7FFFFFE0
3FFFFFC0
1FFFFFC0
1FFFFF80
0FFFFF00
03FFFE00
01FFF800
003FE000
ENDCHAR
STARTCHAR 00A8
ENCODING 168
SWIDTH 385 0
DWIDTH 30 0
BBX 31 12 0 58
BITMAP
1FC003F0
3FE00FFC
7FF00FFC
7FF81FFE
7FF81FFE
FFF81FFE
FFF81FFE
7FF81FFE
7FF01FFE
3FF00FFC
1FE007F8
0F8001E0
ENDCHAR
STARTCHAR 00A9
ENCODING 169
SWIDTH 848 0
DWIDTH 66 0
BBX 58 57 4 -1
BITMAP
0000007F80000000
00000FFFFC000000
00003FFFFF800000
0001FFFFFFE00000
0003FFFFFFF80000
000FFE001FFC0000
001FF00003FF0000
003FC000007F8000
007F0000003FC000
00FE0000000FE000
01F800000007F000
03F000000003F000
07E000000001F800
07C000000000FC00
0FC000FFC0007C00
1F8003FFF8007E00
1F000FFFFC003F00
3F001FFFFE003F00
3E003FFFFF001F00
3E007FFFFE001F80
7E007FC0FC000F80
7C00FF0038000F80
7C00FE0010000F80
7C01FC00000007C0
7C01FC00000007C0
FC01F800000007C0
F803F800000007C0
F803F800000007C0
F803F800000007C0
F803F800000007C0
F803F800000007C0
F803F800000007C0
FC01F800000007C0
7C01FC00000007C0
7C01FE0000000FC0
7C00FF0018000F80
7C00FF807C000F80
3E007FF3FE000F80
3E003FFFFF001F80
3F001FFFFF001F00
1F000FFFFE003F00
1F8007FFF8003E00
0F8001FFF0007E00
0FC0003F8000FC00
07E000000001FC00
07F000000001F800
03F800000003F000
01FC0000000FE000
00FE0000001FE000
007F8000007FC000
003FE00001FF0000
001FFC0007FE0000
0007FFF1FFFC0000
0003FFFFFFF00000
0000FFFFFFC00000
00001FFFFF000000
000003FFF8000000
ENDCHAR
STARTCHAR 00AB
ENCODING 171
SWIDTH 591 0
DWIDTH 46 0
BBX 37 34 5 7
BITMAP
000FF80FF8
001FF00FF8
001FF01FF0
003FE03FE0
007FC07FC0
00FF807FC0
00FF00FF80
01FF01FF00
03FE03FE00
07FC03FE00
07F807FC00
0FF80FF800
1FF01FF000
3FE01FE000
3FC03FE000
7FC07FC000
FF80FF8000
FF80FF8000
FF807FC000
7FC07FE000
3FE03FE000
1FF01FF000
1FF00FF800
0FF807FC00
07FC07FC00
03FE03FE00
01FF01FF00
01FF00FF80
00FF80FF80
007FC07FC0
003FE03FE0
003FE01FF0
001FF00FF0
000FF80FF8
ENDCHAR
STARTCHAR 00AC
ENCODING 172
SWIDTH 565 0
DWIDTH 44 0
BBX 36 21 4 8
BITMAP
FFFFFFFFF0
FFFFFFFFF0
FFFFFFFFF0
FFFFFFFFF0
FFFFFFFFF0
FFFFFFFFF0
FFFFFFFFF0
00000007F0
00000007F0
00000007F0
00000007F0
00000007F0
00000007F0
00000007F0
00000007F0
00000007F0
00000007F0
00000007F0
00000007F0
00000007F0
00000007F0
ENDCHAR
STARTCHAR 00AE
ENCODING 174
SWIDTH 501 0
DWIDTH 39 0
BBX 32 31 4 25
BITMAP
001FF800
007FFE00
01FFFF80
03F00FC0
07C003E0
0F0000F0
1E000078
3C1FE03C
3C1FF83C
781FFC1E
781E7C1E
701E1C0E
F01E1C0E
F01E3C0F
F07FFC0F
F07FF80F
F07FF80F
F01E380E
701E3C0E
701E3C1E
781E3C1E
381E3C3C
3C00003C
1E000078
1F0000F8
0F8001F0
07E007E0
03FFFFC0
00FFFF00
003FFC00
00038000
ENDCHAR
STARTCHAR 00AF
ENCODING 175
SWIDTH 282 0
DWIDTH 22 0
BBX 22 7 0 61
BITMAP
FFFFFC
FFFFFC
FFFFFC
FFFFFC
FFFFFC
FFFFFC
FFFFFC
ENDCHAR
STARTCHAR 00B0
ENCODING 176
SWIDTH 347 0
DWIDTH 27 0
BBX 19 18 4 37
BITMAP
07FC00
0FFE00
1FFF00
3FFF80
7C07C0
7803C0
7803E0
F801E0
F001E0
F001E0
F803E0
7803C0
7C07C0
3F1FC0
3FFF80
1FFF00
07FE00
01F000
ENDCHAR
STARTCHAR 00B1
ENCODING 177
SWIDTH 565 0
DWIDTH 44 0
BBX 36 34 4 7
BITMAP
0003FC0000
0003FC0000
0003FC0000
0003FC0000
0003FC0000
0003FC0000
0003FC0000
0003FC0000
FFFFFFFFF0
FFFFFFFFF0
FFFFFFFFF0
FFFFFFFFF0
FFFFFFFFF0
FFFFFFFFF0
FFFFFFFFF0
0003FC0000
0003FC0000
0003FC0000
0003FC0000
0003FC0000
0003FC0000
0003FC0000
0003FC0000
0000000000
0000000000
0000000000
0000000000
FFFFFFFFF0
FFFFFFFFF0
FFFFFFFFF0
FFFFFFFFF0
FFFFFFFFF0
FFFFFFFFF0
FFFFFFFFF0
ENDCHAR
STARTCHAR 00B4
ENCODING 180
SWIDTH 154 0
DWIDTH 12 0
BBX 12 10 0 59
BITMAP
07F0
0FE0
0FE0
1FC0
1F80
3F80
3F00
7E00
7C00
FC00
ENDCHAR
STARTCHAR 00B6
ENCODING 182
SWIDTH 501 0
DWIDTH 39 0
BBX 32 64 4 -9
BITMAP
000FF83F
007FF83F
01FFF83F
03FFF83F
07FFF83F
0FFFF83F
1FFFF83F
3FFFF83F
3FFFF83F
7FFFF83F
7FFFF83F
7FFFF83F
7FFFF83F
FFFFF83F
FFFFF83F
FFFFF83F
FFFFF83F
FFFFF83F
7FFFF83F
7FFFF83F
7FFFF83F
7FFFF83F
3FFFF83F
3FFFF83F
1FFFF83F
0FFFF83F
07FFF83F
03FFF83F
01FFF83F
007FF83F
001FF83F
0000F83F
0000F83F
0000F83F
0000F83F
0000F83F
0000F83F
0000F83F
0000F83F
0000F83F
0000F83F
0000F83F
0000F83F
0000F83F
0000F83F
0000F83F
0000F83F
0000F83F
0000F83F
0000F83F
0000F83F
0000F83F
0000F83F
0000F83F
0000F83F
0000F83F
0000F83F
0000F83F
0000F83F
0000F83F
0000F83F
0000F83F
0000F83F
0000F83F
ENDCHAR
STARTCHAR 00B7
ENCODING 183
SWIDTH 270 0
DWIDTH 21 0
BBX 13 13 4 14
BITMAP
0F80
1FE0
3FF0
7FF0
7FF8
FFF8
FFF8
FFF8
7FF0
7FF0
3FE0
1FC0
0200
ENDCHAR
STARTCHAR 00B8
ENCODING 184
SWIDTH 218 0
DWIDTH 17 0
BBX 18 17 0 -17
BITMAP
007C00
00F800
00F800
00FC00
00FE00
00FF00
001F80
000F80
000780
1807C0
380FC0
7E1F80
FFFF80
7FFF80
3FFF00
0FFE00
03F800
ENDCHAR
STARTCHAR 00BB
ENCODING 187
SWIDTH 591 0
DWIDTH 46 0
BBX 38 34 5 7
BITMAP
FF80FF8000
FFC07FC000
7FC07FE000
3FE03FE000
1FF01FF000
1FF80FF800
0FF80FFC00
07FC07FC00
03FE03FE00
03FE01FF00
01FF01FF80
00FF80FF80
007FC07FC0
007FC03FE0
003FE01FF0
001FF01FF0
000FF80FF8
000FF807FC
000FF00FF8
001FF01FF0
003FE03FE0
007FC03FC0
00FF807FC0
00FF80FF80
01FF01FF00
03FE01FE00
07FC03FE00
07F807FC00
0FF80FF800
1FF01FF000
3FE01FE000
3FC03FE000
7FC07FC000
FF80FF8000
ENDCHAR
STARTCHAR 00BF
ENCODING 191
SWIDTH 437 0
DWIDTH 34 0
BBX 26 57 4 -9
BITMAP
00038000
001FE000
003FF000
007FF800
007FF800
007FF800
007FF800
007FF800
007FF800
007FF800
003FF000
001FE000
00030000
00000000
00000000
00000000
00000000
00000000
00000000
001FE000
001FE000
001FE000
001FE000
003FE000
003FE000
003FE000
003FC000
007FC000
007FC000
00FF8000
00FF8000
01FF0000
03FF0000
03FE0000
07FE0000
0FFC0000
0FF80000
1FF00000
3FF00000
3FE00000
7FC00000
7FC00000
7F800000
FF800000
FF801C00
FF803F00
FFC03FC0
FFC07FC0
7FF1FFC0
7FFFFF80
7FFFFF80
3FFFFF00
1FFFFE00
0FFFFC00
07FFF800
01FFE000
003F0000
ENDCHAR
STARTCHAR 00C0
ENCODING 192
SWIDTH 565 0
DWIDTH 44 0
BBX 39 69 4 0
BITMAP
007F000000
007F800000
003F800000
001FC00000
000FC00000
000FE00000
0007E00000
0003F00000
0003F00000
0001F80000
0000000000
0000000000
0000000000
0000C00000
001FFE0000
00FFFF8000
01FFFFE000
03FFFFF000
07FFFFF800
0FFFFFFC00
1FFFFFFE00
3FFFFFFE00
3FFF3FFF00
7FF807FF00
7FF003FF80
7FE001FF80
FFE001FF80
FFC000FFC0
FFC000FFC0
FFC000FFC0
FFC000FFC0
FFC000FFC0
FFC000FFC0
FFC000FFC0
FFC000FFC0
FFC000FFC0
FFC000FFC0
FFC000FFC0
FFC000FFC0
FFC000FFC0
FFC000FFC0
FFC000FFC0
FFC000FFC0
FFC000FFC0
FFC000FFC0
FFC000FFC0
FFC000FFC0
FFC000FFC0
FFC000FFC0
FFC000FFC0
FFC000FFC0
FFC000FFC0
FFC000FFC0
FFC000FFC0
FFC000FFC0
FFC000FFC0
FFC000FFC0
FFC000FFC0
FFC000FFC0
FFC000FFC0
FFFFFFFFFE
FFFFFFFFFE
FFFFFFFFFE
FFFFFFFFFE
FFFFFFFFFE
FFFFFFFFFE
FFFFFFFFFE
FFFFFFFFFE
FFFFFFFFFE
ENDCHAR
STARTCHAR 00C1
ENCODING 193
SWIDTH 565 0
DWIDTH 44 0
BBX 39 69 4 0
BITMAP
00003F8000
00003F8000
00007F0000
00007E0000
0000FC0000
0000FC0000
0001F80000
0003F00000
0003F00000
0007E00000
0000000000
0000000000
0000000000
0000C00000
001FFE0000
00FFFF8000
01FFFFE000
03FFFFF000
07FFFFF800
0FFFFFFC00
1FFFFFFE00
3FFFFFFE00
3FFF3FFF00
7FF807FF00
7FF003FF80
7FE001FF80
FFE001FF80
FFC000FFC0
FFC000FFC0
FFC000FFC0
FFC000FFC0
FFC000FFC0
FFC000FFC0
FFC000FFC0
FFC000FFC0
FFC000FFC0
FFC000FFC0
FFC000FFC0
FFC000FFC0
FFC000FFC0
FFC000FFC0
FFC000FFC0
FFC000FFC0
FFC000FFC0
FFC000FFC0
FFC000FFC0
FFC000FFC0
FFC000FFC0
FFC000FFC0
FFC000FFC0
FFC000FFC0
FFC000FFC0
FFC000FFC0
FFC000FFC0
FFC000FFC0
FFC000FFC0
FFC000FFC0
FFC000FFC0
FFC000FFC0
FFC000FFC0
FFFFFFFFFE
FFFFFFFFFE
FFFFFFFFFE
FFFFFFFFFE
FFFFFFFFFE
FFFFFFFFFE
FFFFFFFFFE
FFFFFFFFFE
FFFFFFFFFE
ENDCHAR
STARTCHAR 00C2
ENCODING 194
SWIDTH 565 0
DWIDTH 44 0
BBX 39 69 4 0
BITMAP
001FFE0000
001FFE0000
003FFF0000
007FFF8000
00FF7FC000
00FF3FC000
01FE1FE000
03FC0FF000
07F807F000
07F807F800
0000000000
0000000000
0000000000
0000C00000
001FFE0000
00FFFF8000
01FFFFE000
03FFFFF000
07FFFFF800
0FFFFFFC00
1FFFFFFE00
3FFFFFFE00
3FFF3FFF00
7FF807FF00
7FF003FF80
7FE001FF80
FFE001FF80
FFC000FFC0
FFC000FFC0
FFC000FFC0
FFC000FFC0
FFC000FFC0
FFC000FFC0
FFC000FFC0
FFC000FFC0
FFC000FFC0
FFC000FFC0
FFC000FFC0
FFC000FFC0
FFC000FFC0
FFC000FFC0
FFC000FFC0
FFC000FFC0
FFC000FFC0
FFC000FFC0
FFC000FFC0
FFC000FFC0
FFC000FFC0
FFC000FFC0
FFC000FFC0
FFC000FFC0
FFC000FFC0
FFC000FFC0
FFC000FFC0
FFC000FFC0
FFC000FFC0
FFC000FFC0
FFC000FFC0
FFC000FFC0
FFC000FFC0
FFFFFFFFFE
FFFFFFFFFE
FFFFFFFFFE
FFFFFFFFFE
FFFFFFFFFE
FFFFFFFFFE
FFFFFFFFFE
FFFFFFFFFE
FFFFFFFFFE
ENDCHAR
STARTCHAR 00C3
ENCODING 195
SWIDTH 565 0
DWIDTH 44 0
BBX 39 69 4 0
BITMAP
01FF000000
01FFFF8000
01FFFF8000
01FFFF8000
01FFFF8000
01FFFF8000
0000FF8000
0000000000
0000000000
0000000000
0000000000
0000000000
0000000000
0000C00000
001FFE0000
00FFFF8000
01FFFFE000
03FFFFF000
07FFFFF800
0FFFFFFC00
1FFFFFFE00
3FFFFFFE00
3FFF3FFF00
7FF807FF00
7FF003FF80
7FE001FF80
FFE001FF80
FFC000FFC0
FFC000FFC0
FFC000FFC0
FFC000FFC0
FFC000FFC0
FFC000FFC0
FFC000FFC0
FFC000FFC0
FFC000FFC0
FFC000FFC0
FFC000FFC0
FFC000FFC0
FFC000FFC0
FFC000FFC0
FFC000FFC0
FFC000FFC0
FFC000FFC0
FFC000FFC0
FFC000FFC0
FFC000FFC0
FFC000FFC0
FFC000FFC0
FFC000FFC0
FFC000FFC0
FFC000FFC0
FFC000FFC0
FFC000FFC0
FFC000FFC0
FFC000FFC0
FFC000FFC0
FFC000FFC0
FFC000FFC0
FFC000FFC0
FFFFFFFFFE
FFFFFFFFFE
FFFFFFFFFE
FFFFFFFFFE
FFFFFFFFFE
FFFFFFFFFE
FFFFFFFFFE
FFFFFFFFFE
FFFFFFFFFE
ENDCHAR
STARTCHAR 00C4
ENCODING 196
SWIDTH 565 0
DWIDTH 44 0
BBX 39 70 4 0
BITMAP
07F001FC00
0FF803FE00
1FFC07FF00
3FFC07FF00
3FFC0FFF80
3FFE0FFF80
3FFE0FFF80
3FFC0FFF80
1FFC07FF00
1FF803FF00
0FF003FE00
03E000F800
0000000000
0000000000
0000C00000
001FFE0000
00FFFF8000
01FFFFE000
03FFFFF000
07FFFFF800
0FFFFFFC00
1FFFFFFE00
3FFFFFFE00
3FFF3FFF00
7FF807FF00
7FF003FF80
7FE001FF80
FFE001FF80
FFC000FFC0
FFC000FFC0
FFC000FFC0
FFC000FFC0
FFC000FFC0
FFC000FFC0
FFC000FFC0
FFC000FFC0
FFC000FFC0
FFC000FFC0
FFC000FFC0
FFC000FFC0
FFC000FFC0
FFC000FFC0
FFC000FFC0
FFC000FFC0
FFC000FFC0
FFC000FFC0
FFC000FFC0
FFC000FFC0
FFC000FFC0
FFC000FFC0
FFC000FFC0
FFC000FFC0
FFC000FFC0
FFC000FFC0
FFC000FFC0
FFC000FFC0
FFC000FFC0
FFC000FFC0
FFC000FFC0
FFC000FFC0
FFC000FFC0
FFFFFFFFFE
FFFFFFFFFE
FFFFFFFFFE
FFFFFFFFFE
FFFFFFFFFE
FFFFFFFFFE
FFFFFFFFFE
FFFFFFFFFE
FFFFFFFFFE
ENDCHAR
STARTCHAR 00C5
ENCODING 197
SWIDTH 565 0
DWIDTH 44 0
BBX 39 75 4 0
BITMAP
0001E00000
0007F80000
001FFE0000
003FFE0000
003FFF0000
007E1F0000
007C0F8000
00780F8000
00780F8000
007C0F8000
007C0F8000
003F3F0000
003FFF0000
001FFE0000
000FFC0000
0003F00000
0000000000
0000000000
0000000000
0000C00000
001FFE0000
00FFFF8000
01FFFFE000
03FFFFF000
07FFFFF800
0FFFFFFC00
1FFFFFFE00
3FFFFFFE00
3FFF3FFF00
7FF807FF00
7FF003FF80
7FE001FF80
FFE001FF80
FFC000FFC0
FFC000FFC0
FFC000FFC0
FFC000FFC0
FFC000FFC0
FFC000FFC0
FFC000FFC0
FFC000FFC0
FFC000FFC0
FFC000FFC0
FFC000FFC0
FFC000FFC0
FFC000FFC0
FFC000FFC0
FFC000FFC0
FFC000FFC0
FFC000FFC0
FFC000FFC0
FFC000FFC0
FFC000FFC0
FFC000FFC0
FFC000FFC0
FFC000FFC0
FFC000FFC0
FFC000FFC0
FFC000FFC0
FFC000FFC0
FFC000FFC0
FFC000FFC0
FFC000FFC0
FFC000FFC0
FFC000FFC0
FFC000FFC0
FFFFFFFFFE
FFFFFFFFFE
FFFFFFFFFE
FFFFFFFFFE
FFFFFFFFFE
FFFFFFFFFE
FFFFFFFFFE
FFFFFFFFFE
FFFFFFFFFE
ENDCHAR
STARTCHAR 00C7
ENCODING 199
SWIDTH 681 0
DWIDTH 53 0
BBX 49 73 3 -17
BITMAP
0000003E000000
00000FFFF80000
00007FFFFF0000
0001FFFFFFC000
0007FFFFFFF000
000FFFFFFFF800
003FFFFFFFFC00
007FFFFFFFFE00
00FFFFFFFFFF00
01FFFFF3FFFF80
03FFFC001FFF00
07FFF00007FE00
07FFC00001FC00
0FFF800000F800
1FFE0000007000
1FFC0000002000
3FFC0000000000
3FF80000000000
3FF00000000000
7FF00000000000
7FE00000000000
7FE00000000000
FFC00000000000
FFC00000000000
FFC00000000000
FFC00000000000
FFC00000000000
FF800000000000
FF800000000000
FF800000000000
FFC00000000000
FFC00000000000
FFC00000000000
FFC00000000000
FFC00000000000
FFE00000000000
7FE00000000000
7FE00000000000
7FF00000000000
3FF00000000000
3FF80000000000
1FFC0000000000
1FFE0000003000
0FFF0000007800
0FFF800001FC00
07FFE00003FE00
03FFF8000FFF00
01FFFF007FFF80
00FFFFFFFFFF80
007FFFFFFFFF00
003FFFFFFFFE00
001FFFFFFFFC00
000FFFFFFFF000
0003FFFFFFE000
0000FFFFFF8000
00003FFFFE0000
000003FFE00000
000000F8000000
000000F8000000
000000FC000000
000000FE000000
000000FF000000
0000001F800000
0000000F800000
00000007800000
00001807C00000
0000380FC00000
00007E1F800000
0000FFFF800000
00007FFF800000
00003FFF000000
00000FFE000000
000003F8000000
ENDCHAR
STARTCHAR 00C8
ENCODING 200
SWIDTH 501 0
DWIDTH 39 0
BBX 37 69 2 0
BITMAP
00FE000000
007F000000
003F800000
003F800000
001FC00000
000FC00000
000FE00000
0007E00000
0003F00000
0001F00000
0000000000
0000000000
0000000000
0000000000
0000000000
07FFFFF000
07FFFFF000
07FFFFF000
07FFFFF000
07FFFFF000
07FFFFF000
07FFFFF000
07FFFFF000
07FFFFF000
07FE000000
07FE000000
07FE000000
07FE000000
07FE000000
07FE000000
07FE000000
07FE000000
07FE000000
07FE000000
07FE000000
07FE000000
07FE000000
FFFFFFFE00
FFFFFFFE00
FFFFFFFE00
FFFFFFFE00
FFFFFFFE00
FFFFFFFE00
FFFFFFFE00
FFFFFFFE00
FFFFFFFE00
07FE000000
07FE000000
07FE000000
07FE000000
07FE000000
07FE000000
07FE000000
07FE000000
07FE000000
07FE000000
07FE000000
07FE000000
07FE000000
07FE000000
07FFFFFFF8
07FFFFFFF8
07FFFFFFF8
07FFFFFFF8
07FFFFFFF8
07FFFFFFF8
07FFFFFFF8
07FFFFFFF8
07FFFFFFF8
ENDCHAR
STARTCHAR 00C9
ENCODING 201
SWIDTH 501 0
DWIDTH 39 0
BBX 37 69 2 0
BITMAP
00007F8000
00007F0000
0000FE0000
0000FE0000
0001FC0000
0001F80000
0003F00000
0003F00000
0007E00000
0007C00000
0000000000
0000000000
0000000000
0000000000
0000000000
07FFFFF000
07FFFFF000
07FFFFF000
07FFFFF000
07FFFFF000
07FFFFF000
07FFFFF000
07FFFFF000
07FFFFF000
07FE000000
07FE000000
07FE000000
07FE000000
07FE000000
07FE000000
07FE000000
07FE000000
07FE000000
07FE000000
07FE000000
07FE000000
07FE000000
FFFFFFFE00
FFFFFFFE00
FFFFFFFE00
FFFFFFFE00
FFFFFFFE00
FFFFFFFE00
FFFFFFFE00
FFFFFFFE00
FFFFFFFE00
07FE000000
07FE000000
07FE000000
07FE000000
07FE000000
07FE000000
07FE000000
07FE000000
07FE000000
07FE000000
07FE000000
07FE000000
07FE000000
07FE000000
07FFFFFFF8
07FFFFFFF8
07FFFFFFF8
07FFFFFFF8
07FFFFFFF8
07FFFFFFF8
07FFFFFFF8
07FFFFFFF8
07FFFFFFF8
ENDCHAR
STARTCHAR 00CA
ENCODING 202
SWIDTH 501 0
DWIDTH 39 0
BBX 37 69 2 0
BITMAP
001FFC0000
003FFE0000
007FFF0000
007FFF0000
00FF7F8000
01FE3FC000
03FC3FC000
03F81FE000
07F80FF000
0FF007F800
0000000000
0000000000
0000000000
0000000000
0000000000
07FFFFF000
07FFFFF000
07FFFFF000
07FFFFF000
07FFFFF000
07FFFFF000
07FFFFF000
07FFFFF000
07FFFFF000
07FE000000
07FE000000
07FE000000
07FE000000
07FE000000
07FE000000
07FE000000
07FE000000
07FE000000
07FE000000
07FE000000
07FE000000
07FE000000
FFFFFFFE00
FFFFFFFE00
FFFFFFFE00
FFFFFFFE00
FFFFFFFE00
FFFFFFFE00
FFFFFFFE00
FFFFFFFE00
FFFFFFFE00
07FE000000
07FE000000
07FE000000
07FE000000
07FE000000
07FE000000
07FE000000
07FE000000
07FE000000
07FE000000
07FE000000
07FE000000
07FE000000
07FE000000
07FFFFFFF8
07FFFFFFF8
07FFFFFFF8
07FFFFFFF8
07FFFFFFF8
07FFFFFFF8
07FFFFFFF8
07FFFFFFF8
07FFFFFFF8
ENDCHAR
STARTCHAR 00CB
ENCODING 203
SWIDTH 501 0
DWIDTH 39 0
BBX 37 70 2 0
BITMAP
0FE001F800
1FF007FE00
3FF807FE00
3FFC0FFF00
3FFC0FFF00
7FFC0FFF00
7FFC0FFF00
3FFC0FFF00
3FF80FFF00
1FF807FE00
0FF003FC00
07C000F000
0000000000
0000000000
0000000000
0000000000
07FFFFF000
07FFFFF000
07FFFFF000
07FFFFF000
07FFFFF000
07FFFFF000
07FFFFF000
07FFFFF000
07FFFFF000
07FE000000
07FE000000
07FE000000
07FE000000
07FE000000
07FE000000
07FE000000
07FE000000
07FE000000
07FE000000
07FE000000
07FE000000
07FE000000
FFFFFFFE00
FFFFFFFE00
FFFFFFFE00
FFFFFFFE00
FFFFFFFE00
FFFFFFFE00
FFFFFFFE00
FFFFFFFE00
FFFFFFFE00
07FE000000
07FE000000
07FE000000
07FE000000
07FE000000
07FE000000
07FE000000
07FE000000
07FE000000
07FE000000
07FE000000
07FE000000
07FE000000
07FE000000
07FFFFFFF8
07FFFFFFF8
07FFFFFFF8
07FFFFFFF8
07FFFFFFF8
07FFFFFFF8
07FFFFFFF8
07FFFFFFF8
07FFFFFFF8
ENDCHAR
STARTCHAR 00CC
ENCODING 204
SWIDTH 231 0
DWIDTH 18 0
BBX 13 48 1 0
BITMAP
FE00
7F00
7F00
3F80
1F80
1FC0
0FC0
07E0
03E0
03F0
0000
0000
0000
0000
0000
1FF8
1FF8
1FF8
1FF8
1FF8
1FF8
1FF8
1FF8
1FF8
1FF8
1FF8
1FF8
1FF8
1FF8
1FF8
1FF8
1FF8
1FF8
1FF8
1FF8
1FF8
1FF8
1FF8
1FF8
1FF8
1FF8
1FF8
1FF8
1FF8
1FF8
1FF8
1FF8
1FF8
ENDCHAR
STARTCHAR 00CD
ENCODING 205
SWIDTH 231 0
DWIDTH 18 0
BBX 14 48 4 0
BITMAP
03FC
03F8
07F0
07E0
0FE0
0FC0
1F80
1F80
3F00
3E00
0000
0000
0000
0000
0000
FFC0
FFC0
FFC0
FFC0
FFC0
FFC0
FFC0
FFC0
FFC0
FFC0
FFC0
FFC0
FFC0
FFC0
FFC0
FFC0
FFC0
FFC0
FFC0
FFC0
FFC0
FFC0
FFC0
FFC0
FFC0
FFC0
FFC0
FFC0
FFC0
FFC0
FFC0
FFC0
FFC0
ENDCHAR
STARTCHAR 00CE
ENCODING 206
SWIDTH 231 0
DWIDTH 18 0
BBX 24 48 -3 0
BITMAP
01FFC0
03FFE0
07FFE0
0FFFF0
0FE7F8
1FE7F8
3FC3FC
7F81FE
7F00FF
FF007F
000000
000000
000000
000000
000000
01FF80
01FF80
01FF80
01FF80
01FF80
01FF80
01FF80
01FF80
01FF80
01FF80
01FF80
01FF80
01FF80
01FF80
01FF80
01FF80
01FF80
01FF80
01FF80
01FF80
01FF80
01FF80
01FF80
01FF80
01FF80
01FF80
01FF80
01FF80
01FF80
01FF80
01FF80
01FF80
01FF80
ENDCHAR
STARTCHAR 00CF
ENCODING 207
SWIDTH 231 0
DWIDTH 18 0
BBX 31 49 -6 0
BITMAP
1FC007F0
3FE00FF8
7FF01FFC
FFF01FFE
FFF83FFE
FFF83FFE
FFF83FFE
FFF01FFE
7FF01FFC
7FE00FFC
3FC007F8
0F8003E0
00000000
00000000
00000000
00000000
003FF000
003FF000
003FF000
003FF000
003FF000
003FF000
003FF000
003FF000
003FF000
003FF000
003FF000
003FF000
003FF000
003FF000
003FF000
003FF000
003FF000
003FF000
003FF000
003FF000
003FF000
003FF000
003FF000
003FF000
003FF000
003FF000
003FF000
003FF000
003FF000
003FF000
003FF000
003FF000
003FF000
ENDCHAR
STARTCHAR 00D1
ENCODING 209
SWIDTH 552 0
DWIDTH 43 0
BBX 38 69 1 0
BITMAP
001FF00000
003FFFF800
003FFFF800
003FFFF800
003FFFF800
003FFFF800
00200FF800
0000000000
0000000000
0000000000
0000000000
0000000000
0000000000
0200000000
0700000000
0F80000FFC
1FE0000FFC
1FF0000FFC
3FF8000FFC
7FFC000FFC
FFFF000FFC
7FFF800FFC
1FFFC00FFC
0FFFF00FFC
0FFFF80FFC
0FFFFC0FFC
0FFFFE0FFC
0FFFFF8FFC
0FFFFFCFFC
0FFFFFEFFC
0FFFFFFFFC
0FFFFFFFFC
0FFCFFFFFC
0FFC7FFFFC
0FFC3FFFFC
0FFC0FFFFC
0FFC07FFFC
0FFC03FFFC
0FFC01FFFC
0FFC007FFC
0FFC003FFC
0FFC001FFC
0FFC000FFC
0FFC000FFC
0FFC000FFC
0FFC000FFC
0FFC000FFC
0FFC000FFC
0FFC000FFC
0FFC000FFC
0FFC000FFC
0FFC000FFC
0FFC000FFC
0FFC000FFC
0FFC000FFC
0FFC000FFC
0FFC000FFC
0FFC000FFC
0FFC000FFC
0FFC000FFC
0FFC000FFC
0FFC000FFC
0FFC000FFC
0FFC000FFC
0FFC000FFC
0FFC000FFC
0FFC000FFC
0FFC000FFC
0FFC000FFC
ENDCHAR
STARTCHAR 00D2
ENCODING 210
SWIDTH 810 0
DWIDTH 63 0
BBX 58 70 3 -1
BITMAP
000007F000000000
000007F800000000
000003F800000000
000001FC00000000
000000FC00000000
000000FE00000000
0000007E00000000
0000003F00000000
0000001F00000000
0000001F80000000
0000000000000000
0000000000000000
0000000000000000
0000003E00000000
000007FFF8000000
00003FFFFF000000
0001FFFFFFE00000
0007FFFFFFF00000
000FFFFFFFFC0000
003FFFFFFFFE0000
007FFFFFFFFF8000
00FFFFFFFFFFC000
01FFFFF3FFFFE000
03FFFC000FFFF000
07FFF00003FFF000
07FFC00000FFF800
0FFF8000007FFC00
1FFF0000003FFC00
1FFC0000001FFE00
3FFC0000000FFE00
3FF800000007FF00
3FF000000003FF00
7FF000000003FF80
7FE000000001FF80
7FE000000001FF80
FFC000000001FFC0
FFC000000000FFC0
FFC000000000FFC0
FFC000000000FFC0
FFC000000000FFC0
FF8000000000FFC0
FF8000000000FFC0
FF8000000000FFC0
FFC000000000FFC0
FFC000000000FFC0
FFC000000000FFC0
FFC000000000FFC0
FFC000000000FFC0
FFE000000001FF80
7FE000000001FF80
7FE000000001FF80
7FF000000003FF80
3FF800000007FF00
3FF800000007FF00
1FFC0000000FFE00
1FFE0000001FFE00
0FFF0000003FFC00
0FFF8000007FFC00
07FFE00001FFF800
03FFF80007FFF000
01FFFF003FFFE000
00FFFFFFFFFFC000
007FFFFFFFFF8000
003FFFFFFFFF0000
001FFFFFFFFE0000
0007FFFFFFF80000
0003FFFFFFF00000
0000FFFFFFC00000
00001FFFFE000000
000001FFF0000000
ENDCHAR
STARTCHAR 00D3
ENCODING 211
SWIDTH 810 0
DWIDTH 63 0
BBX 58 70 3 -1
BITMAP
00000003F8000000
00000003F8000000
00000007F0000000
00000007E0000000
0000000FE0000000
0000000FC0000000
0000001F80000000
0000001F00000000
0000003F00000000
0000003E00000000
0000000000000000
0000000000000000
0000000000000000
0000003E00000000
000007FFF8000000
00003FFFFF000000
0001FFFFFFE00000
0007FFFFFFF00000
000FFFFFFFFC0000
003FFFFFFFFE0000
007FFFFFFFFF8000
00FFFFFFFFFFC000
01FFFFF3FFFFE000
03FFFC000FFFF000
07FFF00003FFF000
07FFC00000FFF800
0FFF8000007FFC00
1FFF0000003FFC00
1FFC0000001FFE00
3FFC0000000FFE00
3FF800000007FF00
3FF000000003FF00
7FF000000003FF80
7FE000000001FF80
7FE000000001FF80
FFC000000001FFC0
FFC000000000FFC0
FFC000000000FFC0
FFC000000000FFC0
FFC000000000FFC0
FF8000000000FFC0
FF8000000000FFC0
FF8000000000FFC0
FFC000000000FFC0
FFC000000000FFC0
FFC000000000FFC0
FFC000000000FFC0
FFC000000000FFC0
FFE000000001FF80
7FE000000001FF80
7FE000000001FF80
7FF000000003FF80
3FF800000007FF00
3FF800000007FF00
1FFC0000000FFE00
1FFE0000001FFE00
0FFF0000003FFC00
0FFF8000007FFC00
07FFE00001FFF800
03FFF80007FFF000
01FFFF003FFFE000
00FFFFFFFFFFC000
007FFFFFFFFF8000
003FFFFFFFFF0000
001FFFFFFFFE0000
0007FFFFFFF80000
0003FFFFFFF00000
0000FFFFFFC00000
00001FFFFE000000
000001FFF0000000
ENDCHAR
STARTCHAR 00D4
ENCODING 212
SWIDTH 810 0
DWIDTH 63 0
BBX 58 70 3 -1
BITMAP
000001FFE0000000
000001FFE0000000
000003FFF0000000
000007FFF8000000
00000FF7FC000000
00000FF3FC000000
00001FE1FE000000
00003FC0FF000000
00003F807F800000
00007F807F800000
0000000000000000
0000000000000000
0000000000000000
0000003E00000000
000007FFF8000000
00003FFFFF000000
0001FFFFFFE00000
0007FFFFFFF00000
000FFFFFFFFC0000
003FFFFFFFFE0000
007FFFFFFFFF8000
00FFFFFFFFFFC000
01FFFFF3FFFFE000
03FFFC000FFFF000
07FFF00003FFF000
07FFC00000FFF800
0FFF8000007FFC00
1FFF0000003FFC00
1FFC0000001FFE00
3FFC0000000FFE00
3FF800000007FF00
3FF000000003FF00
7FF000000003FF80
7FE000000001FF80
7FE000000001FF80
FFC000000001FFC0
FFC000000000FFC0
FFC000000000FFC0
FFC000000000FFC0
FFC000000000FFC0
FF8000000000FFC0
FF8000000000FFC0
FF8000000000FFC0
FFC000000000FFC0
FFC000000000FFC0
FFC000000000FFC0
FFC000000000FFC0
FFC000000000FFC0
FFE000000001FF80
7FE000000001FF80
7FE000000001FF80
7FF000000003FF80
3FF800000007FF00
3FF800000007FF00
1FFC0000000FFE00
1FFE0000001FFE00
0FFF0000003FFC00
0FFF8000007FFC00
07FFE00001FFF800
03FFF80007FFF000
01FFFF003FFFE000
00FFFFFFFFFFC000
007FFFFFFFFF8000
003FFFFFFFFF0000
001FFFFFFFFE0000
0007FFFFFFF80000
0003FFFFFFF00000
0000FFFFFFC00000
00001FFFFE000000
000001FFF0000000
ENDCHAR
STARTCHAR 00D5
ENCODING 213
SWIDTH 810 0
DWIDTH 63 0
BBX 58 70 3 -1
BITMAP
00001FF000000000
00001FFFF8000000
00001FFFF8000000
00001FFFF8000000
00001FFFF8000000
00001FFFF8000000
0000000FF8000000
0000000000000000
0000000000000000
0000000000000000
0000000000000000
0000000000000000
0000000000000000
0000003E00000000
000007FFF8000000
00003FFFFF000000
0001FFFFFFE00000
0007FFFFFFF00000
000FFFFFFFFC0000
003FFFFFFFFE0000
007FFFFFFFFF8000
00FFFFFFFFFFC000
01FFFFF3FFFFE000
03FFFC000FFFF000
07FFF00003FFF000
07FFC00000FFF800
0FFF8000007FFC00
1FFF0000003FFC00
1FFC0000001FFE00
3FFC0000000FFE00
3FF800000007FF00
3FF000000003FF00
7FF000000003FF80
7FE000000001FF80
7FE000000001FF80
FFC000000001FFC0
FFC000000000FFC0
FFC000000000FFC0
FFC000000000FFC0
FFC000000000FFC0
FF8000000000FFC0
FF8000000000FFC0
FF8000000000FFC0
FFC000000000FFC0
FFC000000000FFC0
FFC000000000FFC0
FFC000000000FFC0
FFC000000000FFC0
FFE000000001FF80
7FE000000001FF80
7FE000000001FF80
7FF000000003FF80
3FF800000007FF00
3FF800000007FF00
1FFC0000000FFE00
1FFE0000001FFE00
0FFF0000003FFC00
0FFF8000007FFC00
07FFE00001FFF800
03FFF80007FFF000
01FFFF003FFFE000
00FFFFFFFFFFC000
007FFFFFFFFF8000
003FFFFFFFFF0000
001FFFFFFFFE0000
0007FFFFFFF80000
0003FFFFFFF00000
0000FFFFFFC00000
00001FFFFE000000
000001FFF0000000
ENDCHAR
STARTCHAR 00D6
ENCODING 214
SWIDTH 810 0
DWIDTH 63 0
BBX 58 71 3 -1
BITMAP
00007F001FC00000
0000FF803FE00000
0001FFC07FF00000
0003FFC07FF00000
0003FFE0FFF80000
0003FFE0FFF80000
0003FFE0FFF80000
0003FFC07FF80000
0001FFC07FF00000
0001FF803FF00000
0000FF001FE00000
00003E000F800000
0000000000000000
0000000000000000
0000003E00000000
000007FFF8000000
00003FFFFF000000
0001FFFFFFE00000
0007FFFFFFF00000
000FFFFFFFFC0000
003FFFFFFFFE0000
007FFFFFFFFF8000
00FFFFFFFFFFC000
01FFFFF3FFFFE000
03FFFC000FFFF000
07FFF00003FFF000
07FFC00000FFF800
0FFF8000007FFC00
1FFF0000003FFC00
1FFC0000001FFE00
3FFC0000000FFE00
3FF800000007FF00
3FF000000003FF00
7FF000000003FF80
7FE000000001FF80
7FE000000001FF80
FFC000000001FFC0
FFC000000000FFC0
FFC000000000FFC0
FFC000000000FFC0
FFC000000000FFC0
FF8000000000FFC0
FF8000000000FFC0
FF8000000000FFC0
FFC000000000FFC0
FFC000000000FFC0
FFC000000000FFC0
FFC000000000FFC0
FFC000000000FFC0
FFE000000001FF80
7FE000000001FF80
7FE000000001FF80
7FF000000003FF80
3FF800000007FF00
3FF800000007FF00
1FFC0000000FFE00
1FFE0000001FFE00
0FFF0000003FFC00
0FFF8000007FFC00
07FFE00001FFF800
03FFF80007FFF000
01FFFF003FFFE000
00FFFFFFFFFFC000
007FFFFFFFFF8000
003FFFFFFFFF0000
001FFFFFFFFE0000
0007FFFFFFF80000
0003FFFFFFF00000
0000FFFFFFC00000
00001FFFFE000000
000001FFF0000000
ENDCHAR
STARTCHAR 00D7
ENCODING 215
SWIDTH 527 0
DWIDTH 41 0
BBX 34 33 4 9
BITMAP
0000000800
0E00001C00
1F00003E00
3F80007F00
7FC000FF80
FFE001FF80
7FF003FF80
3FF803FF00
1FFC07FE00
0FFE0FFC00
07FF1FF800
03FFBFF000
01FFFFE000
00FFFFC000
007FFF8000
003FFF0000
001FFE0000
001FFE0000
003FFF0000
007FFF8000
00FFFFC000
01FFFFE000
03FFFFF000
07FF3FF800
07FE1FFC00
0FFC0FFE00
1FF807FF00
3FF003FF80
7FE001FFC0
3FC000FF80
1F80007F00
0F00003C00
0600001800
ENDCHAR
STARTCHAR 00D8
ENCODING 216
SWIDTH 797 0
DWIDTH 62 0
BBX 58 60 2 -2
BITMAP
0000000000003000
0000001F00007800
000007FFFC00FE00
00003FFFFF81FF00
0001FFFFFFE1FE00
0003FFFFFFFBFC00
000FFFFFFFFFFC00
001FFFFFFFFFF800
007FFFFFFFFFF000
00FFFFFFFFFFE000
01FFFFF1FFFFE000
03FFFE000FFFF000
03FFF00003FFF800
07FFC00001FFF800
0FFF800003FFFC00
0FFF000007FFFE00
1FFE00000FFFFE00
1FFC00001FF7FF00
3FF800003FE7FF00
3FF000007FC3FF80
7FF000007F83FF80
7FE00000FF81FF80
7FE00001FF01FFC0
7FE00003FE00FFC0
FFC00007FC00FFC0
FFC0000FF800FFC0
FFC0001FF000FFC0
FFC0001FE0007FC0
FFC0003FC0007FC0
FFC0007FC0007FC0
FFC000FF80007FC0
FFC001FF00007FC0
FFC003FE00007FC0
FFC007FC0000FFC0
FFC00FF80000FFC0
FFC00FF00000FFC0
7FE01FF00000FFC0
7FE03FE00001FF80
7FF07FC00001FF80
3FF0FF800003FF80
3FF9FF000003FF00
3FFBFE000007FF00
1FFFFC00000FFE00
1FFFF800001FFE00
0FFFF800003FFC00
07FFF000007FFC00
07FFE00001FFF800
03FFF80007FFF000
01FFFF003FFFE000
01FFFFFFFFFFC000
01FFFFFFFFFF8000
03FFFFFFFFFF0000
07FFFFFFFFFE0000
0FFFFFFFFFFC0000
1FF3FFFFFFF00000
3FE0FFFFFFC00000
1FC01FFFFE000000
0F8001FFE0000000
0700000000000000
0300000000000000
ENDCHAR
STARTCHAR 00D9
ENCODING 217
SWIDTH 527 0
DWIDTH 41 0
BBX 35 70 3 -1
BITMAP
007F800000
003F800000
001FC00000
001FC00000
000FE00000
0007E00000
0003F00000
0003F00000
0001F80000
0000F80000
0000000000
0000000000
0000000000
0000000000
0000000000
FFC0007FE0
FFC0007FE0
FFC0007FE0
FFC0007FE0
FFC0007FE0
FFC0007FE0
FFC0007FE0
FFC0007FE0
FFC0007FE0
FFC0007FE0
FFC0007FE0
FFC0007FE0
FFC0007FE0
FFC0007FE0
FFC0007FE0
FFC0007FE0
FFC0007FE0
FFC0007FE0
FFC0007FE0
FFC0007FE0
FFC0007FE0
FFC0007FE0
FFC0007FE0
FFC0007FE0
FFC0007FE0
FFC0007FE0
FFC0007FE0
FFC0007FE0
FFC0007FE0
FFC0007FE0
FFC0007FE0
FFC0007FE0
FFC0007FE0
FFC0007FE0
FFC0007FE0
FFC0007FE0
FFC0007FE0
7FC0007FE0
7FC0007FE0
7FC0007FC0
7FE000FFC0
7FE000FFC0
7FE000FFC0
3FF001FFC0
3FF803FF80
3FFE0FFF80
1FFFFFFF00
1FFFFFFF00
0FFFFFFE00
07FFFFFC00
03FFFFF800
01FFFFF000
00FFFFE000
003FFF8000
0007FE0000
ENDCHAR
STARTCHAR 00DA
ENCODING 218
SWIDTH 527 0
DWIDTH 41 0
BBX 35 70 3 -1
BITMAP
00001FC000
00003F8000
00003F8000
00007F0000
00007E0000
0000FC0000
0000FC0000
0001F80000
0001F00000
0003E00000
0000000000
0000000000
0000000000
0000000000
0000000000
FFC0007FE0
FFC0007FE0
FFC0007FE0
FFC0007FE0
FFC0007FE0
FFC0007FE0
FFC0007FE0
FFC0007FE0
FFC0007FE0
FFC0007FE0
FFC0007FE0
FFC0007FE0
FFC0007FE0
FFC0007FE0
FFC0007FE0
FFC0007FE0
FFC0007FE0
FFC0007FE0
FFC0007FE0
FFC0007FE0
FFC0007FE0
FFC0007FE0
FFC0007FE0
FFC0007FE0
FFC0007FE0
FFC0007FE0
FFC0007FE0
FFC0007FE0
FFC0007FE0
FFC0007FE0
FFC0007FE0
FFC0007FE0
FFC0007FE0
FFC0007FE0
FFC0007FE0
FFC0007FE0
FFC0007FE0
7FC0007FE0
7FC0007FE0
7FC0007FC0
7FE000FFC0
7FE000FFC0
7FE000FFC0
3FF001FFC0
3FF803FF80
3FFE0FFF80
1FFFFFFF00
1FFFFFFF00
0FFFFFFE00
07FFFFFC00
03FFFFF800
01FFFFF000
00FFFFE000
003FFF8000
0007FE0000
ENDCHAR
STARTCHAR 00DB
ENCODING 219
SWIDTH 527 0
DWIDTH 41 0
BBX 35 70 3 -1
BITMAP
000FFE0000
001FFF0000
003FFF8000
003FFF8000
007FBFC000
00FF1FE000
00FE0FF000
01FE0FF000
03FC07F800
07F803FC00
0000000000
0000000000
0000000000
0000000000
0000000000
FFC0007FE0
FFC0007FE0
FFC0007FE0
FFC0007FE0
FFC0007FE0
FFC0007FE0
FFC0007FE0
FFC0007FE0
FFC0007FE0
FFC0007FE0
FFC0007FE0
FFC0007FE0
FFC0007FE0
FFC0007FE0
FFC0007FE0
FFC0007FE0
FFC0007FE0
FFC0007FE0
FFC0007FE0
FFC0007FE0
FFC0007FE0
FFC0007FE0
FFC0007FE0
FFC0007FE0
FFC0007FE0
FFC0007FE0
FFC0007FE0
FFC0007FE0
FFC0007FE0
FFC0007FE0
FFC0007FE0
FFC0007FE0
FFC0007FE0
FFC0007FE0
FFC0007FE0
FFC0007FE0
FFC0007FE0
7FC0007FE0
7FC0007FE0
7FC0007FC0
7FE000FFC0
7FE000FFC0
7FE000FFC0
3FF001FFC0
3FF803FF80
3FFE0FFF80
1FFFFFFF00
1FFFFFFF00
0FFFFFFE00
07FFFFFC00
03FFFFF800
01FFFFF000
00FFFFE000
003FFF8000
0007FE0000
ENDCHAR
STARTCHAR 00DC
ENCODING 220
SWIDTH 527 0
DWIDTH 41 0
BBX 35 71 3 -1
BITMAP
07F000FE00
0FFC01FF00
1FFC03FF80
1FFE07FF80
1FFE07FF80
1FFE07FF80
1FFE07FF80
1FFE07FF80
1FFE07FF80
0FFC03FF00
07F801FE00
03E0007C00
0000000000
0000000000
0000000000
0000000000
FFC0007FE0
FFC0007FE0
FFC0007FE0
FFC0007FE0
FFC0007FE0
FFC0007FE0
FFC0007FE0
FFC0007FE0
FFC0007FE0
FFC0007FE0
FFC0007FE0
FFC0007FE0
FFC0007FE0
FFC0007FE0
FFC0007FE0
FFC0007FE0
FFC0007FE0
FFC0007FE0
FFC0007FE0
FFC0007FE0
FFC0007FE0
FFC0007FE0
FFC0007FE0
FFC0007FE0
FFC0007FE0
FFC0007FE0
FFC0007FE0
FFC0007FE0
FFC0007FE0
FFC0007FE0
FFC0007FE0
FFC0007FE0
FFC0007FE0
FFC0007FE0
FFC0007FE0
FFC0007FE0
FFC0007FE0
7FC0007FE0
7FC0007FE0
7FC0007FC0
7FE000FFC0
7FE000FFC0
7FE000FFC0
3FF001FFC0
3FF803FF80
3FFE0FFF80
1FFFFFFF00
1FFFFFFF00
0FFFFFFE00
07FFFFFC00
03FFFFF800
01FFFFF000
00FFFFE000
003FFF8000
0007FE0000
ENDCHAR
STARTCHAR 00DD
ENCODING 221
SWIDTH 514 0
DWIDTH 40 0
BBX 34 69 3 0
BITMAP
00003FC000
00003F8000
00007F0000
00007E0000
0000FE0000
0000FC0000
0001F80000
0001F80000
0003F00000
0003E00000
0000000000
0000000000
0000000000
0000000000
0000000000
FFC0007FC0
FFC0007FC0
FFC0007FC0
FFC0007FC0
FFC0007FC0
FFC0007FC0
FFC0007FC0
FFC0007FC0
FFC0007FC0
FFC0007FC0
FFC0007FC0
FFC0007FC0
FFC0007FC0
FFC0007FC0
FFC0007FC0
FFC0007FC0
FFC0007FC0
FFC0007FC0
FFC0007FC0
FFC0007FC0
FFC0007FC0
FFC0007FC0
FFC0007FC0
FFC0007FC0
FFC000FFC0
FFC000FFC0
FFC000FFC0
FFC000FFC0
7FE001FFC0
7FE001FF80
7FF003FF80
3FF807FF80
3FFFFFFF00
1FFFFFFF00
1FFFFFFE00
0FFFFFFC00
07FFFFF800
03FFFFF000
01FFFFE000
007FFFC000
001FFE0000
000FFC0000
000FFC0000
000FFC0000
000FFC0000
000FFC0000
000FFC0000
000FFC0000
000FFC0000
000FFC0000
000FFC0000
000FFC0000
000FFC0000
000FFC0000
ENDCHAR
STARTCHAR 00E0
ENCODING 224
SWIDTH 565 0
DWIDTH 44 0
BBX 39 69 4 0
BITMAP
007F000000
007F800000
003F800000
001FC00000
000FC00000
000FE00000
0007E00000
0003F00000
0003F00000
0001F80000
0000000000
0000000000
0000000000
0000C00000
001FFE0000
00FFFF8000
01FFFFE000
03FFFFF000
07FFFFF800
0FFFFFFC00
1FFFFFFE00
3FFFFFFE00
3FFF3FFF00
7FF807FF00
7FF003FF80
7FE001FF80
FFE001FF80
FFC000FFC0
FFC000FFC0
FFC000FFC0
FFC000FFC0
FFC000FFC0
FFC000FFC0
FFC000FFC0
FFC000FFC0
FFC000FFC0
FFC000FFC0
FFC000FFC0
FFC000FFC0
FFC000FFC0
FFC000FFC0
FFC000FFC0
FFC000FFC0
FFC000FFC0
FFC000FFC0
FFC000FFC0
FFC000FFC0
FFC000FFC0
FFC000FFC0
FFC000FFC0
FFC000FFC0
FFC000FFC0
FFC000FFC0
FFC000FFC0
FFC000FFC0
FFC000FFC0
FFC000FFC0
FFC000FFC0
FFC000FFC0
FFC000FFC0
FFFFFFFFFE
FFFFFFFFFE
FFFFFFFFFE
FFFFFFFFFE
FFFFFFFFFE
FFFFFFFFFE
FFFFFFFFFE
FFFFFFFFFE
FFFFFFFFFE
ENDCHAR
STARTCHAR 00E1
ENCODING 225
SWIDTH 565 0
DWIDTH 44 0
BBX 39 69 4 0
BITMAP
00003F8000
00003F8000
00007F0000
00007E0000
0000FC0000
0000FC0000
0001F80000
0003F00000
0003F00000
0007E00000
0000000000
0000000000
0000000000
0000C00000
001FFE0000
00FFFF8000
01FFFFE000
03FFFFF000
07FFFFF800
0FFFFFFC00
1FFFFFFE00
3FFFFFFE00
3FFF3FFF00
7FF807FF00
7FF003FF80
7FE001FF80
FFE001FF80
FFC000FFC0
FFC000FFC0
FFC000FFC0
FFC000FFC0
FFC000FFC0
FFC000FFC0
FFC000FFC0
FFC000FFC0
FFC000FFC0
FFC000FFC0
FFC000FFC0
FFC000FFC0
FFC000FFC0
FFC000FFC0
FFC000FFC0
FFC000FFC0
FFC000FFC0
FFC000FFC0
FFC000FFC0
FFC000FFC0
FFC000FFC0
FFC000FFC0
FFC000FFC0
FFC000FFC0
FFC000FFC0
FFC000FFC0
FFC000FFC0
FFC000FFC0
FFC000FFC0
FFC000FFC0
FFC000FFC0
FFC000FFC0
FFC000FFC0
FFFFFFFFFE
FFFFFFFFFE
FFFFFFFFFE
FFFFFFFFFE
FFFFFFFFFE
FFFFFFFFFE
FFFFFFFFFE
FFFFFFFFFE
FFFFFFFFFE
ENDCHAR
STARTCHAR 00E2
ENCODING 226
SWIDTH 565 0
DWIDTH 44 0
BBX 39 69 4 0
BITMAP
001FFE0000
001FFE0000
003FFF0000
007FFF8000
00FF7FC000
00FF3FC000
01FE1FE000
03FC0FF000
07F807F000
07F807F800
0000000000
0000000000
0000000000
0000C00000
001FFE0000
00FFFF8000
01FFFFE000
03FFFFF000
07FFFFF800
0FFFFFFC00
1FFFFFFE00
3FFFFFFE00
3FFF3FFF00
7FF807FF00
7FF003FF80
7FE001FF80
FFE001FF80
FFC000FFC0
FFC000FFC0
FFC000FFC0
FFC000FFC0
FFC000FFC0
FFC000FFC0
FFC000FFC0
FFC000FFC0
FFC000FFC0
FFC000FFC0
FFC000FFC0
FFC000FFC0
FFC000FFC0
FFC000FFC0
FFC000FFC0
FFC000FFC0
FFC000FFC0
FFC000FFC0
FFC000FFC0
FFC000FFC0
FFC000FFC0
FFC000FFC0
FFC000FFC0
FFC000FFC0
FFC000FFC0
FFC000FFC0
FFC000FFC0
FFC000FFC0
FFC000FFC0
FFC000FFC0
FFC000FFC0
FFC000FFC0
FFC000FFC0
FFFFFFFFFE
FFFFFFFFFE
FFFFFFFFFE
FFFFFFFFFE
FFFFFFFFFE
FFFFFFFFFE
FFFFFFFFFE
FFFFFFFFFE
FFFFFFFFFE
ENDCHAR
STARTCHAR 00E3
ENCODING 227
SWIDTH 565 0
DWIDTH 44 0
BBX 39 69 4 0
BITMAP
01FF000000
01FFFF8000
01FFFF8000
01FFFF8000
01FFFF8000
01FFFF8000
0000FF8000
0000000000
0000000000
0000000000
0000000000
0000000000
0000000000
0000C00000
001FFE0000
00FFFF8000
01FFFFE000
03FFFFF000
07FFFFF800
0FFFFFFC00
1FFFFFFE00
3FFFFFFE00
3FFF3FFF00
7FF807FF00
7FF003FF80
7FE001FF80
FFE001FF80
FFC000FFC0
FFC000FFC0
FFC000FFC0
FFC000FFC0
FFC000FFC0
FFC000FFC0
FFC000FFC0
FFC000FFC0
FFC000FFC0
FFC000FFC0
FFC000FFC0
FFC000FFC0
FFC000FFC0
FFC000FFC0
FFC000FFC0
FFC000FFC0
FFC000FFC0
FFC000FFC0
FFC000FFC0
FFC000FFC0
FFC000FFC0
FFC000FFC0
FFC000FFC0
FFC000FFC0
FFC000FFC0
FFC000FFC0
FFC000FFC0
FFC000FFC0
FFC000FFC0
FFC000FFC0
FFC000FFC0
FFC000FFC0
FFC000FFC0
FFFFFFFFFE
FFFFFFFFFE
FFFFFFFFFE
FFFFFFFFFE
FFFFFFFFFE
FFFFFFFFFE
FFFFFFFFFE
FFFFFFFFFE
FFFFFFFFFE
ENDCHAR
STARTCHAR 00E4
ENCODING 228
SWIDTH 565 0
DWIDTH 44 0
BBX 39 70 4 0
BITMAP
07F001FC00
0FF803FE00
1FFC07FF00
3FFC07FF00
3FFC0FFF80
3FFE0FFF80
3FFE0FFF80
3FFC0FFF80
1FFC07FF00
1FF803FF00
0FF003FE00
03E000F800
0000000000
0000000000
0000C00000
001FFE0000
00FFFF8000
01FFFFE000
03FFFFF000
07FFFFF800
0FFFFFFC00
1FFFFFFE00
3FFFFFFE00
3FFF3FFF00
7FF807FF00
7FF003FF80
7FE001FF80
FFE001FF80
FFC000FFC0
FFC000FFC0
FFC000FFC0
FFC000FFC0
FFC000FFC0
FFC000FFC0
FFC000FFC0
FFC000FFC0
FFC000FFC0
FFC000FFC0
FFC000FFC0
FFC000FFC0
FFC000FFC0
FFC000FFC0
FFC000FFC0
FFC000FFC0
FFC000FFC0
FFC000FFC0
FFC000FFC0
FFC000FFC0
FFC000FFC0
FFC000FFC0
FFC000FFC0
FFC000FFC0
FFC000FFC0
FFC000FFC0
FFC000FFC0
FFC000FFC0
FFC000FFC0
FFC000FFC0
FFC000FFC0
FFC000FFC0
FFC000FFC0
FFFFFFFFFE
FFFFFFFFFE
FFFFFFFFFE
FFFFFFFFFE
FFFFFFFFFE
FFFFFFFFFE
FFFFFFFFFE
FFFFFFFFFE
FFFFFFFFFE
ENDCHAR
STARTCHAR 00E5
ENCODING 229
SWIDTH 565 0
DWIDTH 44 0
BBX 39 75 4 0
BITMAP
0001E00000
0007F80000
001FFE0000
003FFE0000
003FFF0000
007E1F0000
007C0F8000
00780F8000
00780F8000
007C0F8000
007C0F8000
003F3F0000
003FFF0000
001FFE0000
000FFC0000
0003F00000
0000000000
0000000000
0000000000
0000C00000
001FFE0000
00FFFF8000
01FFFFE000
03FFFFF000
07FFFFF800
0FFFFFFC00
1FFFFFFE00
3FFFFFFE00
3FFF3FFF00
7FF807FF00
7FF003FF80
7FE001FF80
FFE001FF80
FFC000FFC0
FFC000FFC0
FFC000FFC0
FFC000FFC0
FFC000FFC0
FFC000FFC0
FFC000FFC0
FFC000FFC0
FFC000FFC0
FFC000FFC0
FFC000FFC0
FFC000FFC0
FFC000FFC0
FFC000FFC0
FFC000FFC0
FFC000FFC0
FFC000FFC0
FFC000FFC0
FFC000FFC0
FFC000FFC0
FFC000FFC0
FFC000FFC0
FFC000FFC0
FFC000FFC0
FFC000FFC0
FFC000FFC0
FFC000FFC0
FFC000FFC0
FFC000FFC0
FFC000FFC0
FFC000FFC0
FFC000FFC0
FFC000FFC0
FFFFFFFFFE
FFFFFFFFFE
FFFFFFFFFE
FFFFFFFFFE
FFFFFFFFFE
FFFFFFFFFE
FFFFFFFFFE
FFFFFFFFFE
FFFFFFFFFE
ENDCHAR
STARTCHAR 00E7
ENCODING 231
SWIDTH 681 0
DWIDTH 53 0
BBX 49 73 3 -17
BITMAP
0000003E000000
00000FFFF80000
00007FFFFF0000
0001FFFFFFC000
0007FFFFFFF000
000FFFFFFFF800
003FFFFFFFFC00
007FFFFFFFFE00
00FFFFFFFFFF00
01FFFFF3FFFF80
03FFFC001FFF00
07FFF00007FE00
07FFC00001FC00
0FFF800000F800
1FFE0000007000
1FFC0000002000
3FFC0000000000
3FF80000000000
3FF00000000000
7FF00000000000
7FE00000000000
7FE00000000000
FFC00000000000
FFC00000000000
FFC00000000000
FFC00000000000
FFC00000000000
FF800000000000
FF800000000000
FF800000000000
FFC00000000000
FFC00000000000
FFC00000000000
FFC00000000000
FFC00000000000
FFE00000000000
7FE00000000000
7FE00000000000
7FF00000000000
3FF00000000000
3FF80000000000
1FFC0000000000
1FFE0000003000
0FFF0000007800
0FFF800001FC00
07FFE00003FE00
03FFF8000FFF00
01FFFF007FFF80
00FFFFFFFFFF80
007FFFFFFFFF00
003FFFFFFFFE00
001FFFFFFFFC00
000FFFFFFFF000
0003FFFFFFE000
0000FFFFFF8000
00003FFFFE0000
000003FFE00000
000000F8000000
000000F8000000
000000FC000000
000000FE000000
000000FF000000
0000001F800000
0000000F800000
00000007800000
00001807C00000
0000380FC00000
00007E1F800000
0000FFFF800000
00007FFF800000
00003FFF000000
00000FFE000000
000003F8000000
ENDCHAR
STARTCHAR 00E8
ENCODING 232
SWIDTH 501 0
DWIDTH 39 0
BBX 37 69 2 0
BITMAP
00FE000000
007F000000
003F800000
003F800000
001FC00000
000FC00000
000FE00000
0007E00000
0003F00000
0001F00000
0000000000
0000000000
0000000000
0000000000
0000000000
07FFFFF000
07FFFFF000
07FFFFF000
07FFFFF000
07FFFFF000
07FFFFF000
07FFFFF000
07FFFFF000
07FFFFF000
07FE000000
07FE000000
07FE000000
07FE000000
07FE000000
07FE000000
07FE000000
07FE000000
07FE000000
07FE000000
07FE000000
07FE000000
07FE000000
FFFFFFFE00
FFFFFFFE00
FFFFFFFE00
FFFFFFFE00
FFFFFFFE00
FFFFFFFE00
FFFFFFFE00
FFFFFFFE00
FFFFFFFE00
07FE000000
07FE000000
07FE000000
07FE000000
07FE000000
07FE000000
07FE000000
07FE000000
07FE000000
07FE000000
07FE000000
07FE000000
07FE000000
07FE000000
07FFFFFFF8
07FFFFFFF8
07FFFFFFF8
07FFFFFFF8
07FFFFFFF8
07FFFFFFF8
07FFFFFFF8
07FFFFFFF8
07FFFFFFF8
ENDCHAR
STARTCHAR 00E9
ENCODING 233
SWIDTH 501 0
DWIDTH 39 0
BBX 37 69 2 0
BITMAP
00007F8000
00007F0000
0000FE0000
0000FE0000
0001FC0000
0001F80000
0003F00000
0003F00000
0007E00000
0007C00000
0000000000
0000000000
0000000000
0000000000
0000000000
07FFFFF000
07FFFFF000
07FFFFF000
07FFFFF000
07FFFFF000
07FFFFF000
07FFFFF000
07FFFFF000
07FFFFF000
07FE000000
07FE000000
07FE000000
07FE000000
07FE000000
07FE000000
07FE000000
07FE000000
07FE000000
07FE000000
07FE000000
07FE000000
07FE000000
FFFFFFFE00
FFFFFFFE00
FFFFFFFE00
FFFFFFFE00
FFFFFFFE00
FFFFFFFE00
FFFFFFFE00
FFFFFFFE00
FFFFFFFE00
07FE000000
07FE000000
07FE000000
07FE000000
07FE000000
07FE000000
07FE000000
07FE000000
07FE000000
07FE000000
07FE000000
07FE000000
07FE000000
07FE000000
07FFFFFFF8
07FFFFFFF8
07FFFFFFF8
07FFFFFFF8
07FFFFFFF8
07FFFFFFF8
07FFFFFFF8
07FFFFFFF8
07FFFFFFF8
ENDCHAR
STARTCHAR 00EA
ENCODING 234
SWIDTH 501 0
DWIDTH 39 0
BBX 37 69 2 0
BITMAP
001FFC0000
003FFE0000
007FFF0000
007FFF0000
00FF7F8000
01FE3FC000
03FC3FC000
03F81FE000
07F80FF000
0FF007F800
0000000000
0000000000
0000000000
0000000000
0000000000
07FFFFF000
07FFFFF000
07FFFFF000
07FFFFF000
07FFFFF000
07FFFFF000
07FFFFF000
07FFFFF000
07FFFFF000
07FE000000
07FE000000
07FE000000
07FE000000
07FE000000
07FE000000
07FE000000
07FE000000
07FE000000
07FE000000
07FE000000
07FE000000
07FE000000
FFFFFFFE00
FFFFFFFE00
FFFFFFFE00
FFFFFFFE00
FFFFFFFE00
FFFFFFFE00
FFFFFFFE00
FFFFFFFE00
FFFFFFFE00
07FE000000
07FE000000
07FE000000
07FE000000
07FE000000
07FE000000
07FE000000
07FE000000
07FE000000
07FE000000
07FE000000
07FE000000
07FE000000
07FE000000
07FFFFFFF8
07FFFFFFF8
07FFFFFFF8
07FFFFFFF8
07FFFFFFF8
07FFFFFFF8
07FFFFFFF8
07FFFFFFF8
07FFFFFFF8
ENDCHAR
STARTCHAR 00EB
ENCODING 235
SWIDTH 501 0
DWIDTH 39 0
BBX 37 70 2 0
BITMAP
0FE001F800
1FF007FE00
3FF807FE00
3FFC0FFF00
3FFC0FFF00
7FFC0FFF00
7FFC0FFF00
3FFC0FFF00
3FF80FFF00
1FF807FE00
0FF003FC00
07C000F000
0000000000
0000000000
0000000000
0000000000
07FFFFF000
07FFFFF000
07FFFFF000
07FFFFF000
07FFFFF000
07FFFFF000
07FFFFF000
07FFFFF000
07FFFFF000
07FE000000
07FE000000
07FE000000
07FE000000
07FE000000
07FE000000
07FE000000
07FE000000
07FE000000
07FE000000
07FE000000
07FE000000
07FE000000
FFFFFFFE00
FFFFFFFE00
FFFFFFFE00
FFFFFFFE00
FFFFFFFE00
FFFFFFFE00
FFFFFFFE00
FFFFFFFE00
FFFFFFFE00
07FE000000
07FE000000
07FE000000
07FE000000
07FE000000
07FE000000
07FE000000
07FE000000
07FE000000
07FE000000
07FE000000
07FE000000
07FE000000
07FE000000
07FFFFFFF8
07FFFFFFF8
07FFFFFFF8
07FFFFFFF8
07FFFFFFF8
07FFFFFFF8
07FFFFFFF8
07FFFFFFF8
07FFFFFFF8
ENDCHAR
STARTCHAR 00EC
ENCODING 236
SWIDTH 231 0
DWIDTH 18 0
BBX 13 48 1 0
BITMAP
FE00
7F00
7F00
3F80
1F80
1FC0
0FC0
07E0
03E0
03F0
0000
0000
0000
0000
0000
1FF8
1FF8
1FF8
1FF8
1FF8
1FF8
1FF8
1FF8
1FF8
1FF8
1FF8
1FF8
1FF8
1FF8
1FF8
1FF8
1FF8
1FF8
1FF8
1FF8
1FF8
1FF8
1FF8
1FF8
1FF8
1FF8
1FF8
1FF8
1FF8
1FF8
1FF8
1FF8
1FF8
ENDCHAR
STARTCHAR 00ED
ENCODING 237
SWIDTH 231 0
DWIDTH 18 0
BBX 14 48 4 0
BITMAP
03FC
03F8
07F0
07E0
0FE0
0FC0
1F80
1F80
3F00
3E00
0000
0000
0000
0000
0000
FFC0
FFC0
FFC0
FFC0
FFC0
FFC0
FFC0
FFC0
FFC0
FFC0
FFC0
FFC0
FFC0
FFC0
FFC0
FFC0
FFC0
FFC0
FFC0
FFC0
FFC0
FFC0
FFC0
FFC0
FFC0
FFC0
FFC0
FFC0
FFC0
FFC0
FFC0
FFC0
FFC0
ENDCHAR
STARTCHAR 00EE
ENCODING 238
SWIDTH 231 0
DWIDTH 18 0
BBX 24 48 -3 0
BITMAP
01FFC0
03FFE0
07FFE0
0FFFF0
0FE7F8
1FE7F8
3FC3FC
7F81FE
7F00FF
FF007F
000000
000000
000000
000000
000000
01FF80
01FF80
01FF80
01FF80
01FF80
01FF80
01FF80
01FF80
01FF80
01FF80
01FF80
01FF80
01FF80
01FF80
01FF80
01FF80
01FF80
01FF80
01FF80
01FF80
01FF80
01FF80
01FF80
01FF80
01FF80
01FF80
01FF80
01FF80
01FF80
01FF80
01FF80
01FF80
01FF80
ENDCHAR
STARTCHAR 00EF
ENCODING 239
SWIDTH 231 0
DWIDTH 18 0
BBX 31 49 -6 0
BITMAP
1FC007F0
3FE00FF8
7FF01FFC
FFF01FFE
FFF83FFE
FFF83FFE
FFF83FFE
FFF01FFE
7FF01FFC
7FE00FFC
3FC007F8
0F8003E0
00000000
00000000
00000000
00000000
003FF000
003FF000
003FF000
003FF000
003FF000
003FF000
003FF000
003FF000
003FF000
003FF000
003FF000
003FF000
003FF000
003FF000
003FF000
003FF000
003FF000
003FF000
003FF000
003FF000
003FF000
003FF000
003FF000
003FF000
003FF000
003FF000
003FF000
003FF000
003FF000
003FF000
003FF000
003FF000
003FF000
ENDCHAR
STARTCHAR 00F1
ENCODING 241
SWIDTH 552 0
DWIDTH 43 0
BBX 38 69 1 0
BITMAP
001FF00000
003FFFF800
003FFFF800
003FFFF800
003FFFF800
003FFFF800
00200FF800
0000000000
0000000000
0000000000
0000000000
0000000000
0000000000
0200000000
0700000000
0F80000FFC
1FE0000FFC
1FF0000FFC
3FF8000FFC
7FFC000FFC
FFFF000FFC
7FFF800FFC
1FFFC00FFC
0FFFF00FFC
0FFFF80FFC
0FFFFC0FFC
0FFFFE0FFC
0FFFFF8FFC
0FFFFFCFFC
0FFFFFEFFC
0FFFFFFFFC
0FFFFFFFFC
0FFCFFFFFC
0FFC7FFFFC
0FFC3FFFFC
0FFC0FFFFC
0FFC07FFFC
0FFC03FFFC
0FFC01FFFC
0FFC007FFC
0FFC003FFC
0FFC001FFC
0FFC000FFC
0FFC000FFC
0FFC000FFC
0FFC000FFC
0FFC000FFC
0FFC000FFC
0FFC000FFC
0FFC000FFC
0FFC000FFC
0FFC000FFC
0FFC000FFC
0FFC000FFC
0FFC000FFC
0FFC000FFC
0FFC000FFC
0FFC000FFC
0FFC000FFC
0FFC000FFC
0FFC000FFC
0FFC000FFC
0FFC000FFC
0FFC000FFC
0FFC000FFC
0FFC000FFC
0FFC000FFC
0FFC000FFC
0FFC000FFC
ENDCHAR
STARTCHAR 00F2
ENCODING 242
SWIDTH 810 0
DWIDTH 63 0
BBX 58 70 3 -1
BITMAP
000007F000000000
000007F800000000
000003F800000000
000001FC00000000
000000FC00000000
000000FE00000000
0000007E00000000
0000003F00000000
0000001F00000000
0000001F80000000
0000000000000000
0000000000000000
0000000000000000
0000003E00000000
000007FFF8000000
00003FFFFF000000
0001FFFFFFE00000
0007FFFFFFF00000
000FFFFFFFFC0000
003FFFFFFFFE0000
007FFFFFFFFF8000
00FFFFFFFFFFC000
01FFFFF3FFFFE000
03FFFC000FFFF000
07FFF00003FFF000
07FFC00000FFF800
0FFF8000007FFC00
1FFF0000003FFC00
1FFC0000001FFE00
3FFC0000000FFE00
3FF800000007FF00
3FF000000003FF00
7FF000000003FF80
7FE000000001FF80
7FE000000001FF80
FFC000000001FFC0
FFC000000000FFC0
FFC000000000FFC0
FFC000000000FFC0
FFC000000000FFC0
FF8000000000FFC0
FF8000000000FFC0
FF8000000000FFC0
FFC000000000FFC0
FFC000000000FFC0
FFC000000000FFC0
FFC000000000FFC0
FFC000000000FFC0
FFE000000001FF80
7FE000000001FF80
7FE000000001FF80
7FF000000003FF80
3FF800000007FF00
3FF800000007FF00
1FFC0000000FFE00
1FFE0000001FFE00
0FFF0000003FFC00
0FFF8000007FFC00
07FFE00001FFF800
03FFF80007FFF000
01FFFF003FFFE000
00FFFFFFFFFFC000
007FFFFFFFFF8000
003FFFFFFFFF0000
001FFFFFFFFE0000
0007FFFFFFF80000
0003FFFFFFF00000
0000FFFFFFC00000
00001FFFFE000000
000001FFF0000000
ENDCHAR
STARTCHAR 00F3
ENCODING 243
SWIDTH 810 0
DWIDTH 63 0
BBX 58 70 3 -1
BITMAP
00000003F8000000
00000003F8000000
00000007F0000000
00000007E0000000
0000000FE0000000
0000000FC0000000
0000001F80000000
0000001F00000000
0000003F00000000
0000003E00000000
0000000000000000
0000000000000000
0000000000000000
0000003E00000000
000007FFF8000000
00003FFFFF000000
0001FFFFFFE00000
0007FFFFFFF00000
000FFFFFFFFC0000
003FFFFFFFFE0000
007FFFFFFFFF8000
00FFFFFFFFFFC000
01FFFFF3FFFFE000
03FFFC000FFFF000
07FFF00003FFF000
07FFC00000FFF800
0FFF8000007FFC00
1FFF0000003FFC00
1FFC0000001FFE00
3FFC0000000FFE00
3FF800000007FF00
3FF000000003FF00
7FF000000003FF80
7FE000000001FF80
7FE000000001FF80
FFC000000001FFC0
FFC000000000FFC0
FFC000000000FFC0
FFC000000000FFC0
FFC000000000FFC0
FF8000000000FFC0
FF8000000000FFC0
FF8000000000FFC0
FFC000000000FFC0
FFC000000000FFC0
FFC000000000FFC0
FFC000000000FFC0
FFC000000000FFC0
FFE000000001FF80
7FE000000001FF80
7FE000000001FF80
7FF000000003FF80
3FF800000007FF00
3FF800000007FF00
1FFC0000000FFE00
1FFE0000001FFE00
0FFF0000003FFC00
0FFF8000007FFC00
07FFE00001FFF800
03FFF80007FFF000
01FFFF003FFFE000
00FFFFFFFFFFC000
007FFFFFFFFF8000
003FFFFFFFFF0000
001FFFFFFFFE0000
0007FFFFFFF80000
0003FFFFFFF00000
0000FFFFFFC00000
00001FFFFE000000
000001FFF0000000
ENDCHAR
STARTCHAR 00F4
ENCODING 244
SWIDTH 810 0
DWIDTH 63 0
BBX 58 70 3 -1
BITMAP
000001FFE0000000
000001FFE0000000
000003FFF0000000
000007FFF8000000
00000FF7FC000000
00000FF3FC000000
00001FE1FE000000
00003FC0FF000000
00003F807F800000
00007F807F800000
0000000000000000
0000000000000000
0000000000000000
0000003E00000000
000007FFF8000000
00003FFFFF000000
0001FFFFFFE00000
0007FFFFFFF00000
000FFFFFFFFC0000
003FFFFFFFFE0000
007FFFFFFFFF8000
00FFFFFFFFFFC000
01FFFFF3FFFFE000
03FFFC000FFFF000
07FFF00003FFF000
07FFC00000FFF800
0FFF8000007FFC00
1FFF0000003FFC00
1FFC0000001FFE00
3FFC0000000FFE00
3FF800000007FF00
3FF000000003FF00
7FF000000003FF80
7FE000000001FF80
7FE000000001FF80
FFC000000001FFC0
FFC000000000FFC0
FFC000000000FFC0
FFC000000000FFC0
FFC000000000FFC0
FF8000000000FFC0
FF8000000000FFC0
FF8000000000FFC0
FFC000000000FFC0
FFC000000000FFC0
FFC000000000FFC0
FFC000000000FFC0
FFC000000000FFC0
FFE000000001FF80
7FE000000001FF80
7FE000000001FF80
7FF000000003FF80
3FF800000007FF00
3FF800000007FF00
1FFC0000000FFE00
1FFE0000001FFE00
0FFF0000003FFC00
0FFF8000007FFC00
07FFE00001FFF800
03FFF80007FFF000
01FFFF003FFFE000
00FFFFFFFFFFC000
007FFFFFFFFF8000
003FFFFFFFFF0000
001FFFFFFFFE0000
0007FFFFFFF80000
0003FFFFFFF00000
0000FFFFFFC00000
00001FFFFE000000
000001FFF0000000
ENDCHAR
STARTCHAR 00F5
ENCODING 245
SWIDTH 810 0
DWIDTH 63 0
BBX 58 70 3 -1
BITMAP
00001FF000000000
00001FFFF8000000
00001FFFF8000000
00001FFFF8000000
00001FFFF8000000
00001FFFF8000000
0000000FF8000000
0000000000000000
0000000000000000
0000000000000000
0000000000000000
0000000000000000
0000000000000000
0000003E00000000
000007FFF8000000
00003FFFFF000000
0001FFFFFFE00000
0007FFFFFFF00000
000FFFFFFFFC0000
003FFFFFFFFE0000
007FFFFFFFFF8000
00FFFFFFFFFFC000
01FFFFF3FFFFE000
03FFFC000FFFF000
07FFF00003FFF000
07FFC00000FFF800
0FFF8000007FFC00
1FFF0000003FFC00
1FFC0000001FFE00
3FFC0000000FFE00
3FF800000007FF00
3FF000000003FF00
7FF000000003FF80
7FE000000001FF80
7FE000000001FF80
FFC000000001FFC0
FFC000000000FFC0
FFC000000000FFC0
FFC000000000FFC0
FFC000000000FFC0
FF8000000000FFC0
FF8000000000FFC0
FF8000000000FFC0
FFC000000000FFC0
FFC000000000FFC0
FFC000000000FFC0
FFC000000000FFC0
FFC000000000FFC0
FFE000000001FF80
7FE000000001FF80
7FE000000001FF80
7FF000000003FF80
3FF800000007FF00
3FF800000007FF00
1FFC0000000FFE00
1FFE0000001FFE00
0FFF0000003FFC00
0FFF8000007FFC00
07FFE00001FFF800
03FFF80007FFF000
01FFFF003FFFE000
00FFFFFFFFFFC000
007FFFFFFFFF8000
003FFFFFFFFF0000
001FFFFFFFFE0000
0007FFFFFFF80000
0003FFFFFFF00000
0000FFFFFFC00000
00001FFFFE000000
000001FFF0000000
ENDCHAR
STARTCHAR 00F6
ENCODING 246
SWIDTH 810 0
DWIDTH 63 0
BBX 58 71 3 -1
BITMAP
00007F001FC00000
0000FF803FE00000
0001FFC07FF00000
0003FFC07FF00000
0003FFE0FFF80000
0003FFE0FFF80000
0003FFE0FFF80000
0003FFC07FF80000
0001FFC07FF00000
0001FF803FF00000
0000FF001FE00000
00003E000F800000
0000000000000000
0000000000000000
0000003E00000000
000007FFF8000000
00003FFFFF000000
0001FFFFFFE00000
0007FFFFFFF00000
000FFFFFFFFC0000
003FFFFFFFFE0000
007FFFFFFFFF8000
00FFFFFFFFFFC000
01FFFFF3FFFFE000
03FFFC000FFFF000
07FFF00003FFF000
07FFC00000FFF800
0FFF8000007FFC00
1FFF0000003FFC00
1FFC0000001FFE00
3FFC0000000FFE00
3FF800000007FF00
3FF000000003FF00
7FF000000003FF80
7FE000000001FF80
7FE000000001FF80
FFC000000001FFC0
FFC000000000FFC0
FFC000000000FFC0
FFC000000000FFC0
FFC000000000FFC0
FF8000000000FFC0
FF8000000000FFC0
FF8000000000FFC0
FFC000000000FFC0
FFC000000000FFC0
FFC000000000FFC0
FFC000000000FFC0
FFC000000000FFC0
FFE000000001FF80
7FE000000001FF80
7FE000000001FF80
7FF000000003FF80
3FF800000007FF00
3FF800000007FF00
1FFC0000000FFE00
1FFE0000001FFE00
0FFF0000003FFC00
0FFF8000007FFC00
07FFE00001FFF800
03FFF80007FFF000
01FFFF003FFFE000
00FFFFFFFFFFC000
007FFFFFFFFF8000
003FFFFFFFFF0000
001FFFFFFFFE0000
0007FFFFFFF80000
0003FFFFFFF00000
0000FFFFFFC00000
00001FFFFE000000
000001FFF0000000
ENDCHAR
STARTCHAR 00F7
ENCODING 247
SWIDTH 565 0
DWIDTH 44 0
BBX 36 36 4 7
BITMAP
0001F80000
0003FE0000
0007FE0000
0007FF0000
0007FF0000
0007FF0000
0007FE0000
0003FE0000
0003FC0000
0000F80000
0000000000
0000000000
0000000000
0000000000
FFFFFFFFF0
FFFFFFFFF0
FFFFFFFFF0
FFFFFFFFF0
FFFFFFFFF0
FFFFFFFFF0
FFFFFFFFF0
FFFFFFFFF0
0000000000
0000000000
0000000000
0000000000
0000F80000
0003FC0000
0003FE0000
0007FE0000
0007FF0000
0007FF0000
0007FF0000
0007FE0000
0003FE0000
0001F80000
ENDCHAR
STARTCHAR 00F8
ENCODING 248
SWIDTH 797 0
DWIDTH 62 0
BBX 58 60 2 -2
BITMAP
0000000000003000
0000001F00007800
000007FFFC00FE00
00003FFFFF81FF00
0001FFFFFFE1FE00
0003FFFFFFFBFC00
000FFFFFFFFFFC00
001FFFFFFFFFF800
007FFFFFFFFFF000
00FFFFFFFFFFE000
01FFFFF1FFFFE000
03FFFE000FFFF000
03FFF00003FFF800
07FFC00001FFF800
0FFF800003FFFC00
0FFF000007FFFE00
1FFE00000FFFFE00
1FFC00001FF7FF00
3FF800003FE7FF00
3FF000007FC3FF80
7FF000007F83FF80
7FE00000FF81FF80
7FE00001FF01FFC0
7FE00003FE00FFC0
FFC00007FC00FFC0
FFC0000FF800FFC0
FFC0001FF000FFC0
FFC0001FE0007FC0
FFC0003FC0007FC0
FFC0007FC0007FC0
FFC000FF80007FC0
FFC001FF00007FC0
FFC003FE00007FC0
FFC007FC0000FFC0
FFC00FF80000FFC0
FFC00FF00000FFC0
7FE01FF00000FFC0
7FE03FE00001FF80
7FF07FC00001FF80
3FF0FF800003FF80
3FF9FF000003FF00
3FFBFE000007FF00
1FFFFC00000FFE00
1FFFF800001FFE00
0FFFF800003FFC00
07FFF000007FFC00
07FFE00001FFF800
03FFF80007FFF000
01FFFF003FFFE000
01FFFFFFFFFFC000
01FFFFFFFFFF8000
03FFFFFFFFFF0000
07FFFFFFFFFE0000
0FFFFFFFFFFC0000
1FF3FFFFFFF00000
3FE0FFFFFFC00000
1FC01FFFFE000000
0F8001FFE0000000
0700000000000000
0300000000000000
ENDCHAR
STARTCHAR 00F9
ENCODING 249
SWIDTH 527 0
DWIDTH 41 0
BBX 35 70 3 -1
BITMAP
007F800000
003F800000
001FC00000
001FC00000
000FE00000
0007E00000
0003F00000
0003F00000
0001F80000
0000F80000
0000000000
0000000000
0000000000
0000000000
0000000000
FFC0007FE0
FFC0007FE0
FFC0007FE0
FFC0007FE0
FFC0007FE0
FFC0007FE0
FFC0007FE0
FFC0007FE0
FFC0007FE0
FFC0007FE0
FFC0007FE0
FFC0007FE0
FFC0007FE0
FFC0007FE0
FFC0007FE0
FFC0007FE0
FFC0007FE0
FFC0007FE0
FFC0007FE0
FFC0007FE0
FFC0007FE0
FFC0007FE0
FFC0007FE0
FFC0007FE0
FFC0007FE0
FFC0007FE0
FFC0007FE0
FFC0007FE0
FFC0007FE0
FFC0007FE0
FFC0007FE0
FFC0007FE0
FFC0007FE0
FFC0007FE0
FFC0007FE0
FFC0007FE0
FFC0007FE0
7FC0007FE0
7FC0007FE0
7FC0007FC0
7FE000FFC0
7FE000FFC0
7FE000FFC0
3FF001FFC0
3FF803FF80
3FFE0FFF80
1FFFFFFF00
1FFFFFFF00
0FFFFFFE00
07FFFFFC00
03FFFFF800
01FFFFF000
00FFFFE000
003FFF8000
0007FE0000
ENDCHAR
STARTCHAR 00FA
ENCODING 250
SWIDTH 527 0
DWIDTH 41 0
BBX 35 70 3 -1
BITMAP
00001FC000
00003F8000
00003F8000
00007F0000
00007E0000
0000FC0000
0000FC0000
0001F80000
0001F00000
0003E00000
0000000000
0000000000
0000000000
0000000000
0000000000
FFC0007FE0
FFC0007FE0
FFC0007FE0
FFC0007FE0
FFC0007FE0
FFC0007FE0
FFC0007FE0
FFC0007FE0
FFC0007FE0
FFC0007FE0
FFC0007FE0
FFC0007FE0
FFC0007FE0
FFC0007FE0
FFC0007FE0
FFC0007FE0
FFC0007FE0
FFC0007FE0
FFC0007FE0
FFC0007FE0
FFC0007FE0
FFC0007FE0
FFC0007FE0
FFC0007FE0
FFC0007FE0
FFC0007FE0
FFC0007FE0
FFC0007FE0
FFC0007FE0
FFC0007FE0
FFC0007FE0
FFC0007FE0
FFC0007FE0
FFC0007FE0
FFC0007FE0
FFC0007FE0
FFC0007FE0
7FC0007FE0
7FC0007FE0
7FC0007FC0
7FE000FFC0
7FE000FFC0
7FE000FFC0
3FF001FFC0
3FF803FF80
3FFE0FFF80
1FFFFFFF00
1FFFFFFF00
0FFFFFFE00
07FFFFFC00
03FFFFF800
01FFFFF000
00FFFFE000
003FFF8000
0007FE0000
ENDCHAR
STARTCHAR 00FB
ENCODING 251
SWIDTH 527 0
DWIDTH 41 0
BBX 35 70 3 -1
BITMAP
000FFE0000
001FFF0000
003FFF8000
003FFF8000
007FBFC000
00FF1FE000
00FE0FF000
01FE0FF000
03FC07F800
07F803FC00
0000000000
0000000000
0000000000
0000000000
0000000000
FFC0007FE0
FFC0007FE0
FFC0007FE0
FFC0007FE0
FFC0007FE0
FFC0007FE0
FFC0007FE0
FFC0007FE0
FFC0007FE0
FFC0007FE0
FFC0007FE0
FFC0007FE0
FFC0007FE0
FFC0007FE0
FFC0007FE0
FFC0007FE0
FFC0007FE0
FFC0007FE0
FFC0007FE0
FFC0007FE0
FFC0007FE0
FFC0007FE0
FFC0007FE0
FFC0007FE0
FFC0007FE0
FFC0007FE0
FFC0007FE0
FFC0007FE0
FFC0007FE0
FFC0007FE0
FFC0007FE0
FFC0007FE0
FFC0007FE0
FFC0007FE0
FFC0007FE0
FFC0007FE0
FFC0007FE0
7FC0007FE0
7FC0007FE0
7FC0007FC0
7FE000FFC0
7FE000FFC0
7FE000FFC0
3FF001FFC0
3FF803FF80
3FFE0FFF80
1FFFFFFF00
1FFFFFFF00
0FFFFFFE00
07FFFFFC00
03FFFFF800
01FFFFF000
00FFFFE000
003FFF8000
0007FE0000
ENDCHAR
STARTCHAR 00FC
ENCODING 252
SWIDTH 527 0
DWIDTH 41 0
BBX 35 71 3 -1
BITMAP
07F000FE00
0FFC01FF00
1FFC03FF80
1FFE07FF80
1FFE07FF80
1FFE07FF80
1FFE07FF80
1FFE07FF80
1FFE07FF80
0FFC03FF00
07F801FE00
03E0007C00
0000000000
0000000000
0000000000
0000000000
FFC0007FE0
FFC0007FE0
FFC0007FE0
FFC0007FE0
FFC0007FE0
FFC0007FE0
FFC0007FE0
FFC0007FE0
FFC0007FE0
FFC0007FE0
FFC0007FE0
FFC0007FE0
FFC0007FE0
FFC0007FE0
FFC0007FE0
FFC0007FE0
FFC0007FE0
FFC0007FE0
FFC0007FE0
FFC0007FE0
FFC0007FE0
FFC0007FE0
FFC0007FE0
FFC0007FE0
FFC0007FE0
FFC0007FE0
FFC0007FE0
FFC0007FE0
FFC0007FE0
FFC0007FE0
FFC0007FE0
FFC0007FE0
FFC0007FE0
FFC0007FE0
FFC0007FE0
FFC0007FE0
FFC0007FE0
7FC0007FE0
7FC0007FE0
7FC0007FC0
7FE000FFC0
7FE000FFC0
7FE000FFC0
3FF001FFC0
3FF803FF80
3FFE0FFF80
1FFFFFFF00
1FFFFFFF00
0FFFFFFE00
07FFFFFC00
03FFFFF800
01FFFFF000
00FFFFE000
003FFF8000
0007FE0000
ENDCHAR
STARTCHAR 00FD
ENCODING 253
SWIDTH 514 0
DWIDTH 40 0
BBX 34 69 3 0
BITMAP
00003FC000
00003F8000
00007F0000
00007E0000
0000FE0000
0000FC0000
0001F80000
0001F80000
0003F00000
0003E00000
0000000000
0000000000
0000000000
0000000000
0000000000
FFC0007FC0
FFC0007FC0
FFC0007FC0
FFC0007FC0
FFC0007FC0
FFC0007FC0
FFC0007FC0
FFC0007FC0
FFC0007FC0
FFC0007FC0
FFC0007FC0
FFC0007FC0
FFC0007FC0
FFC0007FC0
FFC0007FC0
FFC0007FC0
FFC0007FC0
FFC0007FC0
FFC0007FC0
FFC0007FC0
FFC0007FC0
FFC0007FC0
FFC0007FC0
FFC0007FC0
FFC000FFC0
FFC000FFC0
FFC000FFC0
FFC000FFC0
7FE001FFC0
7FE001FF80
7FF003FF80
3FF807FF80
3FFFFFFF00
1FFFFFFF00
1FFFFFFE00
0FFFFFFC00
07FFFFF800
03FFFFF000
01FFFFE000
007FFFC000
001FFE0000
000FFC0000
000FFC0000
000FFC0000
000FFC0000
000FFC0000
000FFC0000
000FFC0000
000FFC0000
000FFC0000
000FFC0000
000FFC0000
000FFC0000
000FFC0000
ENDCHAR
STARTCHAR 00FF
ENCODING 255
SWIDTH 514 0
DWIDTH 40 0
BBX 34 70 3 0
BITMAP
07F001FC00
0FF803FE00
1FFC07FF00
1FFC07FF80
3FFE07FF80
3FFE0FFF80
3FFE07FF80
3FFE07FF80
1FFC07FF00
1FFC03FF00
0FF801FE00
03E000F800
0000000000
0000000000
0000000000
0000000000
FFC0007FC0
FFC0007FC0
FFC0007FC0
FFC0007FC0
FFC0007FC0
FFC0007FC0
FFC0007FC0
FFC0007FC0
FFC0007FC0
FFC0007FC0
FFC0007FC0
FFC0007FC0
FFC0007FC0
FFC0007FC0
FFC0007FC0
FFC0007FC0
FFC0007FC0
FFC0007FC0
FFC0007FC0
FFC0007FC0
FFC0007FC0
FFC0007FC0
FFC0007FC0
FFC0007FC0
FFC000FFC0
FFC000FFC0
FFC000FFC0
FFC000FFC0
7FE001FFC0
7FE001FF80
7FF003FF80
3FF807FF80
3FFFFFFF00
1FFFFFFF00
1FFFFFFE00
0FFFFFFC00
07FFFFF800
03FFFFF000
01FFFFE000
007FFFC000
001FFE0000
000FFC0000
000FFC0000
000FFC0000
000FFC0000
000FFC0000
000FFC0000
000FFC0000
000FFC0000
000FFC0000
000FFC0000
000FFC0000
000FFC0000
000FFC0000
ENDCHAR
STARTCHAR 0100
ENCODING 256
SWIDTH 565 0
DWIDTH 44 0
BBX 39 68 4 0
BITMAP
03FFFFF000
03FFFFF000
03FFFFF000
03FFFFF000
03FFFFF000
03FFFFF000
03FFFFF000
0000000000
0000000000
0000000000
0000000000
0000000000
0000C00000
001FFE0000
00FFFF8000
01FFFFE000
03FFFFF000
07FFFFF800
0FFFFFFC00
1FFFFFFE00
3FFFFFFE00
3FFF3FFF00
7FF807FF00
7FF003FF80
7FE001FF80
FFE001FF80
FFC000FFC0
FFC000FFC0
FFC000FFC0
FFC000FFC0
FFC000FFC0
FFC000FFC0
FFC000FFC0
FFC000FFC0
FFC000FFC0
FFC000FFC0
FFC000FFC0
FFC000FFC0
FFC000FFC0
FFC000FFC0
FFC000FFC0
FFC000FFC0
FFC000FFC0
FFC000FFC0
FFC000FFC0
FFC000FFC0
FFC000FFC0
FFC000FFC0
FFC000FFC0
FFC000FFC0
FFC000FFC0
FFC000FFC0
FFC000FFC0
FFC000FFC0
FFC000FFC0
FFC000FFC0
FFC000FFC0
FFC000FFC0
FFC000FFC0
FFFFFFFFFE
FFFFFFFFFE
FFFFFFFFFE
FFFFFFFFFE
FFFFFFFFFE
FFFFFFFFFE
FFFFFFFFFE
FFFFFFFFFE
FFFFFFFFFE
ENDCHAR
STARTCHAR 0101
ENCODING 257
SWIDTH 565 0
DWIDTH 44 0
BBX 39 68 4 0
BITMAP
03FFFFF000
03FFFFF000
03FFFFF000
03FFFFF000
03FFFFF000
03FFFFF000
03FFFFF000
0000000000
0000000000
0000000000
0000000000
0000000000
0000C00000
001FFE0000
00FFFF8000
01FFFFE000
03FFFFF000
07FFFFF800
0FFFFFFC00
1FFFFFFE00
3FFFFFFE00
3FFF3FFF00
7FF807FF00
7FF003FF80
7FE001FF80
FFE001FF80
FFC000FFC0
FFC000FFC0
FFC000FFC0
FFC000FFC0
FFC000FFC0
FFC000FFC0
FFC000FFC0
FFC000FFC0
FFC000FFC0
FFC000FFC0
FFC000FFC0
FFC000FFC0
FFC000FFC0
FFC000FFC0
FFC000FFC0
FFC000FFC0
FFC000FFC0
FFC000FFC0
FFC000FFC0
FFC000FFC0
FFC000FFC0
FFC000FFC0
FFC000FFC0
FFC000FFC0
FFC000FFC0
FFC000FFC0
FFC000FFC0
FFC000FFC0
FFC000FFC0
FFC000FFC0
FFC000FFC0
FFC000FFC0
FFC000FFC0
FFFFFFFFFE
FFFFFFFFFE
FFFFFFFFFE
FFFFFFFFFE
FFFFFFFFFE
FFFFFFFFFE
FFFFFFFFFE
FFFFFFFFFE
FFFFFFFFFE
ENDCHAR
STARTCHAR 0102
ENCODING 258
SWIDTH 565 0
DWIDTH 44 0
BBX 39 69 4 0
BITMAP
03F003F000
03F003F000
03F807F000
01FC0FE000
01FF7FE000
00FFFFC000
007FFF8000
003FFF0000
001FFE0000
0003F00000
0000000000
0000000000
0000000000
0000C00000
001FFE0000
00FFFF8000
01FFFFE000
03FFFFF000
07FFFFF800
0FFFFFFC00
1FFFFFFE00
3FFFFFFE00
3FFF3FFF00
7FF807FF00
7FF003FF80
7FE001FF80
FFE001FF80
FFC000FFC0
FFC000FFC0
FFC000FFC0
FFC000FFC0
FFC000FFC0
FFC000FFC0
FFC000FFC0
FFC000FFC0
FFC000FFC0
FFC000FFC0
FFC000FFC0
FFC000FFC0
FFC000FFC0
FFC000FFC0
FFC000FFC0
FFC000FFC0
FFC000FFC0
FFC000FFC0
FFC000FFC0
FFC000FFC0
FFC000FFC0
FFC000FFC0
FFC000FFC0
FFC000FFC0
FFC000FFC0
FFC000FFC0
FFC000FFC0
FFC000FFC0
FFC000FFC0
FFC000FFC0
FFC000FFC0
FFC000FFC0
FFC000FFC0
FFFFFFFFFE
FFFFFFFFFE
FFFFFFFFFE
FFFFFFFFFE
FFFFFFFFFE
FFFFFFFFFE
FFFFFFFFFE
FFFFFFFFFE
FFFFFFFFFE
ENDCHAR
STARTCHAR 0103
ENCODING 259
SWIDTH 565 0
DWIDTH 44 0
BBX 39 69 4 0
BITMAP
03F003F000
03F003F000
03F807F000
01FC0FE000
01FF7FE000
00FFFFC000
007FFF8000
003FFF0000
001FFE0000
0003F00000
0000000000
0000000000
0000000000
0000C00000
001FFE0000
00FFFF8000
01FFFFE000
03FFFFF000
07FFFFF800
0FFFFFFC00
1FFFFFFE00
3FFFFFFE00
3FFF3FFF00
7FF807FF00
7FF003FF80
7FE001FF80
FFE001FF80
FFC000FFC0
FFC000FFC0
FFC000FFC0
FFC000FFC0
FFC000FFC0
FFC000FFC0
FFC000FFC0
FFC000FFC0
FFC000FFC0
FFC000FFC0
FFC000FFC0
FFC000FFC0
FFC000FFC0
FFC000FFC0
FFC000FFC0
FFC000FFC0
FFC000FFC0
FFC000FFC0
FFC000FFC0
FFC000FFC0
FFC000FFC0
FFC000FFC0
FFC000FFC0
FFC000FFC0
FFC000FFC0
FFC000FFC0
FFC000FFC0
FFC000FFC0
FFC000FFC0
FFC000FFC0
FFC000FFC0
FFC000FFC0
FFC000FFC0
FFFFFFFFFE
FFFFFFFFFE
FFFFFFFFFE
FFFFFFFFFE
FFFFFFFFFE
FFFFFFFFFE
FFFFFFFFFE
FFFFFFFFFE
FFFFFFFFFE
ENDCHAR
STARTCHAR 0104
ENCODING 260
SWIDTH 565 0
DWIDTH 44 0
BBX 42 71 4 -15
BITMAP
0000C0000000
001FFE000000
00FFFF800000
01FFFFE00000
03FFFFF00000
07FFFFF80000
0FFFFFFC0000
1FFFFFFE0000
3FFFFFFE0000
3FFF3FFF0000
7FF807FF0000
7FF003FF8000
7FE001FF8000
FFE001FF8000
FFC000FFC000
FFC000FFC000
FFC000FFC000
FFC000FFC000
FFC000FFC000
FFC000FFC000
FFC000FFC000
FFC000FFC000
FFC000FFC000
FFC000FFC000
FFC000FFC000
FFC000FFC000
FFC000FFC000
FFC000FFC000
FFC000FFC000
FFC000FFC000
FFC000FFC000
FFC000FFC000
FFC000FFC000
FFC000FFC000
FFC000FFC000
FFC000FFC000
FFC000FFC000
FFC000FFC000
FFC000FFC000
FFC000FFC000
FFC000FFC000
FFC000FFC000
FFC000FFC000
FFC000FFC000
FFC000FFC000
FFC000FFC000
FFC000FFC000
FFFFFFFFFE00
FFFFFFFFFE00
FFFFFFFFFE00
FFFFFFFFFE00
FFFFFFFFFE00
FFFFFFFFFE00
FFFFFFFFFE00
FFFFFFFFFE00
FFFFFFFFFE00
00000003F800
0000000FE000
0000001F8000
0000001F0000
0000003F0000
0000003E0000
0000003E0000
0000003E0000
0000003E0300
0000003F0780
0000003FFFC0
0000001FFFC0
0000001FFF80
0000000FFF00
00000003FC00
ENDCHAR
STARTCHAR 0105
ENCODING 261
SWIDTH 565 0
DWIDTH 44 0
BBX 42 71 4 -15
BITMAP
0000C0000000
001FFE000000
00FFFF800000
01FFFFE00000
03FFFFF00000
07FFFFF80000
0FFFFFFC0000
1FFFFFFE0000
3FFFFFFE0000
3FFF3FFF0000
7FF807FF0000
7FF003FF8000
7FE001FF8000
FFE001FF8000
FFC000FFC000
FFC000FFC000
FFC000FFC000
FFC000FFC000
FFC000FFC000
FFC000FFC000
FFC000FFC000
FFC000FFC000
FFC000FFC000
FFC000FFC000
FFC000FFC000
FFC000FFC000
FFC000FFC000
FFC000FFC000
FFC000FFC000
FFC000FFC000
FFC000FFC000
FFC000FFC000
FFC000FFC000
FFC000FFC000
FFC000FFC000
FFC000FFC000
FFC000FFC000
FFC000FFC000
FFC000FFC000
FFC000FFC000
FFC000FFC000
FFC000FFC000
FFC000FFC000
FFC000FFC000
FFC000FFC000
FFC000FFC000
FFC000FFC000
FFFFFFFFFE00
FFFFFFFFFE00
FFFFFFFFFE00
FFFFFFFFFE00
FFFFFFFFFE00
FFFFFFFFFE00
FFFFFFFFFE00
FFFFFFFFFE00
FFFFFFFFFE00
00000003F800
0000000FE000
0000001F8000
0000001F0000
0000003F0000
0000003E0000
0000003E0000
0000003E0000
0000003E0300
0000003F0780
0000003FFFC0
0000001FFFC0
0000001FFF80
0000000FFF00
00000003FC00
ENDCHAR
STARTCHAR 0106
ENCODING 262
SWIDTH 681 0
DWIDTH 53 0
BBX 49 70 3 -1
BITMAP
00000007F80000
00000007F00000
0000000FE00000
0000000FE00000
0000001FC00000
0000001F800000
0000003F000000
0000003F000000
0000007E000000
0000007C000000
00000000000000
00000000000000
00000000000000
0000003E000000
00000FFFF80000
00007FFFFF0000
0001FFFFFFC000
0007FFFFFFF000
000FFFFFFFF800
003FFFFFFFFC00
007FFFFFFFFE00
00FFFFFFFFFF00
01FFFFF3FFFF80
03FFFC001FFF00
07FFF00007FE00
07FFC00001FC00
0FFF800000F800
1FFE0000007000
1FFC0000002000
3FFC0000000000
3FF80000000000
3FF00000000000
7FF00000000000
7FE00000000000
7FE00000000000
FFC00000000000
FFC00000000000
FFC00000000000
FFC00000000000
FFC00000000000
FF800000000000
FF800000000000
FF800000000000
FFC00000000000
FFC00000000000
FFC00000000000
FFC00000000000
FFC00000000000
FFE00000000000
7FE00000000000
7FE00000000000
7FF00000000000
3FF00000000000
3FF80000000000
1FFC0000000000
1FFE0000003000
0FFF0000007800
0FFF800001FC00
07FFE00003FE00
03FFF8000FFF00
01FFFF007FFF80
00FFFFFFFFFF80
007FFFFFFFFF00
003FFFFFFFFE00
001FFFFFFFFC00
000FFFFFFFF000
0003FFFFFFE000
0000FFFFFF8000
00001FFFFE0000
000003FFE00000
ENDCHAR
STARTCHAR 0107
ENCODING 263
SWIDTH 681 0
DWIDTH 53 0
BBX 49 70 3 -1
BITMAP
00000007F80000
00000007F00000
0000000FE00000
0000000FE00000
0000001FC00000
0000001F800000
0000003F000000
0000003F000000
0000007E000000
0000007C000000
00000000000000
00000000000000
00000000000000
0000003E000000
00000FFFF80000
00007FFFFF0000
0001FFFFFFC000
0007FFFFFFF000
000FFFFFFFF800
003FFFFFFFFC00
007FFFFFFFFE00
00FFFFFFFFFF00
01FFFFF3FFFF80
03FFFC001FFF00
07FFF00007FE00
07FFC00001FC00
0FFF800000F800
1FFE0000007000
1FFC0000002000
3FFC0000000000
3FF80000000000
3FF00000000000
7FF00000000000
7FE00000000000
7FE00000000000
FFC00000000000
FFC00000000000
FFC00000000000
FFC00000000000
FFC00000000000
FF800000000000
FF800000000000
FF800000000000
FFC00000000000
FFC00000000000
FFC00000000000
FFC00000000000
FFC00000000000
FFE00000000000
7FE00000000000
7FE00000000000
7FF00000000000
3FF00000000000
3FF80000000000
1FFC0000000000
1FFE0000003000
0FFF0000007800
0FFF800001FC00
07FFE00003FE00
03FFF8000FFF00
01FFFF007FFF80
00FFFFFFFFFF80
007FFFFFFFFF00
003FFFFFFFFE00
001FFFFFFFFC00
000FFFFFFFF000
0003FFFFFFE000
0000FFFFFF8000
00001FFFFE0000
000003FFE00000
ENDCHAR
STARTCHAR 010A
ENCODING 266
SWIDTH 681 0
DWIDTH 53 0
BBX 49 73 3 -1
BITMAP
0000003E000000
0000007F800000
000000FFC00000
000001FFC00000
000001FFE00000
000001FFE00000
000001FFE00000
000001FFE00000
000001FFE00000
000001FFC00000
000000FF800000
0000003F000000
00000000000000
00000000000000
00000000000000
00000000000000
0000003E000000
00000FFFF80000
00007FFFFF0000
0001FFFFFFC000
0007FFFFFFF000
000FFFFFFFF800
003FFFFFFFFC00
007FFFFFFFFE00
00FFFFFFFFFF00
01FFFFF3FFFF80
03FFFC001FFF00
07FFF00007FE00
07FFC00001FC00
0FFF800000F800
1FFE0000007000
1FFC0000002000
3FFC0000000000
3FF80000000000
3FF00000000000
7FF00000000000
7FE00000000000
7FE00000000000
FFC00000000000
FFC00000000000
FFC00000000000
FFC00000000000
FFC00000000000
FF800000000000
FF800000000000
FF800000000000
FFC00000000000
FFC00000000000
FFC00000000000
FFC00000000000
FFC00000000000
FFE00000000000
7FE00000000000
7FE00000000000
7FF00000000000
3FF00000000000
3FF80000000000
1FFC0000000000
1FFE0000003000
0FFF0000007800
0FFF800001FC00
07FFE00003FE00
03FFF8000FFF00
01FFFF007FFF80
00FFFFFFFFFF80
007FFFFFFFFF00
003FFFFFFFFE00
001FFFFFFFFC00
000FFFFFFFF000
0003FFFFFFE000
0000FFFFFF8000
00001FFFFE0000
000003FFE00000
ENDCHAR
STARTCHAR 010B
ENCODING 267
SWIDTH 681 0
DWIDTH 53 0
BBX 49 73 3 -1
BITMAP
0000003E000000
0000007F800000
000000FFC00000
000001FFC00000
000001FFE00000
000001FFE00000
000001FFE00000
000001FFE00000
000001FFE00000
000001FFC00000
000000FF800000
0000003F000000
00000000000000
00000000000000
00000000000000
00000000000000
0000003E000000
00000FFFF80000
00007FFFFF0000
0001FFFFFFC000
0007FFFFFFF000
000FFFFFFFF800
003FFFFFFFFC00
007FFFFFFFFE00
00FFFFFFFFFF00
01FFFFF3FFFF80
03FFFC001FFF00
07FFF00007FE00
07FFC00001FC00
0FFF800000F800
1FFE0000007000
1FFC0000002000
3FFC0000000000
3FF80000000000
3FF00000000000
7FF00000000000
7FE00000000000
7FE00000000000
FFC00000000000
FFC00000000000
FFC00000000000
FFC00000000000
FFC00000000000
FF800000000000
FF800000000000
FF800000000000
FFC00000000000
FFC00000000000
FFC00000000000
FFC00000000000
FFC00000000000
FFE00000000000
7FE00000000000
7FE00000000000
7FF00000000000
3FF00000000000
3FF80000000000
1FFC0000000000
1FFE0000003000
0FFF0000007800
0FFF800001FC00
07FFE00003FE00
03FFF8000FFF00
01FFFF007FFF80
00FFFFFFFFFF80
007FFFFFFFFF00
003FFFFFFFFE00
001FFFFFFFFC00
000FFFFFFFF000
0003FFFFFFE000
0000FFFFFF8000
00001FFFFE0000
000003FFE00000
ENDCHAR
STARTCHAR 010C
ENCODING 268
SWIDTH 681 0
DWIDTH 53 0
BBX 49 71 3 -1
BITMAP
0000FF007F0000
00007F80FF0000
00003FC1FE0000
00001FE3FC0000
00001FE3F80000
00000FF7F80000
000007FFF00000
000003FFE00000
000003FFE00000
000001FFC00000
00000000000000
00000000000000
00000000000000
00000000000000
0000003E000000
00000FFFF80000
00007FFFFF0000
0001FFFFFFC000
0007FFFFFFF000
000FFFFFFFF800
003FFFFFFFFC00
007FFFFFFFFE00
00FFFFFFFFFF00
01FFFFF3FFFF80
03FFFC001FFF00
07FFF00007FE00
07FFC00001FC00
0FFF800000F800
1FFE0000007000
1FFC0000002000
3FFC0000000000
3FF80000000000
3FF00000000000
7FF00000000000
7FE00000000000
7FE00000000000
FFC00000000000
FFC00000000000
FFC00000000000
FFC00000000000
FFC00000000000
FF800000000000
FF800000000000
FF800000000000
FFC00000000000
FFC00000000000
FFC00000000000
FFC00000000000
FFC00000000000
FFE00000000000
7FE00000000000
7FE00000000000
7FF00000000000
3FF00000000000
3FF80000000000
1FFC0000000000
1FFE0000003000
0FFF0000007800
0FFF800001FC00
07FFE00003FE00
03FFF8000FFF00
01FFFF007FFF80
00FFFFFFFFFF80
007FFFFFFFFF00
003FFFFFFFFE00
001FFFFFFFFC00
000FFFFFFFF000
0003FFFFFFE000
0000FFFFFF8000
00001FFFFE0000
000003FFE00000
ENDCHAR
STARTCHAR 010D
ENCODING 269
SWIDTH 681 0
DWIDTH 53 0
BBX 49 71 3 -1
BITMAP
0000FF007F0000
00007F80FF0000
00003FC1FE0000
00001FE3FC0000
00001FE3F80000
00000FF7F80000
000007FFF00000
000003FFE00000
000003FFE00000
000001FFC00000
00000000000000
00000000000000
00000000000000
00000000000000
0000003E000000
00000FFFF80000
00007FFFFF0000
0001FFFFFFC000
0007FFFFFFF000
000FFFFFFFF800
003FFFFFFFFC00
007FFFFFFFFE00
00FFFFFFFFFF00
01FFFFF3FFFF80
03FFFC001FFF00
07FFF00007FE00
07FFC00001FC00
0FFF800000F800
1FFE0000007000
1FFC0000002000
3FFC0000000000
3FF80000000000
3FF00000000000
7FF00000000000
7FE00000000000
7FE00000000000
FFC00000000000
FFC00000000000
FFC00000000000
FFC00000000000
FFC00000000000
FF800000000000
FF800000000000
FF800000000000
FFC00000000000
FFC00000000000
FFC00000000000
FFC00000000000
FFC00000000000
FFE00000000000
7FE00000000000
7FE00000000000
7FF00000000000
3FF00000000000
3FF80000000000
1FFC0000000000
1FFE0000003000
0FFF0000007800
0FFF800001FC00
07FFE00003FE00
03FFF8000FFF00
01FFFF007FFF80
00FFFFFFFFFF80
007FFFFFFFFF00
003FFFFFFFFE00
001FFFFFFFFC00
000FFFFFFFF000
0003FFFFFFE000
0000FFFFFF8000
00001FFFFE0000
000003FFE00000
ENDCHAR
STARTCHAR 010E
ENCODING 270
SWIDTH 668 0
DWIDTH 52 0
BBX 46 70 4 0
BITMAP
03FC03FC0000
01FE07F80000
00FE07F00000
00FF0FF00000
007F9FE00000
003FFFC00000
003FFFC00000
001FFF800000
000FFF000000
0007FE000000
000000000000
000000000000
000000000000
000000000000
000000000000
000000000000
FFFFFF800000
FFFFFFF80000
FFFFFFFE0000
FFFFFFFF8000
FFFFFFFFE000
FFFFFFFFF000
FFFFFFFFF800
FFFFFFFFFC00
FFFFFFFFFE00
FFC001FFFF00
FFC0003FFF80
FFC0000FFF80
FFC00003FFC0
FFC00001FFE0
FFC00000FFE0
FFC000007FF0
FFC000007FF0
FFC000003FF0
FFC000003FF8
FFC000001FF8
FFC000001FF8
FFC000001FF8
FFC000001FF8
FFC000000FF8
FFC000000FFC
FFC000000FFC
FFC000000FFC
FFC000000FFC
FFC000000FFC
FFC000000FF8
FFC000000FF8
FFC000001FF8
FFC000001FF8
FFC000001FF8
FFC000003FF8
FFC000003FF0
FFC000003FF0
FFC000007FF0
FFC00000FFE0
FFC00001FFE0
FFC00003FFC0
FFC00007FFC0
FFC0001FFF80
FFC0007FFF80
FFC007FFFF00
FFFFFFFFFE00
FFFFFFFFFC00
FFFFFFFFF800
FFFFFFFFF000
FFFFFFFFC000
FFFFFFFF0000
FFFFFFFC0000
FFFFFFE00000
FFFFFE000000
ENDCHAR
STARTCHAR 010F
ENCODING 271
SWIDTH 668 0
DWIDTH 52 0
BBX 46 70 4 0
BITMAP
03FC03FC0000
01FE07F80000
00FE07F00000
00FF0FF00000
007F9FE00000
003FFFC00000
003FFFC00000
001FFF800000
000FFF000000
0007FE000000
000000000000
000000000000
000000000000
000000000000
000000000000
000000000000
FFFFFF800000
FFFFFFF80000
FFFFFFFE0000
FFFFFFFF8000
FFFFFFFFE000
FFFFFFFFF000
FFFFFFFFF800
FFFFFFFFFC00
FFFFFFFFFE00
FFC001FFFF00
FFC0003FFF80
FFC0000FFF80
FFC00003FFC0
FFC00001FFE0
FFC00000FFE0
FFC000007FF0
FFC000007FF0
FFC000003FF0
FFC000003FF8
FFC000001FF8
FFC000001FF8
FFC000001FF8
FFC000001FF8
FFC000000FF8
FFC000000FFC
FFC000000FFC
FFC000000FFC
FFC000000FFC
FFC000000FFC
FFC000000FF8
FFC000000FF8
FFC000001FF8
FFC000001FF8
FFC000001FF8
FFC000003FF8
FFC000003FF0
FFC000003FF0
FFC000007FF0
FFC00000FFE0
FFC00001FFE0
FFC00003FFC0
FFC00007FFC0
FFC0001FFF80
FFC0007FFF80
FFC007FFFF00
FFFFFFFFFE00
FFFFFFFFFC00
FFFFFFFFF800
FFFFFFFFF000
FFFFFFFFC000
FFFFFFFF0000
FFFFFFFC0000
FFFFFFE00000
FFFFFE000000
ENDCHAR
STARTCHAR 0110
ENCODING 272
SWIDTH 694 0
DWIDTH 54 0
BBX 50 54 2 0
BITMAP
07FFFFFC000000
07FFFFFF800000
07FFFFFFE00000
07FFFFFFF80000
07FFFFFFFE0000
07FFFFFFFF0000
07FFFFFFFFC000
07FFFFFFFFE000
07FFFFFFFFF000
07FC001FFFF000
07FC0003FFF800
07FC0000FFFC00
07FC00003FFC00
07FC00001FFE00
07FC00000FFE00
07FC000007FF00
07FC000003FF00
07FC000003FF80
07FC000001FF80
07FC000001FF80
07FC000001FF80
07FC000000FFC0
FFFFFFE000FFC0
FFFFFFE000FFC0
FFFFFFE000FFC0
FFFFFFE000FFC0
FFFFFFE000FFC0
FFFFFFE000FFC0
FFFFFFE000FFC0
FFFFFFE000FFC0
FFFFFFE000FFC0
07FC000000FFC0
07FC000001FF80
07FC000001FF80
07FC000001FF80
07FC000003FF80
07FC000003FF00
07FC000007FF00
07FC00000FFF00
07FC00000FFE00
07FC00003FFE00
07FC00007FFC00
07FC0001FFFC00
07FC0007FFF800
07FC007FFFF000
07FFFFFFFFE000
07FFFFFFFFC000
07FFFFFFFF8000
07FFFFFFFF0000
07FFFFFFFC0000
07FFFFFFF80000
07FFFFFFE00000
07FFFFFF000000
07FFFFF0000000
ENDCHAR
STARTCHAR 0111
ENCODING 273
SWIDTH 694 0
DWIDTH 54 0
BBX 50 54 2 0
BITMAP
07FFFFFC000000
07FFFFFF800000
07FFFFFFE00000
07FFFFFFF80000
07FFFFFFFE0000
07FFFFFFFF0000
07FFFFFFFFC000
07FFFFFFFFE000
07FFFFFFFFF000
07FC001FFFF000
07FC0003FFF800
07FC0000FFFC00
07FC00003FFC00
07FC00001FFE00
07FC00000FFE00
07FC000007FF00
07FC000003FF00
07FC000003FF80
07FC000001FF80
07FC000001FF80
07FC000001FF80
07FC000000FFC0
FFFFFFE000FFC0
FFFFFFE000FFC0
FFFFFFE000FFC0
FFFFFFE000FFC0
FFFFFFE000FFC0
FFFFFFE000FFC0
FFFFFFE000FFC0
FFFFFFE000FFC0
FFFFFFE000FFC0
07FC000000FFC0
07FC000001FF80
07FC000001FF80
07FC000001FF80
07FC000003FF80
07FC000003FF00
07FC000007FF00
07FC00000FFF00
07FC00000FFE00
07FC00003FFE00
07FC00007FFC00
07FC0001FFFC00
07FC0007FFF800
07FC007FFFF000
07FFFFFFFFE000
07FFFFFFFFC000
07FFFFFFFF8000
07FFFFFFFF0000
07FFFFFFFC0000
07FFFFFFF80000
07FFFFFFE00000
07FFFFFF000000
07FFFFF0000000
ENDCHAR
STARTCHAR 0112
ENCODING 274
SWIDTH 501 0
DWIDTH 39 0
BBX 37 68 2 0
BITMAP
07FFFFE000
07FFFFE000
07FFFFE000
07FFFFE000
07FFFFE000
07FFFFE000
07FFFFE000
0000000000
0000000000
0000000000
0000000000
0000000000
0000000000
0000000000
07FFFFF000
07FFFFF000
07FFFFF000
07FFFFF000
07FFFFF000
07FFFFF000
07FFFFF000
07FFFFF000
07FFFFF000
07FE000000
07FE000000
07FE000000
07FE000000
07FE000000
07FE000000
07FE000000
07FE000000
07FE000000
07FE000000
07FE000000
07FE000000
07FE000000
FFFFFFFE00
FFFFFFFE00
FFFFFFFE00
FFFFFFFE00
FFFFFFFE00
FFFFFFFE00
FFFFFFFE00
FFFFFFFE00
FFFFFFFE00
07FE000000
07FE000000
07FE000000
07FE000000
07FE000000
07FE000000
07FE000000
07FE000000
07FE000000
07FE000000
07FE000000
07FE000000
07FE000000
07FE000000
07FFFFFFF8
07FFFFFFF8
07FFFFFFF8
07FFFFFFF8
07FFFFFFF8
07FFFFFFF8
07FFFFFFF8
07FFFFFFF8
07FFFFFFF8
ENDCHAR
STARTCHAR 0113
ENCODING 275
SWIDTH 501 0
DWIDTH 39 0
BBX 37 68 2 0
BITMAP
07FFFFE000
07FFFFE000
07FFFFE000
07FFFFE000
07FFFFE000
07FFFFE000
07FFFFE000
0000000000
0000000000
0000000000
0000000000
0000000000
0000000000
0000000000
07FFFFF000
07FFFFF000
07FFFFF000
07FFFFF000
07FFFFF000
07FFFFF000
07FFFFF000
07FFFFF000
07FFFFF000
07FE000000
07FE000000
07FE000000
07FE000000
07FE000000
07FE000000
07FE000000
07FE000000
07FE000000
07FE000000
07FE000000
07FE000000
07FE000000
FFFFFFFE00
FFFFFFFE00
FFFFFFFE00
FFFFFFFE00
FFFFFFFE00
FFFFFFFE00
FFFFFFFE00
FFFFFFFE00
FFFFFFFE00
07FE000000
07FE000000
07FE000000
07FE000000
07FE000000
07FE000000
07FE000000
07FE000000
07FE000000
07FE000000
07FE000000
07FE000000
07FE000000
07FE000000
07FFFFFFF8
07FFFFFFF8
07FFFFFFF8
07FFFFFFF8
07FFFFFFF8
07FFFFFFF8
07FFFFFFF8
07FFFFFFF8
07FFFFFFF8
ENDCHAR
STARTCHAR 0116
ENCODING 278
SWIDTH 501 0
DWIDTH 39 0
BBX 37 72 2 0
BITMAP
0003E00000
0007F80000
000FFC0000
001FFE0000
001FFE0000
001FFE0000
001FFE0000
001FFE0000
001FFE0000
001FFC0000
000FF80000
0003F00000
0000000000
0000000000
0000000000
0000000000
0000000000
0000000000
07FFFFF000
07FFFFF000
07FFFFF000
07FFFFF000
07FFFFF000
07FFFFF000
07FFFFF000
07FFFFF000
07FFFFF000
07FE000000
07FE000000
07FE000000
07FE000000
07FE000000
07FE000000
07FE000000
07FE000000
07FE000000
07FE000000
07FE000000
07FE000000
07FE000000
FFFFFFFE00
FFFFFFFE00
FFFFFFFE00
FFFFFFFE00
FFFFFFFE00
FFFFFFFE00
FFFFFFFE00
FFFFFFFE00
FFFFFFFE00
07FE000000
07FE000000
07FE000000
07FE000000
07FE000000
07FE000000
07FE000000
07FE000000
07FE000000
07FE000000
07FE000000
07FE000000
07FE000000
07FE000000
07FFFFFFF8
07FFFFFFF8
07FFFFFFF8
07FFFFFFF8
07FFFFFFF8
07FFFFFFF8
07FFFFFFF8
07FFFFFFF8
07FFFFFFF8
ENDCHAR
STARTCHAR 0117
ENCODING 279
SWIDTH 501 0
DWIDTH 39 0
BBX 37 72 2 0
BITMAP
0003E00000
0007F80000
000FFC0000
001FFE0000
001FFE0000
001FFE0000
001FFE0000
001FFE0000
001FFE0000
001FFC0000
000FF80000
0003F00000
0000000000
0000000000
0000000000
0000000000
0000000000
0000000000
07FFFFF000
07FFFFF000
07FFFFF000
07FFFFF000
07FFFFF000
07FFFFF000
07FFFFF000
07FFFFF000
07FFFFF000
07FE000000
07FE000000
07FE000000
07FE000000
07FE000000
07FE000000
07FE000000
07FE000000
07FE000000
07FE000000
07FE000000
07FE000000
07FE000000
FFFFFFFE00
FFFFFFFE00
FFFFFFFE00
FFFFFFFE00
FFFFFFFE00
FFFFFFFE00
FFFFFFFE00
FFFFFFFE00
FFFFFFFE00
07FE000000
07FE000000
07FE000000
07FE000000
07FE000000
07FE000000
07FE000000
07FE000000
07FE000000
07FE000000
07FE000000
07FE000000
07FE000000
07FE000000
07FFFFFFF8
07FFFFFFF8
07FFFFFFF8
07FFFFFFF8
07FFFFFFF8
07FFFFFFF8
07FFFFFFF8
07FFFFFFF8
07FFFFFFF8
ENDCHAR
STARTCHAR 0118
ENCODING 280
SWIDTH 501 0
DWIDTH 39 0
BBX 41 69 2 -15
BITMAP
07FFFFF00000
07FFFFF00000
07FFFFF00000
07FFFFF00000
07FFFFF00000
07FFFFF00000
07FFFFF00000
07FFFFF00000
07FFFFF00000
07FE00000000
07FE00000000
07FE00000000
07FE00000000
07FE00000000
07FE00000000
07FE00000000
07FE00000000
07FE00000000
07FE00000000
07FE00000000
07FE00000000
07FE00000000
FFFFFFFE0000
FFFFFFFE0000
FFFFFFFE0000
FFFFFFFE0000
FFFFFFFE0000
FFFFFFFE0000
FFFFFFFE0000
FFFFFFFE0000
FFFFFFFE0000
07FE00000000
07FE00000000
07FE00000000
07FE00000000
07FE00000000
07FE00000000
07FE00000000
07FE00000000
07FE00000000
07FE00000000
07FE00000000
07FE00000000
07FE00000000
07FE00000000
07FFFFFFF800
07FFFFFFF800
07FFFFFFF800
07FFFFFFF800
07FFFFFFF800
07FFFFFFF800
07FFFFFFF800
07FFFFFFF800
07FFFFFFF800
0000000FE000
0000001F8000
0000003F0000
0000007E0000
000000FC0000
000000F80000
000000F80000
000000F80000
000000F80C00
000000FC1E00
000000FFFF00
0000007FFF80
0000007FFF00
0000001FFC00
0000000FF800
ENDCHAR
STARTCHAR 0119
ENCODING 281
SWIDTH 501 0
DWIDTH 39 0
BBX 41 69 2 -15
BITMAP
07FFFFF00000
07FFFFF00000
07FFFFF00000
07FFFFF00000
07FFFFF00000
07FFFFF00000
07FFFFF00000
07FFFFF00000
07FFFFF00000
07FE00000000
07FE00000000
07FE00000000
07FE00000000
07FE00000000
07FE00000000
07FE00000000
07FE00000000
07FE00000000
07FE00000000
07FE00000000
07FE00000000
07FE00000000
FFFFFFFE0000
FFFFFFFE0000
FFFFFFFE0000
FFFFFFFE0000
FFFFFFFE0000
FFFFFFFE0000
FFFFFFFE0000
FFFFFFFE0000
FFFFFFFE0000
07FE00000000
07FE00000000
07FE00000000
07FE00000000
07FE00000000
07FE00000000
07FE00000000
07FE00000000
07FE00000000
07FE00000000
07FE00000000
07FE00000000
07FE00000000
07FE00000000
07FFFFFFF800
07FFFFFFF800
07FFFFFFF800
07FFFFFFF800
07FFFFFFF800
07FFFFFFF800
07FFFFFFF800
07FFFFFFF800
07FFFFFFF800
0000000FE000
0000001F8000
0000003F0000
0000007E0000
000000FC0000
000000F80000
000000F80000
000000F80000
000000F80C00
000000FC1E00
000000FFFF00
0000007FFF80
0000007FFF00
0000001FFC00
0000000FF800
ENDCHAR
STARTCHAR 011A
ENCODING 282
SWIDTH 501 0
DWIDTH 39 0
BBX 37 70 2 0
BITMAP
0FF007F000
07F80FF000
03FC1FE000
01FE3FC000
01FE3F8000
00FF7F8000
007FFF0000
003FFE0000
003FFE0000
001FFC0000
0000000000
0000000000
0000000000
0000000000
0000000000
0000000000
07FFFFF000
07FFFFF000
07FFFFF000
07FFFFF000
07FFFFF000
07FFFFF000
07FFFFF000
07FFFFF000
07FFFFF000
07FE000000
07FE000000
07FE000000
07FE000000
07FE000000
07FE000000
07FE000000
07FE000000
07FE000000
07FE000000
07FE000000
07FE000000
07FE000000
FFFFFFFE00
FFFFFFFE00
FFFFFFFE00
FFFFFFFE00
FFFFFFFE00
FFFFFFFE00
FFFFFFFE00
FFFFFFFE00
FFFFFFFE00
07FE000000
07FE000000
07FE000000
07FE000000
07FE000000
07FE000000
07FE000000
07FE000000
07FE000000
07FE000000
07FE000000
07FE000000
07FE000000
07FE000000
07FFFFFFF8
07FFFFFFF8
07FFFFFFF8
07FFFFFFF8
07FFFFFFF8
07FFFFFFF8
07FFFFFFF8
07FFFFFFF8
07FFFFFFF8
ENDCHAR
STARTCHAR 011B
ENCODING 283
SWIDTH 501 0
DWIDTH 39 0
BBX 37 70 2 0
BITMAP
0FF007F000
07F80FF000
03FC1FE000
01FE3FC000
01FE3F8000
00FF7F8000
007FFF0000
003FFE0000
003FFE0000
001FFC0000
0000000000
0000000000
0000000000
0000000000
0000000000
0000000000
07FFFFF000
07FFFFF000
07FFFFF000
07FFFFF000
07FFFFF000
07FFFFF000
07FFFFF000
07FFFFF000
07FFFFF000
07FE000000
07FE000000
07FE000000
07FE000000
07FE000000
07FE000000
07FE000000
07FE000000
07FE000000
07FE000000
07FE000000
07FE000000
07FE000000
FFFFFFFE00
FFFFFFFE00
FFFFFFFE00
FFFFFFFE00
FFFFFFFE00
FFFFFFFE00
FFFFFFFE00
FFFFFFFE00
FFFFFFFE00
07FE000000
07FE000000
07FE000000
07FE000000
07FE000000
07FE000000
07FE000000
07FE000000
07FE000000
07FE000000
07FE000000
07FE000000
07FE000000
07FE000000
07FFFFFFF8
07FFFFFFF8
07FFFFFFF8
07FFFFFFF8
07FFFFFFF8
07FFFFFFF8
07FFFFFFF8
07FFFFFFF8
07FFFFFFF8
ENDCHAR
STARTCHAR 011E
ENCODING 286
SWIDTH 822 0
DWIDTH 64 0
BBX 61 70 3 -1
BITMAP
00007E007E000000
00007F007E000000
00003F00FE000000
00003F81FE000000
00001FF7FC000000
00001FFFF8000000
00000FFFF8000000
000007FFE0000000
000001FFC0000000
0000007F00000000
0000000000000000
0000000000000000
0000000000000000
0000003E00000000
000007FFF8000000
00003FFFFF000000
0001FFFFFFC00000
0007FFFFFFF00000
000FFFFFFFF80000
003FFFFFFFFE0000
007FFFFFFFFF0000
00FFFFFFFFFF8000
01FFFFF3FFFFC000
03FFFC001FFF8000
07FFF00007FF0000
07FFC00001FE0000
0FFF800000FC0000
1FFE000000300000
1FFC000000200000
3FFC000000000000
3FF8000000000000
3FF0000000000000
7FF0000000000000
7FE0000000000000
7FE0000000000000
FFC0000000000000
FFC0000000000000
FFC0001FFFFFFFF8
FFC0001FFFFFFFF8
FFC0001FFFFFFFF8
FF80001FFFFFFFF8
FF80001FFFFFFFF8
FF80001FFFFFFFF8
FFC0001FFFFFFFF8
FFC0001FFFFFFFF8
FFC0001FFFFFFFF8
FFC000000003FF00
FFC000000003FF00
FFE000000003FF00
7FE000000007FF00
7FE000000007FF00
7FF000000007FE00
3FF00000000FFE00
3FF80000001FFE00
1FFC0000001FFC00
1FFE0000003FFC00
0FFF0000007FF800
0FFF800000FFF000
07FFE00003FFF000
03FFF8000FFFE000
01FFFF007FFFC000
00FFFFFFFFFF8000
007FFFFFFFFF0000
003FFFFFFFFE0000
001FFFFFFFFC0000
0007FFFFFFF80000
0003FFFFFFE00000
0000FFFFFF800000
00001FFFFE000000
000001FFF0000000
ENDCHAR
STARTCHAR 011F
ENCODING 287
SWIDTH 822 0
DWIDTH 64 0
BBX 61 70 3 -1
BITMAP
00007E007E000000
00007F007E000000
00003F00FE000000
00003F81FE000000
00001FF7FC000000
00001FFFF8000000
00000FFFF8000000
000007FFE0000000
000001FFC0000000
0000007F00000000
0000000000000000
0000000000000000
0000000000000000
0000003E00000000
000007FFF8000000
00003FFFFF000000
0001FFFFFFC00000
0007FFFFFFF00000
000FFFFFFFF80000
003FFFFFFFFE0000
007FFFFFFFFF0000
00FFFFFFFFFF8000
01FFFFF3FFFFC000
03FFFC001FFF8000
07FFF00007FF0000
07FFC00001FE0000
0FFF800000FC0000
1FFE000000300000
1FFC000000200000
3FFC000000000000
3FF8000000000000
3FF0000000000000
7FF0000000000000
7FE0000000000000
7FE0000000000000
FFC0000000000000
FFC0000000000000
FFC0001FFFFFFFF8
FFC0001FFFFFFFF8
FFC0001FFFFFFFF8
FF80001FFFFFFFF8
FF80001FFFFFFFF8
FF80001FFFFFFFF8
FFC0001FFFFFFFF8
FFC0001FFFFFFFF8
FFC0001FFFFFFFF8
FFC000000003FF00
FFC000000003FF00
FFE000000003FF00
7FE000000007FF00
7FE000000007FF00
7FF000000007FE00
3FF00000000FFE00
3FF80000001FFE00
1FFC0000001FFC00
1FFE0000003FFC00
0FFF0000007FF800
0FFF800000FFF000
07FFE00003FFF000
03FFF8000FFFE000
01FFFF007FFFC000
00FFFFFFFFFF8000
007FFFFFFFFF0000
003FFFFFFFFE0000
001FFFFFFFFC0000
0007FFFFFFF80000
0003FFFFFFE00000
0000FFFFFF800000
00001FFFFE000000
000001FFF0000000
ENDCHAR
STARTCHAR 0120
ENCODING 288
SWIDTH 822 0
DWIDTH 64 0
BBX 61 73 3 -1
BITMAP
0000003E00000000
0000007F80000000
000000FFC0000000
000001FFC0000000
000001FFE0000000
000003FFE0000000
000003FFE0000000
000001FFE0000000
000001FFE0000000
000001FFC0000000
000000FF80000000
0000007F00000000
0000000000000000
0000000000000000
0000000000000000
0000000000000000
0000003E00000000
000007FFF8000000
00003FFFFF000000
0001FFFFFFC00000
0007FFFFFFF00000
000FFFFFFFF80000
003FFFFFFFFE0000
007FFFFFFFFF0000
00FFFFFFFFFF8000
01FFFFF3FFFFC000
03FFFC001FFF8000
07FFF00007FF0000
07FFC00001FE0000
0FFF800000FC0000
1FFE000000300000
1FFC000000200000
3FFC000000000000
3FF8000000000000
3FF0000000000000
7FF0000000000000
7FE0000000000000
7FE0000000000000
FFC0000000000000
FFC0000000000000
FFC0001FFFFFFFF8
FFC0001FFFFFFFF8
FFC0001FFFFFFFF8
FF80001FFFFFFFF8
FF80001FFFFFFFF8
FF80001FFFFFFFF8
FFC0001FFFFFFFF8
FFC0001FFFFFFFF8
FFC0001FFFFFFFF8
FFC000000003FF00
FFC000000003FF00
FFE000000003FF00
7FE000000007FF00
7FE000000007FF00
7FF000000007FE00
3FF00000000FFE00
3FF80000001FFE00
1FFC0000001FFC00
1FFE0000003FFC00
0FFF0000007FF800
0FFF800000FFF000
07FFE00003FFF000
03FFF8000FFFE000
01FFFF007FFFC000
00FFFFFFFFFF8000
007FFFFFFFFF0000
003FFFFFFFFE0000
001FFFFFFFFC0000
0007FFFFFFF80000
0003FFFFFFE00000
0000FFFFFF800000
00001FFFFE000000
000001FFF0000000
ENDCHAR
STARTCHAR 0121
ENCODING 289
SWIDTH 822 0
DWIDTH 64 0
BBX 61 73 3 -1
BITMAP
0000003E00000000
0000007F80000000
000000FFC0000000
000001FFC0000000
000001FFE0000000
000003FFE0000000
000003FFE0000000
000001FFE0000000
000001FFE0000000
000001FFC0000000
000000FF80000000
0000007F00000000
0000000000000000
0000000000000000
0000000000000000
0000000000000000
0000003E00000000
000007FFF8000000
00003FFFFF000000
0001FFFFFFC00000
0007FFFFFFF00000
000FFFFFFFF80000
003FFFFFFFFE0000
007FFFFFFFFF0000
00FFFFFFFFFF8000
01FFFFF3FFFFC000
03FFFC001FFF8000
07FFF00007FF0000
07FFC00001FE0000
0FFF800000FC0000
1FFE000000300000
1FFC000000200000
3FFC000000000000
3FF8000000000000
3FF0000000000000
7FF0000000000000
7FE0000000000000
7FE0000000000000
FFC0000000000000
FFC0000000000000
FFC0001FFFFFFFF8
FFC0001FFFFFFFF8
FFC0001FFFFFFFF8
FF80001FFFFFFFF8
FF80001FFFFFFFF8
FF80001FFFFFFFF8
FFC0001FFFFFFFF8
FFC0001FFFFFFFF8
FFC0001FFFFFFFF8
FFC000000003FF00
FFC000000003FF00
FFE000000003FF00
7FE000000007FF00
7FE000000007FF00
7FF000000007FE00
3FF00000000FFE00
3FF80000001FFE00
1FFC0000001FFC00
1FFE0000003FFC00
0FFF0000007FF800
0FFF800000FFF000
07FFE00003FFF000
03FFF8000FFFE000
01FFFF007FFFC000
00FFFFFFFFFF8000
007FFFFFFFFF0000
003FFFFFFFFE0000
001FFFFFFFFC0000
0007FFFFFFF80000
0003FFFFFFE00000
0000FFFFFF800000
00001FFFFE000000
000001FFF0000000
ENDCHAR
STARTCHAR 0124
ENCODING 292
SWIDTH 565 0
DWIDTH 44 0
BBX 39 69 2 0
BITMAP
0000FFF000
0000FFF000
0001FFF800
0003FFFC00
0007FBFC00
0007F1FE00
000FF0FF00
001FE07F80
003FC03F80
003F803FC0
0000000000
0000000000
0000000000
0000000000
0000000000
07FE0007FE
07FE0007FE
07FE0007FE
07FE0007FE
07FE0007FE
07FE0007FE
07FE0007FE
07FE0007FE
07FE0007FE
07FE0007FE
07FE0007FE
07FE0007FE
07FE0007FE
07FE0007FE
07FE0007FE
07FE0007FE
07FE0007FE
07FE0007FE
07FE0007FE
07FE0007FE
07FE0007FE
07FE0007FE
07FE0007FE
FFFFFFFFFE
FFFFFFFFFE
FFFFFFFFFE
FFFFFFFFFE
FFFFFFFFFE
FFFFFFFFFE
FFFFFFFFFE
FFFFFFFFFE
FFFFFFFFFE
07FE0007FE
07FE0007FE
07FE0007FE
07FE0007FE
07FE0007FE
07FE0007FE
07FE0007FE
07FE0007FE
07FE0007FE
07FE0007FE
07FE0007FE
07FE0007FE
07FE0007FE
07FE0007FE
07FE0007FE
07FE0007FE
07FE0007FE
07FE0007FE
07FE0007FE
07FE0007FE
07FE0007FE
07FE0007FE
ENDCHAR
STARTCHAR 0125
ENCODING 293
SWIDTH 565 0
DWIDTH 44 0
BBX 39 69 2 0
BITMAP
0000FFF000
0000FFF000
0001FFF800
0003FFFC00
0007FBFC00
0007F1FE00
000FF0FF00
001FE07F80
003FC03F80
003F803FC0
0000000000
0000000000
0000000000
0000000000
0000000000
07FE0007FE
07FE0007FE
07FE0007FE
07FE0007FE
07FE0007FE
07FE0007FE
07FE0007FE
07FE0007FE
07FE0007FE
07FE0007FE
07FE0007FE
07FE0007FE
07FE0007FE
07FE0007FE
07FE0007FE
07FE0007FE
07FE0007FE
07FE0007FE
07FE0007FE
07FE0007FE
07FE0007FE
07FE0007FE
07FE0007FE
FFFFFFFFFE
FFFFFFFFFE
FFFFFFFFFE
FFFFFFFFFE
FFFFFFFFFE
FFFFFFFFFE
FFFFFFFFFE
FFFFFFFFFE
FFFFFFFFFE
07FE0007FE
07FE0007FE
07FE0007FE
07FE0007FE
07FE0007FE
07FE0007FE
07FE0007FE
07FE0007FE
07FE0007FE
07FE0007FE
07FE0007FE
07FE0007FE
07FE0007FE
07FE0007FE
07FE0007FE
07FE0007FE
07FE0007FE
07FE0007FE
07FE0007FE
07FE0007FE
07FE0007FE
07FE0007FE
ENDCHAR
STARTCHAR 0128
ENCODING 296
SWIDTH 231 0
DWIDTH 18 0
BBX 18 48 -1 0
BITMAP
FF8000
FFFFC0
FFFFC0
FFFFC0
FFFFC0
FFFFC0
007FC0
000000
000000
000000
000000
000000
000000
000000
000000
07FE00
07FE00
07FE00
07FE00
07FE00
07FE00
07FE00
07FE00
07FE00
07FE00
07FE00
07FE00
07FE00
07FE00
07FE00
07FE00
07FE00
07FE00
07FE00
07FE00
07FE00
07FE00
07FE00
07FE00
07FE00
07FE00
07FE00
07FE00
07FE00
07FE00
07FE00
07FE00
07FE00
ENDCHAR
STARTCHAR 0129
ENCODING 297
SWIDTH 231 0
DWIDTH 18 0
BBX 18 48 -1 0
BITMAP
FF8000
FFFFC0
FFFFC0
FFFFC0
FFFFC0
FFFFC0
007FC0
000000
000000
000000
000000
000000
000000
000000
000000
07FE00
07FE00
07FE00
07FE00
07FE00
07FE00
07FE00
07FE00
07FE00
07FE00
07FE00
07FE00
07FE00
07FE00
07FE00
07FE00
07FE00
07FE00
07FE00
07FE00
07FE00
07FE00
07FE00
07FE00
07FE00
07FE00
07FE00
07FE00
07FE00
07FE00
07FE00
07FE00
07FE00
ENDCHAR
STARTCHAR 012A
ENCODING 298
SWIDTH 231 0
DWIDTH 18 0
BBX 22 47 -2 0
BITMAP
FFFFFC
FFFFFC
FFFFFC
FFFFFC
FFFFFC
FFFFFC
FFFFFC
000000
000000
000000
000000
000000
000000
000000
03FF00
03FF00
03FF00
03FF00
03FF00
03FF00
03FF00
03FF00
03FF00
03FF00
03FF00
03FF00
03FF00
03FF00
03FF00
03FF00
03FF00
03FF00
03FF00
03FF00
03FF00
03FF00
03FF00
03FF00
03FF00
03FF00
03FF00
03FF00
03FF00
03FF00
03FF00
03FF00
03FF00
ENDCHAR
STARTCHAR 012B
ENCODING 299
SWIDTH 231 0
DWIDTH 18 0
BBX 22 47 -2 0
BITMAP
FFFFFC
FFFFFC
FFFFFC
FFFFFC
FFFFFC
FFFFFC
FFFFFC
000000
000000
000000
000000
000000
000000
000000
03FF00
03FF00
03FF00
03FF00
03FF00
03FF00
03FF00
03FF00
03FF00
03FF00
03FF00
03FF00
03FF00
03FF00
03FF00
03FF00
03FF00
03FF00
03FF00
03FF00
03FF00
03FF00
03FF00
03FF00
03FF00
03FF00
03FF00
03FF00
03FF00
03FF00
03FF00
03FF00
03FF00
ENDCHAR
STARTCHAR 012E
ENCODING 302
SWIDTH 218 0
DWIDTH 17 0
BBX 22 77 -2 -14
BITMAP
002000
003000
003000
007000
007800
00F800
00F800
1FFFC0
FFFFFC
3FFFF0
1FFFE0
0FFF80
07FF00
03FF00
07FF00
07FF00
07FF80
078F80
0F0380
0C0180
080040
000000
000000
000000
000000
000000
000000
000000
000000
03FF00
03FF00
03FF00
03FF00
03FF00
03FF00
03FF00
03FF00
03FF00
03FF00
03FF00
03FF00
03FF00
03FF00
03FF00
03FF00
03FF00
03FF00
03FF00
03FF00
03FF00
03FF00
03FF00
03FF00
03FF00
03FF00
03FF00
03FF00
03FF00
03FF00
03FF00
03FF00
03FF00
03F800
07E000
0FC000
1F8000
1F0000
3F0000
3E0000
3E0000
3F0100
3F0780
1FFFE0
1FFFE0
0FFFC0
07FF80
01FE00
ENDCHAR
STARTCHAR 012F
ENCODING 303
SWIDTH 218 0
DWIDTH 17 0
BBX 22 77 -2 -14
BITMAP
002000
003000
003000
007000
007800
00F800
00F800
1FFFC0
FFFFFC
3FFFF0
1FFFE0
0FFF80
07FF00
03FF00
07FF00
07FF00
07FF80
078F80
0F0380
0C0180
080040
000000
000000
000000
000000
000000
000000
000000
000000
03FF00
03FF00
03FF00
03FF00
03FF00
03FF00
03FF00
03FF00
03FF00
03FF00
03FF00
03FF00
03FF00
03FF00
03FF00
03FF00
03FF00
03FF00
03FF00
03FF00
03FF00
03FF00
03FF00
03FF00
03FF00
03FF00
03FF00
03FF00
03FF00
03FF00
03FF00
03FF00
03FF00
03F800
07E000
0FC000
1F8000
1F0000
3F0000
3E0000
3E0000
3F0100
3F0780
1FFFE0
1FFFE0
0FFFC0
07FF80
01FE00
ENDCHAR
STARTCHAR 0130
ENCODING 304
SWIDTH 231 0
DWIDTH 18 0
BBX 13 51 3 0
BITMAP
0F80
3FE0
7FF0
7FF0
FFF8
FFF8
FFF8
FFF8
7FF0
7FF0
3FE0
1FC0
0000
0000
0000
0000
0000
0000
7FE0
7FE0
7FE0
7FE0
7FE0
7FE0
7FE0
7FE0
7FE0
7FE0
7FE0
7FE0
7FE0
7FE0
7FE0
7FE0
7FE0
7FE0
7FE0
7FE0
7FE0
7FE0
7FE0
7FE0
7FE0
7FE0
7FE0
7FE0
7FE0
7FE0
7FE0
7FE0
7FE0
ENDCHAR
STARTCHAR 0139
ENCODING 313
SWIDTH 450 0
DWIDTH 35 0
BBX 30 69 4 0
BITMAP
03FC0000
03F80000
07F00000
07E00000
0FE00000
0FC00000
1F800000
1F800000
3F000000
3E000000
00000000
00000000
00000000
00000000
00000000
FFC00000
FFC00000
FFC00000
FFC00000
FFC00000
FFC00000
FFC00000
FFC00000
FFC00000
FFC00000
FFC00000
FFC00000
FFC00000
FFC00000
FFC00000
FFC00000
FFC00000
FFC00000
FFC00000
FFC00000
FFC00000
FFC00000
FFC00000
FFC00000
FFC00000
FFC00000
FFC00000
FFC00000
FFC00000
FFC00000
FFC00000
FFC00000
FFC00000
FFC00000
FFC00000
FFC00000
FFC00000
FFC00000
FFC00000
FFC00000
FFC00000
FFC00000
FFC00000
FFC00000
FFC00000
FFFFFFFC
FFFFFFFC
FFFFFFFC
FFFFFFFC
FFFFFFFC
FFFFFFFC
FFFFFFFC
FFFFFFFC
FFFFFFFC
ENDCHAR
STARTCHAR 013A
ENCODING 314
SWIDTH 450 0
DWIDTH 35 0
BBX 30 69 4 0
BITMAP
03FC0000
03F80000
07F00000
07E00000
0FE00000
0FC00000
1F800000
1F800000
3F000000
3E000000
00000000
00000000
00000000
00000000
00000000
FFC00000
FFC00000
FFC00000
FFC00000
FFC00000
FFC00000
FFC00000
FFC00000
FFC00000
FFC00000
FFC00000
FFC00000
FFC00000
FFC00000
FFC00000
FFC00000
FFC00000
FFC00000
FFC00000
FFC00000
FFC00000
FFC00000
FFC00000
FFC00000
FFC00000
FFC00000
FFC00000
FFC00000
FFC00000
FFC00000
FFC00000
FFC00000
FFC00000
FFC00000
FFC00000
FFC00000
FFC00000
FFC00000
FFC00000
FFC00000
FFC00000
FFC00000
FFC00000
FFC00000
FFC00000
FFFFFFFC
FFFFFFFC
FFFFFFFC
FFFFFFFC
FFFFFFFC
FFFFFFFC
FFFFFFFC
FFFFFFFC
FFFFFFFC
ENDCHAR
STARTCHAR 013D
ENCODING 317
SWIDTH 450 0
DWIDTH 35 0
BBX 37 70 -3 0
BITMAP
FF00FF0000
7F80FE0000
3FC1FE0000
3FC3FC0000
1FE7F80000
0FFFF00000
07FFF00000
07FFE00000
03FFC00000
01FFC00000
0000000000
0000000000
0000000000
0000000000
0000000000
0000000000
01FF800000
01FF800000
01FF800000
01FF800000
01FF800000
01FF800000
01FF800000
01FF800000
01FF800000
01FF800000
01FF800000
01FF800000
01FF800000
01FF800000
01FF800000
01FF800000
01FF800000
01FF800000
01FF800000
01FF800000
01FF800000
01FF800000
01FF800000
01FF800000
01FF800000
01FF800000
01FF800000
01FF800000
01FF800000
01FF800000
01FF800000
01FF800000
01FF800000
01FF800000
01FF800000
01FF800000
01FF800000
01FF800000
01FF800000
01FF800000
01FF800000
01FF800000
01FF800000
01FF800000
01FF800000
01FFFFFFF8
01FFFFFFF8
01FFFFFFF8
01FFFFFFF8
01FFFFFFF8
01FFFFFFF8
01FFFFFFF8
01FFFFFFF8
01FFFFFFF8
ENDCHAR
STARTCHAR 013E
ENCODING 318
SWIDTH 450 0
DWIDTH 35 0
BBX 37 70 -3 0
BITMAP
FF00FF0000
7F80FE0000
3FC1FE0000
3FC3FC0000
1FE7F80000
0FFFF00000
07FFF00000
07FFE00000
03FFC00000
01FFC00000
0000000000
0000000000
0000000000
0000000000
0000000000
0000000000
01FF800000
01FF800000
01FF800000
01FF800000
01FF800000
01FF800000
01FF800000
01FF800000
01FF800000
01FF800000
01FF800000
01FF800000
01FF800000
01FF800000
01FF800000
01FF800000
01FF800000
01FF800000
01FF800000
01FF800000
01FF800000
01FF800000
01FF800000
01FF800000
01FF800000
01FF800000
01FF800000
01FF800000
01FF800000
01FF800000
01FF800000
01FF800000
01FF800000
01FF800000
01FF800000
01FF800000
01FF800000
01FF800000
01FF800000
01FF800000
01FF800000
01FF800000
01FF800000
01FF800000
01FF800000
01FFFFFFF8
01FFFFFFF8
01FFFFFFF8
01FFFFFFF8
01FFFFFFF8
01FFFFFFF8
01FFFFFFF8
01FFFFFFF8
01FFFFFFF8
ENDCHAR
STARTCHAR 0141
ENCODING 321
SWIDTH 501 0
DWIDTH 39 0
BBX 37 54 1 0
BITMAP
01FF800000
01FF800000
01FF800000
01FF800000
01FF800000
01FF800000
01FF800000
01FF800000
01FF800000
01FF800000
01FF800000
01FF800000
01FF800000
01FF800000
01FF800000
01FF800000
01FF804000
01FF81C000
01FF87E000
01FF8FE000
01FFBFF000
01FFFFF000
01FFFFC000
01FFFF0000
01FFFC0000
01FFF00000
03FFC00000
07FF800000
1FFF800000
7FFF800000
FFFF800000
7FFF800000
7FFF800000
39FF800000
21FF800000
01FF800000
01FF800000
01FF800000
01FF800000
01FF800000
01FF800000
01FF800000
01FF800000
01FF800000
01FF800000
01FFFFFFF8
01FFFFFFF8
01FFFFFFF8
01FFFFFFF8
01FFFFFFF8
01FFFFFFF8
01FFFFFFF8
01FFFFFFF8
01FFFFFFF8
ENDCHAR
STARTCHAR 0142
ENCODING 322
SWIDTH 501 0
DWIDTH 39 0
BBX 37 54 1 0
BITMAP
01FF800000
01FF800000
01FF800000
01FF800000
01FF800000
01FF800000
01FF800000
01FF800000
01FF800000
01FF800000
01FF800000
01FF800000
01FF800000
01FF800000
01FF800000
01FF800000
01FF804000
01FF81C000
01FF87E000
01FF8FE000
01FFBFF000
01FFFFF000
01FFFFC000
01FFFF0000
01FFFC0000
01FFF00000
03FFC00000
07FF800000
1FFF800000
7FFF800000
FFFF800000
7FFF800000
7FFF800000
39FF800000
21FF800000
01FF800000
01FF800000
01FF800000
01FF800000
01FF800000
01FF800000
01FF800000
01FF800000
01FF800000
01FF800000
01FFFFFFF8
01FFFFFFF8
01FFFFFFF8
01FFFFFFF8
01FFFFFFF8
01FFFFFFF8
01FFFFFFF8
01FFFFFFF8
01FFFFFFF8
ENDCHAR
STARTCHAR 0143
ENCODING 323
SWIDTH 552 0
DWIDTH 43 0
BBX 38 69 1 0
BITMAP
000003F800
000007F000
000007F000
00000FE000
00000FC000
00001FC000
00001F8000
00003F0000
00003E0000
00007E0000
0000000000
0000000000
0000000000
0200000000
0700000000
0F80000FFC
1FE0000FFC
1FF0000FFC
3FF8000FFC
7FFC000FFC
FFFF000FFC
7FFF800FFC
1FFFC00FFC
0FFFF00FFC
0FFFF80FFC
0FFFFC0FFC
0FFFFE0FFC
0FFFFF8FFC
0FFFFFCFFC
0FFFFFEFFC
0FFFFFFFFC
0FFFFFFFFC
0FFCFFFFFC
0FFC7FFFFC
0FFC3FFFFC
0FFC0FFFFC
0FFC07FFFC
0FFC03FFFC
0FFC01FFFC
0FFC007FFC
0FFC003FFC
0FFC001FFC
0FFC000FFC
0FFC000FFC
0FFC000FFC
0FFC000FFC
0FFC000FFC
0FFC000FFC
0FFC000FFC
0FFC000FFC
0FFC000FFC
0FFC000FFC
0FFC000FFC
0FFC000FFC
0FFC000FFC
0FFC000FFC
0FFC000FFC
0FFC000FFC
0FFC000FFC
0FFC000FFC
0FFC000FFC
0FFC000FFC
0FFC000FFC
0FFC000FFC
0FFC000FFC
0FFC000FFC
0FFC000FFC
0FFC000FFC
0FFC000FFC
ENDCHAR
STARTCHAR 0144
ENCODING 324
SWIDTH 552 0
DWIDTH 43 0
BBX 38 69 1 0
BITMAP
000003F800
000007F000
000007F000
00000FE000
00000FC000
00001FC000
00001F8000
00003F0000
00003E0000
00007E0000
0000000000
0000000000
0000000000
0200000000
0700000000
0F80000FFC
1FE0000FFC
1FF0000FFC
3FF8000FFC
7FFC000FFC
FFFF000FFC
7FFF800FFC
1FFFC00FFC
0FFFF00FFC
0FFFF80FFC
0FFFFC0FFC
0FFFFE0FFC
0FFFFF8FFC
0FFFFFCFFC
0FFFFFEFFC
0FFFFFFFFC
0FFFFFFFFC
0FFCFFFFFC
0FFC7FFFFC
0FFC3FFFFC
0FFC0FFFFC
0FFC07FFFC
0FFC03FFFC
0FFC01FFFC
0FFC007FFC
0FFC003FFC
0FFC001FFC
0FFC000FFC
0FFC000FFC
0FFC000FFC
0FFC000FFC
0FFC000FFC
0FFC000FFC
0FFC000FFC
0FFC000FFC
0FFC000FFC
0FFC000FFC
0FFC000FFC
0FFC000FFC
0FFC000FFC
0FFC000FFC
0FFC000FFC
0FFC000FFC
0FFC000FFC
0FFC000FFC
0FFC000FFC
0FFC000FFC
0FFC000FFC
0FFC000FFC
0FFC000FFC
0FFC000FFC
0FFC000FFC
0FFC000FFC
0FFC000FFC
ENDCHAR
STARTCHAR 0147
ENCODING 327
SWIDTH 552 0
DWIDTH 43 0
BBX 38 70 1 0
BITMAP
007F807F80
003F80FF00
003FC1FE00
001FE1FC00
000FF3FC00
000FFFF800
0007FFF000
0003FFF000
0001FFE000
0001FFC000
0000000000
0000000000
0000000000
0000000000
0200000000
0700000000
0F80000FFC
1FE0000FFC
1FF0000FFC
3FF8000FFC
7FFC000FFC
FFFF000FFC
7FFF800FFC
1FFFC00FFC
0FFFF00FFC
0FFFF80FFC
0FFFFC0FFC
0FFFFE0FFC
0FFFFF8FFC
0FFFFFCFFC
0FFFFFEFFC
0FFFFFFFFC
0FFFFFFFFC
0FFCFFFFFC
0FFC7FFFFC
0FFC3FFFFC
0FFC0FFFFC
0FFC07FFFC
0FFC03FFFC
0FFC01FFFC
0FFC007FFC
0FFC003FFC
0FFC001FFC
0FFC000FFC
0FFC000FFC
0FFC000FFC
0FFC000FFC
0FFC000FFC
0FFC000FFC
0FFC000FFC
0FFC000FFC
0FFC000FFC
0FFC000FFC
0FFC000FFC
0FFC000FFC
0FFC000FFC
0FFC000FFC
0FFC000FFC
0FFC000FFC
0FFC000FFC
0FFC000FFC
0FFC000FFC
0FFC000FFC
0FFC000FFC
0FFC000FFC
0FFC000FFC
0FFC000FFC
0FFC000FFC
0FFC000FFC
0FFC000FFC
ENDCHAR
STARTCHAR 0148
ENCODING 328
SWIDTH 552 0
DWIDTH 43 0
BBX 38 70 1 0
BITMAP
007F807F80
003F80FF00
003FC1FE00
001FE1FC00
000FF3FC00
000FFFF800
0007FFF000
0003FFF000
0001FFE000
0001FFC000
0000000000
0000000000
0000000000
0000000000
0200000000
0700000000
0F80000FFC
1FE0000FFC
1FF0000FFC
3FF8000FFC
7FFC000FFC
FFFF000FFC
7FFF800FFC
1FFFC00FFC
0FFFF00FFC
0FFFF80FFC
0FFFFC0FFC
0FFFFE0FFC
0FFFFF8FFC
0FFFFFCFFC
0FFFFFEFFC
0FFFFFFFFC
0FFFFFFFFC
0FFCFFFFFC
0FFC7FFFFC
0FFC3FFFFC
0FFC0FFFFC
0FFC07FFFC
0FFC03FFFC
0FFC01FFFC
0FFC007FFC
0FFC003FFC
0FFC001FFC
0FFC000FFC
0FFC000FFC
0FFC000FFC
0FFC000FFC
0FFC000FFC
0FFC000FFC
0FFC000FFC
0FFC000FFC
0FFC000FFC
0FFC000FFC
0FFC000FFC
0FFC000FFC
0FFC000FFC
0FFC000FFC
0FFC000FFC
0FFC000FFC
0FFC000FFC
0FFC000FFC
0FFC000FFC
0FFC000FFC
0FFC000FFC
0FFC000FFC
0FFC000FFC
0FFC000FFC
0FFC000FFC
0FFC000FFC
0FFC000FFC
ENDCHAR
STARTCHAR 014C
ENCODING 332
SWIDTH 810 0
DWIDTH 63 0
BBX 58 69 3 -1
BITMAP
00003FFFFF000000
00003FFFFF000000
00003FFFFF000000
00003FFFFF000000
00003FFFFF000000
00003FFFFF000000
00003FFFFF000000
0000000000000000
0000000000000000
0000000000000000
0000000000000000
0000000000000000
0000003E00000000
000007FFF8000000
00003FFFFF000000
0001FFFFFFE00000
0007FFFFFFF00000
000FFFFFFFFC0000
003FFFFFFFFE0000
007FFFFFFFFF8000
00FFFFFFFFFFC000
01FFFFF3FFFFE000
03FFFC000FFFF000
07FFF00003FFF000
07FFC00000FFF800
0FFF8000007FFC00
1FFF0000003FFC00
1FFC0000001FFE00
3FFC0000000FFE00
3FF800000007FF00
3FF000000003FF00
7FF000000003FF80
7FE000000001FF80
7FE000000001FF80
FFC000000001FFC0
FFC000000000FFC0
FFC000000000FFC0
FFC000000000FFC0
FFC000000000FFC0
FF8000000000FFC0
FF8000000000FFC0
FF8000000000FFC0
FFC000000000FFC0
FFC000000000FFC0
FFC000000000FFC0
FFC000000000FFC0
FFC000000000FFC0
FFE000000001FF80
7FE000000001FF80
7FE000000001FF80
7FF000000003FF80
3FF800000007FF00
3FF800000007FF00
1FFC0000000FFE00
1FFE0000001FFE00
0FFF0000003FFC00
0FFF8000007FFC00
07FFE00001FFF800
03FFF80007FFF000
01FFFF003FFFE000
00FFFFFFFFFFC000
007FFFFFFFFF8000
003FFFFFFFFF0000
001FFFFFFFFE0000
0007FFFFFFF80000
0003FFFFFFF00000
0000FFFFFFC00000
00001FFFFE000000
000001FFF0000000
ENDCHAR
STARTCHAR 014D
ENCODING 333
SWIDTH 810 0
DWIDTH 63 0
BBX 58 69 3 -1
BITMAP
00003FFFFF000000
00003FFFFF000000
00003FFFFF000000
00003FFFFF000000
00003FFFFF000000
00003FFFFF000000
00003FFFFF000000
0000000000000000
0000000000000000
0000000000000000
0000000000000000
0000000000000000
0000003E00000000
000007FFF8000000
00003FFFFF000000
0001FFFFFFE00000
0007FFFFFFF00000
000FFFFFFFFC0000
003FFFFFFFFE0000
007FFFFFFFFF8000
00FFFFFFFFFFC000
01FFFFF3FFFFE000
03FFFC000FFFF000
07FFF00003FFF000
07FFC00000FFF800
0FFF8000007FFC00
1FFF0000003FFC00
1FFC0000001FFE00
3FFC0000000FFE00
3FF800000007FF00
3FF000000003FF00
7FF000000003FF80
7FE000000001FF80
7FE000000001FF80
FFC000000001FFC0
FFC000000000FFC0
FFC000000000FFC0
FFC000000000FFC0
FFC000000000FFC0
FF8000000000FFC0
FF8000000000FFC0
FF8000000000FFC0
FFC000000000FFC0
FFC000000000FFC0
FFC000000000FFC0
FFC000000000FFC0
FFC000000000FFC0
FFE000000001FF80
7FE000000001FF80
7FE000000001FF80
7FF000000003FF80
3FF800000007FF00
3FF800000007FF00
1FFC0000000FFE00
1FFE0000001FFE00
0FFF0000003FFC00
0FFF8000007FFC00
07FFE00001FFF800
03FFF80007FFF000
01FFFF003FFFE000
00FFFFFFFFFFC000
007FFFFFFFFF8000
003FFFFFFFFF0000
001FFFFFFFFE0000
0007FFFFFFF80000
0003FFFFFFF00000
0000FFFFFFC00000
00001FFFFE000000
000001FFF0000000
ENDCHAR
STARTCHAR 0150
ENCODING 336
SWIDTH 810 0
DWIDTH 63 0
BBX 58 70 3 -1
BITMAP
000001FE07F00000
000001FC0FE00000
000003F80FE00000
000003F81FC00000
000007F01F800000
000007E03F000000
00000FC03F000000
00000FC07E000000
00001F807C000000
00001F00F8000000
0000000000000000
0000000000000000
0000000000000000
0000003E00000000
000007FFF8000000
00003FFFFF000000
0001FFFFFFE00000
0007FFFFFFF00000
000FFFFFFFFC0000
003FFFFFFFFE0000
007FFFFFFFFF8000
00FFFFFFFFFFC000
01FFFFF3FFFFE000
03FFFC000FFFF000
07FFF00003FFF000
07FFC00000FFF800
0FFF8000007FFC00
1FFF0000003FFC00
1FFC0000001FFE00
3FFC0000000FFE00
3FF800000007FF00
3FF000000003FF00
7FF000000003FF80
7FE000000001FF80
7FE000000001FF80
FFC000000001FFC0
FFC000000000FFC0
FFC000000000FFC0
FFC000000000FFC0
FFC000000000FFC0
FF8000000000FFC0
FF8000000000FFC0
FF8000000000FFC0
FFC000000000FFC0
FFC000000000FFC0
FFC000000000FFC0
FFC000000000FFC0
FFC000000000FFC0
FFE000000001FF80
7FE000000001FF80
7FE000000001FF80
7FF000000003FF80
3FF800000007FF00
3FF800000007FF00
1FFC0000000FFE00
1FFE0000001FFE00
0FFF0000003FFC00
0FFF8000007FFC00
07FFE00001FFF800
03FFF80007FFF000
01FFFF003FFFE000
00FFFFFFFFFFC000
007FFFFFFFFF8000
003FFFFFFFFF0000
001FFFFFFFFE0000
0007FFFFFFF80000
0003FFFFFFF00000
0000FFFFFFC00000
00001FFFFE000000
000001FFF0000000
ENDCHAR
STARTCHAR 0151
ENCODING 337
SWIDTH 810 0
DWIDTH 63 0
BBX 58 70 3 -1
BITMAP
000001FE07F00000
000001FC0FE00000
000003F80FE00000
000003F81FC00000
000007F01F800000
000007E03F000000
00000FC03F000000
00000FC07E000000
00001F807C000000
00001F00F8000000
0000000000000000
0000000000000000
0000000000000000
0000003E00000000
000007FFF8000000
00003FFFFF000000
0001FFFFFFE00000
0007FFFFFFF00000
000FFFFFFFFC0000
003FFFFFFFFE0000
007FFFFFFFFF8000
00FFFFFFFFFFC000
01FFFFF3FFFFE000
03FFFC000FFFF000
07FFF00003FFF000
07FFC00000FFF800
0FFF8000007FFC00
1FFF0000003FFC00
1FFC0000001FFE00
3FFC0000000FFE00
3FF800000007FF00
3FF000000003FF00
7FF000000003FF80
7FE000000001FF80
7FE000000001FF80
FFC000000001FFC0
FFC000000000FFC0
FFC000000000FFC0
FFC000000000FFC0
FFC000000000FFC0
FF8000000000FFC0
FF8000000000FFC0
FF8000000000FFC0
FFC000000000FFC0
FFC000000000FFC0
FFC000000000FFC0
FFC000000000FFC0
FFC000000000FFC0
FFE000000001FF80
7FE000000001FF80
7FE000000001FF80
7FF000000003FF80
3FF800000007FF00
3FF800000007FF00
1FFC0000000FFE00
1FFE0000001FFE00
0FFF0000003FFC00
0FFF8000007FFC00
07FFE00001FFF800
03FFF80007FFF000
01FFFF003FFFE000
00FFFFFFFFFFC000
007FFFFFFFFF8000
003FFFFFFFFF0000
001FFFFFFFFE0000
0007FFFFFFF80000
0003FFFFFFF00000
0000FFFFFFC00000
00001FFFFE000000
000001FFF0000000
ENDCHAR
STARTCHAR 0154
ENCODING 340
SWIDTH 604 0
DWIDTH 47 0
BBX 43 69 2 0
BITMAP
000003FC0000
000003F80000
000007F00000
000007F00000
00000FE00000
00000FC00000
00001F800000
00001F800000
00003F000000
00003E000000
000000000000
000000000000
000000000000
000000000000
000000000000
07FFFFFE0000
07FFFFFFC000
07FFFFFFE000
07FFFFFFF800
07FFFFFFFC00
07FFFFFFFE00
07FFFFFFFF00
07FFFFFFFF00
07FFFFFFFF80
07FE0007FF80
07FE0003FFC0
07FE0001FFC0
07FE0000FFC0
07FE00007FC0
07FE00007FE0
07FE00007FE0
07FE00007FE0
07FE00007FE0
07FE00007FC0
07FE0000FFC0
07FE0000FFC0
07FE0001FFC0
07FE0003FF80
07FE000FFF80
FFFFFFFFFF80
FFFFFFFFFF00
FFFFFFFFFE00
FFFFFFFFFC00
FFFFFFFFF800
FFFFFFFFF000
FFFFFFFFF000
FFFFFFFFF800
FFFFFFFFF800
07FE00FFFC00
07FE001FFC00
07FE000FFE00
07FE0007FE00
07FE0007FE00
07FE0003FF00
07FE0003FF00
07FE0003FF00
07FE0003FF00
07FE0001FF00
07FE0001FF00
07FE0001FF00
07FE0001FF00
07FE0001FF00
07FE0001FF00
07FE0001FF00
07FE0001FF00
07FE0001FF00
07FE0001FF00
07FE0001FF00
07FE0001FF00
ENDCHAR
STARTCHAR 0155
ENCODING 341
SWIDTH 604 0
DWIDTH 47 0
BBX 43 69 2 0
BITMAP
000003FC0000
000003F80000
000007F00000
000007F00000
00000FE00000
00000FC00000
00001F800000
00001F800000
00003F000000
00003E000000
000000000000
000000000000
000000000000
000000000000
000000000000
07FFFFFE0000
07FFFFFFC000
07FFFFFFE000
07FFFFFFF800
07FFFFFFFC00
07FFFFFFFE00
07FFFFFFFF00
07FFFFFFFF00
07FFFFFFFF80
07FE0007FF80
07FE0003FFC0
07FE0001FFC0
07FE0000FFC0
07FE00007FC0
07FE00007FE0
07FE00007FE0
07FE00007FE0
07FE00007FE0
07FE00007FC0
07FE0000FFC0
07FE0000FFC0
07FE0001FFC0
07FE0003FF80
07FE000FFF80
FFFFFFFFFF80
FFFFFFFFFF00
FFFFFFFFFE00
FFFFFFFFFC00
FFFFFFFFF800
FFFFFFFFF000
FFFFFFFFF000
FFFFFFFFF800
FFFFFFFFF800
07FE00FFFC00
07FE001FFC00
07FE000FFE00
07FE0007FE00
07FE0007FE00
07FE0003FF00
07FE0003FF00
07FE0003FF00
07FE0003FF00
07FE0001FF00
07FE0001FF00
07FE0001FF00
07FE0001FF00
07FE0001FF00
07FE0001FF00
07FE0001FF00
07FE0001FF00
07FE0001FF00
07FE0001FF00
07FE0001FF00
07FE0001FF00
ENDCHAR
STARTCHAR 0158
ENCODING 344
SWIDTH 604 0
DWIDTH 47 0
BBX 43 70 2 0
BITMAP
007F803F8000
003FC07F8000
001FE0FF0000
000FF1FE0000
000FF3FC0000
0007FBFC0000
0003FFF80000
0001FFF00000
0001FFE00000
0000FFE00000
000000000000
000000000000
000000000000
000000000000
000000000000
000000000000
07FFFFFE0000
07FFFFFFC000
07FFFFFFE000
07FFFFFFF800
07FFFFFFFC00
07FFFFFFFE00
07FFFFFFFF00
07FFFFFFFF00
07FFFFFFFF80
07FE0007FF80
07FE0003FFC0
07FE0001FFC0
07FE0000FFC0
07FE00007FC0
07FE00007FE0
07FE00007FE0
07FE00007FE0
07FE00007FE0
07FE00007FC0
07FE0000FFC0
07FE0000FFC0
07FE0001FFC0
07FE0003FF80
07FE000FFF80
FFFFFFFFFF80
FFFFFFFFFF00
FFFFFFFFFE00
FFFFFFFFFC00
FFFFFFFFF800
FFFFFFFFF000
FFFFFFFFF000
FFFFFFFFF800
FFFFFFFFF800
07FE00FFFC00
07FE001FFC00
07FE000FFE00
07FE0007FE00
07FE0007FE00
07FE0003FF00
07FE0003FF00
07FE0003FF00
07FE0003FF00
07FE0001FF00
07FE0001FF00
07FE0001FF00
07FE0001FF00
07FE0001FF00
07FE0001FF00
07FE0001FF00
07FE0001FF00
07FE0001FF00
07FE0001FF00
07FE0001FF00
07FE0001FF00
ENDCHAR
STARTCHAR 0159
ENCODING 345
SWIDTH 604 0
DWIDTH 47 0
BBX 43 70 2 0
BITMAP
007F803F8000
003FC07F8000
001FE0FF0000
000FF1FE0000
000FF3FC0000
0007FBFC0000
0003FFF80000
0001FFF00000
0001FFE00000
0000FFE00000
000000000000
000000000000
000000000000
000000000000
000000000000
000000000000
07FFFFFE0000
07FFFFFFC000
07FFFFFFE000
07FFFFFFF800
07FFFFFFFC00
07FFFFFFFE00
07FFFFFFFF00
07FFFFFFFF00
07FFFFFFFF80
07FE0007FF80
07FE0003FFC0
07FE0001FFC0
07FE0000FFC0
07FE00007FC0
07FE00007FE0
07FE00007FE0
07FE00007FE0
07FE00007FE0
07FE00007FC0
07FE0000FFC0
07FE0000FFC0
07FE0001FFC0
07FE0003FF80
07FE000FFF80
FFFFFFFFFF80
FFFFFFFFFF00
FFFFFFFFFE00
FFFFFFFFFC00
FFFFFFFFF800
FFFFFFFFF000
FFFFFFFFF000
FFFFFFFFF800
FFFFFFFFF800
07FE00FFFC00
07FE001FFC00
07FE000FFE00
07FE0007FE00
07FE0007FE00
07FE0003FF00
07FE0003FF00
07FE0003FF00
07FE0003FF00
07FE0001FF00
07FE0001FF00
07FE0001FF00
07FE0001FF00
07FE0001FF00
07FE0001FF00
07FE0001FF00
07FE0001FF00
07FE0001FF00
07FE0001FF00
07FE0001FF00
07FE0001FF00
ENDCHAR
STARTCHAR 015A
ENCODING 346
SWIDTH 501 0
DWIDTH 39 0
BBX 35 70 2 -1
BITMAP
00001FC000
00003F8000
00003F8000
00007F0000
00007E0000
0000FC0000
0000FC0000
0001F80000
0001F00000
0003F00000
0000000000
0000000000
0000000000
0003F80000
001FFF8000
007FFFE000
01FFFFF000
03FFFFF800
07FFFFFC00
07FFFFFE00
0FFFFFFF00
0FFFFFFF00
1FFFFFFF80
1FFC03FF80
1FF801FFC0
1FF800FFC0
3FF000FFC0
3FF0007F00
3FF0007800
1FF8000000
1FF8000000
1FFC000000
1FFE000000
0FFF000000
0FFF800000
07FFE00000
03FFF80000
01FFFC0000
00FFFF0000
007FFFC000
003FFFE000
001FFFF000
0007FFFC00
0001FFFE00
0000FFFE00
00003FFF00
00001FFF80
000007FFC0
000003FFC0
000001FFC0
000000FFE0
0000007FE0
0000007FE0
00C0007FE0
0FC0007FE0
7FC0007FE0
FFE0007FE0
7FF0007FE0
7FF000FFE0
3FF801FFC0
3FFE07FFC0
1FFFFFFFC0
1FFFFFFF80
0FFFFFFF80
07FFFFFF00
03FFFFFE00
01FFFFFC00
00FFFFF000
003FFFE000
0007FF0000
ENDCHAR
STARTCHAR 015B
ENCODING 347
SWIDTH 501 0
DWIDTH 39 0
BBX 35 70 2 -1
BITMAP
00001FC000
00003F8000
00003F8000
00007F0000
00007E0000
0000FC0000
0000FC0000
0001F80000
0001F00000
0003F00000
0000000000
0000000000
0000000000
0003F80000
001FFF8000
007FFFE000
01FFFFF000
03FFFFF800
07FFFFFC00
07FFFFFE00
0FFFFFFF00
0FFFFFFF00
1FFFFFFF80
1FFC03FF80
1FF801FFC0
1FF800FFC0
3FF000FFC0
3FF0007F00
3FF0007800
1FF8000000
1FF8000000
1FFC000000
1FFE000000
0FFF000000
0FFF800000
07FFE00000
03FFF80000
01FFFC0000
00FFFF0000
007FFFC000
003FFFE000
001FFFF000
0007FFFC00
0001FFFE00
0000FFFE00
00003FFF00
00001FFF80
000007FFC0
000003FFC0
000001FFC0
000000FFE0
0000007FE0
0000007FE0
00C0007FE0
0FC0007FE0
7FC0007FE0
FFE0007FE0
7FF0007FE0
7FF000FFE0
3FF801FFC0
3FFE07FFC0
1FFFFFFFC0
1FFFFFFF80
0FFFFFFF80
07FFFFFF00
03FFFFFE00
01FFFFFC00
00FFFFF000
003FFFE000
0007FF0000
ENDCHAR
STARTCHAR 015E
ENCODING 350
SWIDTH 501 0
DWIDTH 39 0
BBX 35 73 2 -17
BITMAP
0003F80000
001FFF8000
007FFFE000
01FFFFF000
03FFFFF800
07FFFFFC00
07FFFFFE00
0FFFFFFF00
0FFFFFFF00
1FFFFFFF80
1FFC03FF80
1FF801FFC0
1FF800FFC0
3FF000FFC0
3FF0007F00
3FF0007800
1FF8000000
1FF8000000
1FFC000000
1FFE000000
0FFF000000
0FFF800000
07FFE00000
03FFF80000
01FFFC0000
00FFFF0000
007FFFC000
003FFFE000
001FFFF000
0007FFFC00
0001FFFE00
0000FFFE00
00003FFF00
00001FFF80
000007FFC0
000003FFC0
000001FFC0
000000FFE0
0000007FE0
0000007FE0
00C0007FE0
0FC0007FE0
7FC0007FE0
FFE0007FE0
7FF0007FE0
7FF000FFE0
3FF801FFC0
3FFE07FFC0
1FFFFFFFC0
1FFFFFFF80
0FFFFFFF80
07FFFFFF00
03FFFFFE00
01FFFFFC00
00FFFFF000
003FFFE000
0007FF0000
0000F80000
0001F00000
0001F80000
0001FE0000
0001FF0000
00001F0000
00000F8000
00000F8000
00300F8000
00780F8000
00FC3F8000
01FFFF0000
00FFFF0000
003FFE0000
001FFC0000
0007F00000
ENDCHAR
STARTCHAR 015F
ENCODING 351
SWIDTH 501 0
DWIDTH 39 0
BBX 35 73 2 -17
BITMAP
0003F80000
001FFF8000
007FFFE000
01FFFFF000
03FFFFF800
07FFFFFC00
07FFFFFE00
0FFFFFFF00
0FFFFFFF00
1FFFFFFF80
1FFC03FF80
1FF801FFC0
1FF800FFC0
3FF000FFC0
3FF0007F00
3FF0007800
1FF8000000
1FF8000000
1FFC000000
1FFE000000
0FFF000000
0FFF800000
07FFE00000
03FFF80000
01FFFC0000
00FFFF0000
007FFFC000
003FFFE000
001FFFF000
0007FFFC00
0001FFFE00
0000FFFE00
00003FFF00
00001FFF80
000007FFC0
000003FFC0
000001FFC0
000000FFE0
0000007FE0
0000007FE0
00C0007FE0
0FC0007FE0
7FC0007FE0
FFE0007FE0
7FF0007FE0
7FF000FFE0
3FF801FFC0
3FFE07FFC0
1FFFFFFFC0
1FFFFFFF80
0FFFFFFF80
07FFFFFF00
03FFFFFE00
01FFFFFC00
00FFFFF000
003FFFE000
0007FF0000
0000F80000
0001F00000
0001F80000
0001FE0000
0001FF0000
00001F0000
00000F8000
00000F8000
00300F8000
00780F8000
00FC3F8000
01FFFF0000
00FFFF0000
003FFE0000
001FFC0000
0007F00000
ENDCHAR
STARTCHAR 0160
ENCODING 352
SWIDTH 501 0
DWIDTH 39 0
BBX 35 71 2 -1
BITMAP
03FC03FC00
03FC07F800
01FE0FF000
00FF0FE000
007F9FE000
007FBFC000
003FFF8000
001FFF0000
000FFF0000
000FFE0000
0000000000
0000000000
0000000000
0000000000
0003F80000
001FFF8000
007FFFE000
01FFFFF000
03FFFFF800
07FFFFFC00
07FFFFFE00
0FFFFFFF00
0FFFFFFF00
1FFFFFFF80
1FFC03FF80
1FF801FFC0
1FF800FFC0
3FF000FFC0
3FF0007F00
3FF0007800
1FF8000000
1FF8000000
1FFC000000
1FFE000000
0FFF000000
0FFF800000
07FFE00000
03FFF80000
01FFFC0000
00FFFF0000
007FFFC000
003FFFE000
001FFFF000
0007FFFC00
0001FFFE00
0000FFFE00
00003FFF00
00001FFF80
000007FFC0
000003FFC0
000001FFC0
000000FFE0
0000007FE0
0000007FE0
00C0007FE0
0FC0007FE0
7FC0007FE0
FFE0007FE0
7FF0007FE0
7FF000FFE0
3FF801FFC0
3FFE07FFC0
1FFFFFFFC0
1FFFFFFF80
0FFFFFFF80
07FFFFFF00
03FFFFFE00
01FFFFFC00
00FFFFF000
003FFFE000
0007FF0000
ENDCHAR
STARTCHAR 0161
ENCODING 353
SWIDTH 501 0
DWIDTH 39 0
BBX 35 71 2 -1
BITMAP
03FC03FC00
03FC07F800
01FE0FF000
00FF0FE000
007F9FE000
007FBFC000
003FFF8000
001FFF0000
000FFF0000
000FFE0000
0000000000
0000000000
0000000000
0000000000
0003F80000
001FFF8000
007FFFE000
01FFFFF000
03FFFFF800
07FFFFFC00
07FFFFFE00
0FFFFFFF00
0FFFFFFF00
1FFFFFFF80
1FFC03FF80
1FF801FFC0
1FF800FFC0
3FF000FFC0
3FF0007F00
3FF0007800
1FF8000000
1FF8000000
1FFC000000
1FFE000000
0FFF000000
0FFF800000
07FFE00000
03FFF80000
01FFFC0000
00FFFF0000
007FFFC000
003FFFE000
001FFFF000
0007FFFC00
0001FFFE00
0000FFFE00
00003FFF00
00001FFF80
000007FFC0
000003FFC0
000001FFC0
000000FFE0
0000007FE0
0000007FE0
00C0007FE0
0FC0007FE0
7FC0007FE0
FFE0007FE0
7FF0007FE0
7FF000FFE0
3FF801FFC0
3FFE07FFC0
1FFFFFFFC0
1FFFFFFF80
0FFFFFFF80
07FFFFFF00
03FFFFFE00
01FFFFFC00
00FFFFF000
003FFFE000
0007FF0000
ENDCHAR
STARTCHAR 0162
ENCODING 354
SWIDTH 514 0
DWIDTH 40 0
BBX 36 71 2 -17
BITMAP
FFFFFFFFF0
FFFFFFFFF0
FFFFFFFFF0
FFFFFFFFF0
FFFFFFFFF0
FFFFFFFFF0
FFFFFFFFF0
FFFFFFFFF0
FFFFFFFFF0
0007FE0000
0007FE0000
0007FE0000
0007FE0000
0007FE0000
0007FE0000
0007FE0000
0007FE0000
0007FE0000
0007FE0000
0007FE0000
0007FE0000
0007FE0000
0007FE0000
0007FE0000
0007FE0000
0007FE0000
0007FE0000
0007FE0000
0007FE0000
0007FE0000
0007FE0000
0007FE0000
0007FE0000
0007FE0000
0007FE0000
0007FE0000
0007FE0000
0007FE0000
0007FE0000
0007FE0000
0007FE0000
0007FE0000
0007FE0000
0007FE0000
0007FE0000
0007FE0000
0007FE0000
0007FE0000
0007FE0000
0007FE0000
0007FE0000
0007FE0000
0007FE0000
0007FE0000
0000F80000
0001F00000
0001F00000
0001F80000
0001FC0000
0001FE0000
00003F0000
00001F0000
00000F0000
00200F8000
00701F0000
00FC3F0000
01FFFF0000
00FFFE0000
007FFE0000
001FFC0000
0007F00000
ENDCHAR
STARTCHAR 0163
ENCODING 355
SWIDTH 514 0
DWIDTH 40 0
BBX 36 71 2 -17
BITMAP
FFFFFFFFF0
FFFFFFFFF0
FFFFFFFFF0
FFFFFFFFF0
FFFFFFFFF0
FFFFFFFFF0
FFFFFFFFF0
FFFFFFFFF0
FFFFFFFFF0
0007FE0000
0007FE0000
0007FE0000
0007FE0000
0007FE0000
0007FE0000
0007FE0000
0007FE0000
0007FE0000
0007FE0000
0007FE0000
0007FE0000
0007FE0000
0007FE0000
0007FE0000
0007FE0000
0007FE0000
0007FE0000
0007FE0000
0007FE0000
0007FE0000
0007FE0000
0007FE0000
0007FE0000
0007FE0000
0007FE0000
0007FE0000
0007FE0000
0007FE0000
0007FE0000
0007FE0000
0007FE0000
0007FE0000
0007FE0000
0007FE0000
0007FE0000
0007FE0000
0007FE0000
0007FE0000
0007FE0000
0007FE0000
0007FE0000
0007FE0000
0007FE0000
0007FE0000
0000F80000
0001F00000
0001F00000
0001F80000
0001FC0000
0001FE0000
00003F0000
00001F0000
00000F0000
00200F8000
00701F0000
00FC3F0000
01FFFF0000
00FFFE0000
007FFE0000
001FFC0000
0007F00000
ENDCHAR
STARTCHAR 0164
ENCODING 356
SWIDTH 514 0
DWIDTH 40 0
BBX 36 70 2 0
BITMAP
03FC03FC00
01FE03F800
00FF07F800
00FF0FF000
007F9FE000
003FDFC000
001FFFC000
001FFF8000
000FFF0000
0007FF0000
0000000000
0000000000
0000000000
0000000000
0000000000
0000000000
FFFFFFFFF0
FFFFFFFFF0
FFFFFFFFF0
FFFFFFFFF0
FFFFFFFFF0
FFFFFFFFF0
FFFFFFFFF0
FFFFFFFFF0
FFFFFFFFF0
0007FE0000
0007FE0000
0007FE0000
0007FE0000
0007FE0000
0007FE0000
0007FE0000
0007FE0000
0007FE0000
0007FE0000
0007FE0000
0007FE0000
0007FE0000
0007FE0000
0007FE0000
0007FE0000
0007FE0000
0007FE0000
0007FE0000
0007FE0000
0007FE0000
0007FE0000
0007FE0000
0007FE0000
0007FE0000
0007FE0000
0007FE0000
0007FE0000
0007FE0000
0007FE0000
0007FE0000
0007FE0000
0007FE0000
0007FE0000
0007FE0000
0007FE0000
0007FE0000
0007FE0000
0007FE0000
0007FE0000
0007FE0000
0007FE0000
0007FE0000
0007FE0000
0007FE0000
ENDCHAR
STARTCHAR 0165
ENCODING 357
SWIDTH 514 0
DWIDTH 40 0
BBX 36 70 2 0
BITMAP
03FC03FC00
01FE03F800
00FF07F800
00FF0FF000
007F9FE000
003FDFC000
001FFFC000
001FFF8000
000FFF0000
0007FF0000
0000000000
0000000000
0000000000
0000000000
0000000000
0000000000
FFFFFFFFF0
FFFFFFFFF0
FFFFFFFFF0
FFFFFFFFF0
FFFFFFFFF0
FFFFFFFFF0
FFFFFFFFF0
FFFFFFFFF0
FFFFFFFFF0
0007FE0000
0007FE0000
0007FE0000
0007FE0000
0007FE0000
0007FE0000
0007FE0000
0007FE0000
0007FE0000
0007FE0000
0007FE0000
0007FE0000
0007FE0000
0007FE0000
0007FE0000
0007FE0000
0007FE0000
0007FE0000
0007FE0000
0007FE0000
0007FE0000
0007FE0000
0007FE0000
0007FE0000
0007FE0000
0007FE0000
0007FE0000
0007FE0000
0007FE0000
0007FE0000
0007FE0000
0007FE0000
0007FE0000
0007FE0000
0007FE0000
0007FE0000
0007FE0000
0007FE0000
0007FE0000
0007FE0000
0007FE0000
0007FE0000
0007FE0000
0007FE0000
0007FE0000
ENDCHAR
STARTCHAR 0168
ENCODING 360
SWIDTH 527 0
DWIDTH 41 0
BBX 35 70 3 -1
BITMAP
00FF000000
01FFFFC000
01FFFFC000
01FFFFC000
01FFFFC000
01FFFFC000
0100FF8000
0000000000
0000000000
0000000000
0000000000
0000000000
0000000000
0000000000
0000000000
FFC0007FE0
FFC0007FE0
FFC0007FE0
FFC0007FE0
FFC0007FE0
FFC0007FE0
FFC0007FE0
FFC0007FE0
FFC0007FE0
FFC0007FE0
FFC0007FE0
FFC0007FE0
FFC0007FE0
FFC0007FE0
FFC0007FE0
FFC0007FE0
FFC0007FE0
FFC0007FE0
FFC0007FE0
FFC0007FE0
FFC0007FE0
FFC0007FE0
FFC0007FE0
FFC0007FE0
FFC0007FE0
FFC0007FE0
FFC0007FE0
FFC0007FE0
FFC0007FE0
FFC0007FE0
FFC0007FE0
FFC0007FE0
FFC0007FE0
FFC0007FE0
FFC0007FE0
FFC0007FE0
FFC0007FE0
7FC0007FE0
7FC0007FE0
7FC0007FC0
7FE000FFC0
7FE000FFC0
7FE000FFC0
3FF001FFC0
3FF803FF80
3FFE0FFF80
1FFFFFFF00
1FFFFFFF00
0FFFFFFE00
07FFFFFC00
03FFFFF800
01FFFFF000
00FFFFE000
003FFF8000
0007FE0000
ENDCHAR
STARTCHAR 0169
ENCODING 361
SWIDTH 527 0
DWIDTH 41 0
BBX 35 70 3 -1
BITMAP
00FF000000
01FFFFC000
01FFFFC000
01FFFFC000
01FFFFC000
01FFFFC000
0100FF8000
0000000000
0000000000
0000000000
0000000000
0000000000
0000000000
0000000000
0000000000
FFC0007FE0
FFC0007FE0
FFC0007FE0
FFC0007FE0
FFC0007FE0
FFC0007FE0
FFC0007FE0
FFC0007FE0
FFC0007FE0
FFC0007FE0
FFC0007FE0
FFC0007FE0
FFC0007FE0
FFC0007FE0
FFC0007FE0
FFC0007FE0
FFC0007FE0
FFC0007FE0
FFC0007FE0
FFC0007FE0
FFC0007FE0
FFC0007FE0
FFC0007FE0
FFC0007FE0
FFC0007FE0
FFC0007FE0
FFC0007FE0
FFC0007FE0
FFC0007FE0
FFC0007FE0
FFC0007FE0
FFC0007FE0
FFC0007FE0
FFC0007FE0
FFC0007FE0
FFC0007FE0
FFC0007FE0
7FC0007FE0
7FC0007FE0
7FC0007FC0
7FE000FFC0
7FE000FFC0
7FE000FFC0
3FF001FFC0
3FF803FF80
3FFE0FFF80
1FFFFFFF00
1FFFFFFF00
0FFFFFFE00
07FFFFFC00
03FFFFF800
01FFFFF000
00FFFFE000
003FFF8000
0007FE0000
ENDCHAR
STARTCHAR 016A
ENCODING 362
SWIDTH 527 0
DWIDTH 41 0
BBX 35 69 3 -1
BITMAP
01FFFFF800
01FFFFF800
01FFFFF800
01FFFFF800
01FFFFF800
01FFFFF800
01FFFFF800
0000000000
0000000000
0000000000
0000000000
0000000000
0000000000
0000000000
FFC0007FE0
FFC0007FE0
FFC0007FE0
FFC0007FE0
FFC0007FE0
FFC0007FE0
FFC0007FE0
FFC0007FE0
FFC0007FE0
FFC0007FE0
FFC0007FE0
FFC0007FE0
FFC0007FE0
FFC0007FE0
FFC0007FE0
FFC0007FE0
FFC0007FE0
FFC0007FE0
FFC0007FE0
FFC0007FE0
FFC0007FE0
FFC0007FE0
FFC0007FE0
FFC0007FE0
FFC0007FE0
FFC0007FE0
FFC0007FE0
FFC0007FE0
FFC0007FE0
FFC0007FE0
FFC0007FE0
FFC0007FE0
FFC0007FE0
FFC0007FE0
FFC0007FE0
FFC0007FE0
FFC0007FE0
7FC0007FE0
7FC0007FE0
7FC0007FC0
7FE000FFC0
7FE000FFC0
7FE000FFC0
3FF001FFC0
3FF803FF80
3FFE0FFF80
1FFFFFFF00
1FFFFFFF00
0FFFFFFE00
07FFFFFC00
03FFFFF800
01FFFFF000
00FFFFE000
003FFF8000
0007FE0000
ENDCHAR
STARTCHAR 016B
ENCODING 363
SWIDTH 527 0
DWIDTH 41 0
BBX 35 69 3 -1
BITMAP
01FFFFF800
01FFFFF800
01FFFFF800
01FFFFF800
01FFFFF800
01FFFFF800
01FFFFF800
0000000000
0000000000
0000000000
0000000000
0000000000
0000000000
0000000000
FFC0007FE0
FFC0007FE0
FFC0007FE0
FFC0007FE0
FFC0007FE0
FFC0007FE0
FFC0007FE0
FFC0007FE0
FFC0007FE0
FFC0007FE0
FFC0007FE0
FFC0007FE0
FFC0007FE0
FFC0007FE0
FFC0007FE0
FFC0007FE0
FFC0007FE0
FFC0007FE0
FFC0007FE0
FFC0007FE0
FFC0007FE0
FFC0007FE0
FFC0007FE0
FFC0007FE0
FFC0007FE0
FFC0007FE0
FFC0007FE0
FFC0007FE0
FFC0007FE0
FFC0007FE0
FFC0007FE0
FFC0007FE0
FFC0007FE0
FFC0007FE0
FFC0007FE0
FFC0007FE0
FFC0007FE0
7FC0007FE0
7FC0007FE0
7FC0007FC0
7FE000FFC0
7FE000FFC0
7FE000FFC0
3FF001FFC0
3FF803FF80
3FFE0FFF80
1FFFFFFF00
1FFFFFFF00
0FFFFFFE00
07FFFFFC00
03FFFFF800
01FFFFF000
00FFFFE000
003FFF8000
0007FE0000
ENDCHAR
STARTCHAR 016E
ENCODING 366
SWIDTH 527 0
DWIDTH 41 0
BBX 35 76 3 -1
BITMAP
0000F00000
0007FC0000
000FFE0000
001FFF0000
003FFF8000
003E0F8000
003C078000
003C07C000
003C07C000
003C078000
003E0F8000
003F1F8000
001FFF0000
001FFF0000
0007FC0000
0003F80000
0000000000
0000000000
0000000000
0000000000
0000000000
FFC0007FE0
FFC0007FE0
FFC0007FE0
FFC0007FE0
FFC0007FE0
FFC0007FE0
FFC0007FE0
FFC0007FE0
FFC0007FE0
FFC0007FE0
FFC0007FE0
FFC0007FE0
FFC0007FE0
FFC0007FE0
FFC0007FE0
FFC0007FE0
FFC0007FE0
FFC0007FE0
FFC0007FE0
FFC0007FE0
FFC0007FE0
FFC0007FE0
FFC0007FE0
FFC0007FE0
FFC0007FE0
FFC0007FE0
FFC0007FE0
FFC0007FE0
FFC0007FE0
FFC0007FE0
FFC0007FE0
FFC0007FE0
FFC0007FE0
FFC0007FE0
FFC0007FE0
FFC0007FE0
FFC0007FE0
7FC0007FE0
7FC0007FE0
7FC0007FC0
7FE000FFC0
7FE000FFC0
7FE000FFC0
3FF001FFC0
3FF803FF80
3FFE0FFF80
1FFFFFFF00
1FFFFFFF00
0FFFFFFE00
07FFFFFC00
03FFFFF800
01FFFFF000
00FFFFE000
003FFF8000
0007FE0000
ENDCHAR
STARTCHAR 016F
ENCODING 367
SWIDTH 527 0
DWIDTH 41 0
BBX 35 76 3 -1
BITMAP
0000F00000
0007FC0000
000FFE0000
001FFF0000
003FFF8000
003E0F8000
003C078000
003C07C000
003C07C000
003C078000
003E0F8000
003F1F8000
001FFF0000
001FFF0000
0007FC0000
0003F80000
0000000000
0000000000
0000000000
0000000000
0000000000
FFC0007FE0
FFC0007FE0
FFC0007FE0
FFC0007FE0
FFC0007FE0
FFC0007FE0
FFC0007FE0
FFC0007FE0
FFC0007FE0
FFC0007FE0
FFC0007FE0
FFC0007FE0
FFC0007FE0
FFC0007FE0
FFC0007FE0
FFC0007FE0
FFC0007FE0
FFC0007FE0
FFC0007FE0
FFC0007FE0
FFC0007FE0
FFC0007FE0
FFC0007FE0
FFC0007FE0
FFC0007FE0
FFC0007FE0
FFC0007FE0
FFC0007FE0
FFC0007FE0
FFC0007FE0
FFC0007FE0
FFC0007FE0
FFC0007FE0
FFC0007FE0
FFC0007FE0
FFC0007FE0
FFC0007FE0
7FC0007FE0
7FC0007FE0
7FC0007FC0
7FE000FFC0
7FE000FFC0
7FE000FFC0
3FF001FFC0
3FF803FF80
3FFE0FFF80
1FFFFFFF00
1FFFFFFF00
0FFFFFFE00
07FFFFFC00
03FFFFF800
01FFFFF000
00FFFFE000
003FFF8000
0007FE0000
ENDCHAR
STARTCHAR 0170
ENCODING 368
SWIDTH 527 0
DWIDTH 41 0
BBX 35 70 3 -1
BITMAP
000FE07F80
000FE07F00
001FC0FE00
001F80FC00
003F01FC00
003F01F800
007E03F000
00FC03E000
00FC07E000
01F807C000
0000000000
0000000000
0000000000
0000000000
0000000000
FFC0007FE0
FFC0007FE0
FFC0007FE0
FFC0007FE0
FFC0007FE0
FFC0007FE0
FFC0007FE0
FFC0007FE0
FFC0007FE0
FFC0007FE0
FFC0007FE0
FFC0007FE0
FFC0007FE0
FFC0007FE0
FFC0007FE0
FFC0007FE0
FFC0007FE0
FFC0007FE0
FFC0007FE0
FFC0007FE0
FFC0007FE0
FFC0007FE0
FFC0007FE0
FFC0007FE0
FFC0007FE0
FFC0007FE0
FFC0007FE0
FFC0007FE0
FFC0007FE0
FFC0007FE0
FFC0007FE0
FFC0007FE0
FFC0007FE0
FFC0007FE0
FFC0007FE0
FFC0007FE0
FFC0007FE0
7FC0007FE0
7FC0007FE0
7FC0007FC0
7FE000FFC0
7FE000FFC0
7FE000FFC0
3FF001FFC0
3FF803FF80
3FFE0FFF80
1FFFFFFF00
1FFFFFFF00
0FFFFFFE00
07FFFFFC00
03FFFFF800
01FFFFF000
00FFFFE000
003FFF8000
0007FE0000
ENDCHAR
STARTCHAR 0171
ENCODING 369
SWIDTH 527 0
DWIDTH 41 0
BBX 35 70 3 -1
BITMAP
000FE07F80
000FE07F00
001FC0FE00
001F80FC00
003F01FC00
003F01F800
007E03F000
00FC03E000
00FC07E000
01F807C000
0000000000
0000000000
0000000000
0000000000
0000000000
FFC0007FE0
FFC0007FE0
FFC0007FE0
FFC0007FE0
FFC0007FE0
FFC0007FE0
FFC0007FE0
FFC0007FE0
FFC0007FE0
FFC0007FE0
FFC0007FE0
FFC0007FE0
FFC0007FE0
FFC0007FE0
FFC0007FE0
FFC0007FE0
FFC0007FE0
FFC0007FE0
FFC0007FE0
FFC0007FE0
FFC0007FE0
FFC0007FE0
FFC0007FE0
FFC0007FE0
FFC0007FE0
FFC0007FE0
FFC0007FE0
FFC0007FE0
FFC0007FE0
FFC0007FE0
FFC0007FE0
FFC0007FE0
FFC0007FE0
FFC0007FE0
FFC0007FE0
FFC0007FE0
FFC0007FE0
7FC0007FE0
7FC0007FE0
7FC0007FC0
7FE000FFC0
7FE000FFC0
7FE000FFC0
3FF001FFC0
3FF803FF80
3FFE0FFF80
1FFFFFFF00
1FFFFFFF00
0FFFFFFE00
07FFFFFC00
03FFFFF800
01FFFFF000
00FFFFE000
003FFF8000
0007FE0000
ENDCHAR
STARTCHAR 0172
ENCODING 370
SWIDTH 527 0
DWIDTH 41 0
BBX 35 69 3 -15
BITMAP
FFC0007FE0
FFC0007FE0
FFC0007FE0
FFC0007FE0
FFC0007FE0
FFC0007FE0
FFC0007FE0
FFC0007FE0
FFC0007FE0
FFC0007FE0
FFC0007FE0
FFC0007FE0
FFC0007FE0
FFC0007FE0
FFC0007FE0
FFC0007FE0
FFC0007FE0
FFC0007FE0
FFC0007FE0
FFC0007FE0
FFC0007FE0
FFC0007FE0
FFC0007FE0
FFC0007FE0
FFC0007FE0
FFC0007FE0
FFC0007FE0
FFC0007FE0
FFC0007FE0
FFC0007FE0
FFC0007FE0
FFC0007FE0
FFC0007FE0
FFC0007FE0
FFC0007FE0
FFC0007FE0
FFC0007FE0
FFC0007FE0
7FC0007FE0
7FC0007FC0
7FE000FFC0
7FE000FFC0
7FE000FFC0
3FF001FFC0
3FF803FF80
3FFE0FFF80
1FFFFFFF00
1FFFFFFF00
0FFFFFFE00
07FFFFFC00
03FFFFF800
01FFFFF000
00FFFFE000
003FFF8000
0007FE0000
0007E00000
000FC00000
001F800000
001F000000
001F000000
003F000000
003F000000
003F018000
001F83C000
001FFFE000
001FFFE000
000FFFC000
0007FF8000
0001FE0000
ENDCHAR
STARTCHAR 0173
ENCODING 371
SWIDTH 527 0
DWIDTH 41 0
BBX 35 69 3 -15
BITMAP
FFC0007FE0
FFC0007FE0
FFC0007FE0
FFC0007FE0
FFC0007FE0
FFC0007FE0
FFC0007FE0
FFC0007FE0
FFC0007FE0
FFC0007FE0
FFC0007FE0
FFC0007FE0
FFC0007FE0
FFC0007FE0
FFC0007FE0
FFC0007FE0
FFC0007FE0
FFC0007FE0
FFC0007FE0
FFC0007FE0
FFC0007FE0
FFC0007FE0
FFC0007FE0
FFC0007FE0
FFC0007FE0
FFC0007FE0
FFC0007FE0
FFC0007FE0
FFC0007FE0
FFC0007FE0
FFC0007FE0
FFC0007FE0
FFC0007FE0
FFC0007FE0
FFC0007FE0
FFC0007FE0
FFC0007FE0
FFC0007FE0
7FC0007FE0
7FC0007FC0
7FE000FFC0
7FE000FFC0
7FE000FFC0
3FF001FFC0
3FF803FF80
3FFE0FFF80
1FFFFFFF00
1FFFFFFF00
0FFFFFFE00
07FFFFFC00
03FFFFF800
01FFFFF000
00FFFFE000
003FFF8000
0007FE0000
0007E00000
000FC00000
001F800000
001F000000
001F000000
003F000000
003F000000
003F018000
001F83C000
001FFFE000
001FFFE000
000FFFC000
0007FF8000
0001FE0000
ENDCHAR
STARTCHAR 0176
ENCODING 374
SWIDTH 514 0
DWIDTH 40 0
BBX 34 69 3 0
BITMAP
000FFE0000
001FFF0000
003FFF0000
007FFF8000
007FBFC000
00FF3FE000
01FE1FE000
03FC0FF000
03F807F800
07F803F800
0000000000
0000000000
0000000000
0000000000
0000000000
FFC0007FC0
FFC0007FC0
FFC0007FC0
FFC0007FC0
FFC0007FC0
FFC0007FC0
FFC0007FC0
FFC0007FC0
FFC0007FC0
FFC0007FC0
FFC0007FC0
FFC0007FC0
FFC0007FC0
FFC0007FC0
FFC0007FC0
FFC0007FC0
FFC0007FC0
FFC0007FC0
FFC0007FC0
FFC0007FC0
FFC0007FC0
FFC0007FC0
FFC0007FC0
FFC0007FC0
FFC000FFC0
FFC000FFC0
FFC000FFC0
FFC000FFC0
7FE001FFC0
7FE001FF80
7FF003FF80
3FF807FF80
3FFFFFFF00
1FFFFFFF00
1FFFFFFE00
0FFFFFFC00
07FFFFF800
03FFFFF000
01FFFFE000
007FFFC000
001FFE0000
000FFC0000
000FFC0000
000FFC0000
000FFC0000
000FFC0000
000FFC0000
000FFC0000
000FFC0000
000FFC0000
000FFC0000
000FFC0000
000FFC0000
000FFC0000
ENDCHAR
STARTCHAR 0177
ENCODING 375
SWIDTH 514 0
DWIDTH 40 0
BBX 34 69 3 0
BITMAP
000FFE0000
001FFF0000
003FFF0000
007FFF8000
007FBFC000
00FF3FE000
01FE1FE000
03FC0FF000
03F807F800
07F803F800
0000000000
0000000000
0000000000
0000000000
0000000000
FFC0007FC0
FFC0007FC0
FFC0007FC0
FFC0007FC0
FFC0007FC0
FFC0007FC0
FFC0007FC0
FFC0007FC0
FFC0007FC0
FFC0007FC0
FFC0007FC0
FFC0007FC0
FFC0007FC0
FFC0007FC0
FFC0007FC0
FFC0007FC0
FFC0007FC0
FFC0007FC0
FFC0007FC0
FFC0007FC0
FFC0007FC0
FFC0007FC0
FFC0007FC0
FFC0007FC0
FFC000FFC0
FFC000FFC0
FFC000FFC0
FFC000FFC0
7FE001FFC0
7FE001FF80
7FF003FF80
3FF807FF80
3FFFFFFF00
1FFFFFFF00
1FFFFFFE00
0FFFFFFC00
07FFFFF800
03FFFFF000
01FFFFE000
007FFFC000
001FFE0000
000FFC0000
000FFC0000
000FFC0000
000FFC0000
000FFC0000
000FFC0000
000FFC0000
000FFC0000
000FFC0000
000FFC0000
000FFC0000
000FFC0000
000FFC0000
ENDCHAR
STARTCHAR 0178
ENCODING 376
SWIDTH 514 0
DWIDTH 40 0
BBX 34 70 3 0
BITMAP
07F001FC00
0FF803FE00
1FFC07FF00
1FFC07FF80
3FFE07FF80
3FFE0FFF80
3FFE07FF80
3FFE07FF80
1FFC07FF00
1FFC03FF00
0FF801FE00
03E000F800
0000000000
0000000000
0000000000
0000000000
FFC0007FC0
FFC0007FC0
FFC0007FC0
FFC0007FC0
FFC0007FC0
FFC0007FC0
FFC0007FC0
FFC0007FC0
FFC0007FC0
FFC0007FC0
FFC0007FC0
FFC0007FC0
FFC0007FC0
FFC0007FC0
FFC0007FC0
FFC0007FC0
FFC0007FC0
FFC0007FC0
FFC0007FC0
FFC0007FC0
FFC0007FC0
FFC0007FC0
FFC0007FC0
FFC0007FC0
FFC000FFC0
FFC000FFC0
FFC000FFC0
FFC000FFC0
7FE001FFC0
7FE001FF80
7FF003FF80
3FF807FF80
3FFFFFFF00
1FFFFFFF00
1FFFFFFE00
0FFFFFFC00
07FFFFF800
03FFFFF000
01FFFFE000
007FFFC000
001FFE0000
000FFC0000
000FFC0000
000FFC0000
000FFC0000
000FFC0000
000FFC0000
000FFC0000
000FFC0000
000FFC0000
000FFC0000
000FFC0000
000FFC0000
000FFC0000
ENDCHAR
STARTCHAR 0179
ENCODING 377
SWIDTH 514 0
DWIDTH 40 0
BBX 37 69 2 0
BITMAP
00000FE000
00001FC000
00001FC000
00003F8000
00003F0000
00007F0000
00007E0000
0000FC0000
0000F80000
0001F80000
0000000000
0000000000
0000000000
0000000000
0000000000
FFFFFFFFF8
FFFFFFFFF8
FFFFFFFFF8
FFFFFFFFF8
FFFFFFFFF8
FFFFFFFFF0
FFFFFFFFE0
FFFFFFFFE0
FFFFFFFFC0
000001FFC0
000001FF80
000003FF00
000007FF00
000007FE00
00000FFE00
00000FFC00
00001FFC00
00003FF800
00003FF000
00007FF000
00007FE000
0000FFE000
0001FFC000
0001FF8000
0003FF8000
0003FF0000
0007FF0000
000FFE0000
000FFE0000
001FFC0000
001FF80000
003FF80000
007FF00000
007FF00000
00FFE00000
00FFC00000
01FFC00000
01FF800000
03FF800000
07FF000000
07FE000000
0FFE000000
0FFC000000
1FFC000000
3FF8000000
3FFFFFFFE0
7FFFFFFFE0
7FFFFFFFE0
FFFFFFFFE0
FFFFFFFFE0
FFFFFFFFE0
FFFFFFFFE0
FFFFFFFFE0
FFFFFFFFE0
ENDCHAR
STARTCHAR 017A
ENCODING 378
SWIDTH 514 0
DWIDTH 40 0
BBX 37 69 2 0
BITMAP
00000FE000
00001FC000
00001FC000
00003F8000
00003F0000
00007F0000
00007E0000
0000FC0000
0000F80000
0001F80000
0000000000
0000000000
0000000000
0000000000
0000000000
FFFFFFFFF8
FFFFFFFFF8
FFFFFFFFF8
FFFFFFFFF8
FFFFFFFFF8
FFFFFFFFF0
FFFFFFFFE0
FFFFFFFFE0
FFFFFFFFC0
000001FFC0
000001FF80
000003FF00
000007FF00
000007FE00
00000FFE00
00000FFC00
00001FFC00
00003FF800
00003FF000
00007FF000
00007FE000
0000FFE000
0001FFC000
0001FF8000
0003FF8000
0003FF0000
0007FF0000
000FFE0000
000FFE0000
001FFC0000
001FF80000
003FF80000
007FF00000
007FF00000
00FFE00000
00FFC00000
01FFC00000
01FF800000
03FF800000
07FF000000
07FE000000
0FFE000000
0FFC000000
1FFC000000
3FF8000000
3FFFFFFFE0
7FFFFFFFE0
7FFFFFFFE0
FFFFFFFFE0
FFFFFFFFE0
FFFFFFFFE0
FFFFFFFFE0
FFFFFFFFE0
FFFFFFFFE0
ENDCHAR
STARTCHAR 017B
ENCODING 379
SWIDTH 514 0
DWIDTH 40 0
BBX 37 72 2 0
BITMAP
0000FC0000
0001FE0000
0003FF0000
0007FF8000
0007FF8000
0007FF8000
0007FF8000
0007FF8000
0007FF8000
0003FF0000
0001FF0000
0000FC0000
0000000000
0000000000
0000000000
0000000000
0000000000
0000000000
FFFFFFFFF8
FFFFFFFFF8
FFFFFFFFF8
FFFFFFFFF8
FFFFFFFFF8
FFFFFFFFF0
FFFFFFFFE0
FFFFFFFFE0
FFFFFFFFC0
000001FFC0
000001FF80
000003FF00
000007FF00
000007FE00
00000FFE00
00000FFC00
00001FFC00
00003FF800
00003FF000
00007FF000
00007FE000
0000FFE000
0001FFC000
0001FF8000
0003FF8000
0003FF0000
0007FF0000
000FFE0000
000FFE0000
001FFC0000
001FF80000
003FF80000
007FF00000
007FF00000
00FFE00000
00FFC00000
01FFC00000
01FF800000
03FF800000
07FF000000
07FE000000
0FFE000000
0FFC000000
1FFC000000
3FF8000000
3FFFFFFFE0
7FFFFFFFE0
7FFFFFFFE0
FFFFFFFFE0
FFFFFFFFE0
FFFFFFFFE0
FFFFFFFFE0
FFFFFFFFE0
FFFFFFFFE0
ENDCHAR
STARTCHAR 017C
ENCODING 380
SWIDTH 514 0
DWIDTH 40 0
BBX 37 72 2 0
BITMAP
0000FC0000
0001FE0000
0003FF0000
0007FF8000
0007FF8000
0007FF8000
0007FF8000
0007FF8000
0007FF8000
0003FF0000
0001FF0000
0000FC0000
0000000000
0000000000
0000000000
0000000000
0000000000
0000000000
FFFFFFFFF8
FFFFFFFFF8
FFFFFFFFF8
FFFFFFFFF8
FFFFFFFFF8
FFFFFFFFF0
FFFFFFFFE0
FFFFFFFFE0
FFFFFFFFC0
000001FFC0
000001FF80
000003FF00
000007FF00
000007FE00
00000FFE00
00000FFC00
00001FFC00
00003FF800
00003FF000
00007FF000
00007FE000
0000FFE000
0001FFC000
0001FF8000
0003FF8000
0003FF0000
0007FF0000
000FFE0000
000FFE0000
001FFC0000
001FF80000
003FF80000
007FF00000
007FF00000
00FFE00000
00FFC00000
01FFC00000
01FF800000
03FF800000
07FF000000
07FE000000
0FFE000000
0FFC000000
1FFC000000
3FF8000000
3FFFFFFFE0
7FFFFFFFE0
7FFFFFFFE0
FFFFFFFFE0
FFFFFFFFE0
FFFFFFFFE0
FFFFFFFFE0
FFFFFFFFE0
FFFFFFFFE0
ENDCHAR
STARTCHAR 017D
ENCODING 381
SWIDTH 514 0
DWIDTH 40 0
BBX 37 70 2 0
BITMAP
01FE01FE00
00FE03FC00
00FF07F800
007F87F000
003FCFF000
003FFFE000
001FFFC000
000FFFC000
0007FF8000
0007FF0000
0000000000
0000000000
0000000000
0000000000
0000000000
0000000000
FFFFFFFFF8
FFFFFFFFF8
FFFFFFFFF8
FFFFFFFFF8
FFFFFFFFF8
FFFFFFFFF0
FFFFFFFFE0
FFFFFFFFE0
FFFFFFFFC0
000001FFC0
000001FF80
000003FF00
000007FF00
000007FE00
00000FFE00
00000FFC00
00001FFC00
00003FF800
00003FF000
00007FF000
00007FE000
0000FFE000
0001FFC000
0001FF8000
0003FF8000
0003FF0000
0007FF0000
000FFE0000
000FFE0000
001FFC0000
001FF80000
003FF80000
007FF00000
007FF00000
00FFE00000
00FFC00000
01FFC00000
01FF800000
03FF800000
07FF000000
07FE000000
0FFE000000
0FFC000000
1FFC000000
3FF8000000
3FFFFFFFE0
7FFFFFFFE0
7FFFFFFFE0
FFFFFFFFE0
FFFFFFFFE0
FFFFFFFFE0
FFFFFFFFE0
FFFFFFFFE0
FFFFFFFFE0
ENDCHAR
STARTCHAR 017E
ENCODING 382
SWIDTH 514 0
DWIDTH 40 0
BBX 37 70 2 0
BITMAP
01FE01FE00
00FE03FC00
00FF07F800
007F87F000
003FCFF000
003FFFE000
001FFFC000
000FFFC000
0007FF8000
0007FF0000
0000000000
0000000000
0000000000
0000000000
0000000000
0000000000
FFFFFFFFF8
FFFFFFFFF8
FFFFFFFFF8
FFFFFFFFF8
FFFFFFFFF8
FFFFFFFFF0
FFFFFFFFE0
FFFFFFFFE0
FFFFFFFFC0
000001FFC0
000001FF80
000003FF00
000007FF00
000007FE00
00000FFE00
00000FFC00
00001FFC00
00003FF800
00003FF000
00007FF000
00007FE000
0000FFE000
0001FFC000
0001FF8000
0003FF8000
0003FF0000
0007FF0000
000FFE0000
000FFE0000
001FFC0000
001FF80000
003FF80000
007FF00000
007FF00000
00FFE00000
00FFC00000
01FFC00000
01FF800000
03FF800000
07FF000000
07FE000000
0FFE000000
0FFC000000
1FFC000000
3FF8000000
3FFFFFFFE0
7FFFFFFFE0
7FFFFFFFE0
FFFFFFFFE0
FFFFFFFFE0
FFFFFFFFE0
FFFFFFFFE0
FFFFFFFFE0
FFFFFFFFE0
ENDCHAR
STARTCHAR 01A0
ENCODING 416
SWIDTH 810 0
DWIDTH 63 0
BBX 58 62 3 -1
BITMAP
000000000000FC00
000000000000FC00
000000000001FC00
000000000001FC00
000000000001F800
0000003E0003F800
000007FFF807F000
00003FFFFF1FF000
0001FFFFFFFFE000
0007FFFFFFFF8000
000FFFFFFFFE0000
003FFFFFFFFE0000
007FFFFFFFFF8000
00FFFFFFFFFFC000
01FFFFF3FFFFE000
03FFFC000FFFF000
07FFF00003FFF000
07FFC00000FFF800
0FFF8000007FFC00
1FFF0000003FFC00
1FFC0000001FFE00
3FFC0000000FFE00
3FF800000007FF00
3FF000000003FF00
7FF000000003FF80
7FE000000001FF80
7FE000000001FF80
FFC000000001FFC0
FFC000000000FFC0
FFC000000000FFC0
FFC000000000FFC0
FFC000000000FFC0
FF8000000000FFC0
FF8000000000FFC0
FF8000000000FFC0
FFC000000000FFC0
FFC000000000FFC0
FFC000000000FFC0
FFC000000000FFC0
FFC000000000FFC0
FFE000000001FF80
7FE000000001FF80
7FE000000001FF80
7FF000000003FF80
3FF800000007FF00
3FF800000007FF00
1FFC0000000FFE00
1FFE0000001FFE00
0FFF0000003FFC00
0FFF8000007FFC00
07FFE00001FFF800
03FFF80007FFF000
01FFFF003FFFE000
00FFFFFFFFFFC000
007FFFFFFFFF8000
003FFFFFFFFF0000
001FFFFFFFFE0000
0007FFFFFFF80000
0003FFFFFFF00000
0000FFFFFFC00000
00001FFFFE000000
000001FFF0000000
ENDCHAR
STARTCHAR 01A1
ENCODING 417
SWIDTH 810 0
DWIDTH 63 0
BBX 58 62 3 -1
BITMAP
000000000000FC00
000000000000FC00
000000000001FC00
000000000001FC00
000000000001F800
0000003E0003F800
000007FFF807F000
00003FFFFF1FF000
0001FFFFFFFFE000
0007FFFFFFFF8000
000FFFFFFFFE0000
003FFFFFFFFE0000
007FFFFFFFFF8000
00FFFFFFFFFFC000
01FFFFF3FFFFE000
03FFFC000FFFF000
07FFF00003FFF000
07FFC00000FFF800
0FFF8000007FFC00
1FFF0000003FFC00
1FFC0000001FFE00
3FFC0000000FFE00
3FF800000007FF00
3FF000000003FF00
7FF000000003FF80
7FE000000001FF80
7FE000000001FF80
FFC000000001FFC0
FFC000000000FFC0
FFC000000000FFC0
FFC000000000FFC0
FFC000000000FFC0
FF8000000000FFC0
FF8000000000FFC0
FF8000000000FFC0
FFC000000000FFC0
FFC000000000FFC0
FFC000000000FFC0
FFC000000000FFC0
FFC000000000FFC0
FFE000000001FF80
7FE000000001FF80
7FE000000001FF80
7FF000000003FF80
3FF800000007FF00
3FF800000007FF00
1FFC0000000FFE00
1FFE0000001FFE00
0FFF0000003FFC00
0FFF8000007FFC00
07FFE00001FFF800
03FFF80007FFF000
01FFFF003FFFE000
00FFFFFFFFFFC000
007FFFFFFFFF8000
003FFFFFFFFF0000
001FFFFFFFFE0000
0007FFFFFFF80000
0003FFFFFFF00000
0000FFFFFFC00000
00001FFFFE000000
000001FFF0000000
ENDCHAR
STARTCHAR 01AF
ENCODING 431
SWIDTH 527 0
DWIDTH 41 0
BBX 41 62 3 -1
BITMAP
000000001F80
000000001F80
000000001F80
000000001F80
000000001F00
000000003F00
00000000FE00
FFC0007FFE00
FFC0007FFC00
FFC0007FF000
FFC0007FE000
FFC0007FE000
FFC0007FE000
FFC0007FE000
FFC0007FE000
FFC0007FE000
FFC0007FE000
FFC0007FE000
FFC0007FE000
FFC0007FE000
FFC0007FE000
FFC0007FE000
FFC0007FE000
FFC0007FE000
FFC0007FE000
FFC0007FE000
FFC0007FE000
FFC0007FE000
FFC0007FE000
FFC0007FE000
FFC0007FE000
FFC0007FE000
FFC0007FE000
FFC0007FE000
FFC0007FE000
FFC0007FE000
FFC0007FE000
FFC0007FE000
FFC0007FE000
FFC0007FE000
FFC0007FE000
FFC0007FE000
FFC0007FE000
FFC0007FE000
7FC0007FE000
7FC0007FE000
7FC0007FC000
7FE000FFC000
7FE000FFC000
7FE000FFC000
3FF001FFC000
3FF803FF8000
3FFE0FFF8000
1FFFFFFF0000
1FFFFFFF0000
0FFFFFFE0000
07FFFFFC0000
03FFFFF80000
01FFFFF00000
00FFFFE00000
003FFF800000
0007FE000000
ENDCHAR
STARTCHAR 01B0
ENCODING 432
SWIDTH 527 0
DWIDTH 41 0
BBX 41 62 3 -1
BITMAP
000000001F80
000000001F80
000000001F80
000000001F80
000000001F00
000000003F00
00000000FE00
FFC0007FFE00
FFC0007FFC00
FFC0007FF000
FFC0007FE000
FFC0007FE000
FFC0007FE000
FFC0007FE000
FFC0007FE000
FFC0007FE000
FFC0007FE000
FFC0007FE000
FFC0007FE000
FFC0007FE000
FFC0007FE000
FFC0007FE000
FFC0007FE000
FFC0007FE000
FFC0007FE000
FFC0007FE000
FFC0007FE000
FFC0007FE000
FFC0007FE000
FFC0007FE000
FFC0007FE000
FFC0007FE000
FFC0007FE000
FFC0007FE000
FFC0007FE000
FFC0007FE000
FFC0007FE000
FFC0007FE000
FFC0007FE000
FFC0007FE000
FFC0007FE000
FFC0007FE000
FFC0007FE000
FFC0007FE000
7FC0007FE000
7FC0007FE000
7FC0007FC000
7FE000FFC000
7FE000FFC000
7FE000FFC000
3FF001FFC000
3FF803FF8000
3FFE0FFF8000
1FFFFFFF0000
1FFFFFFF0000
0FFFFFFE0000
07FFFFFC0000
03FFFFF80000
01FFFFF00000
00FFFFE00000
003FFF800000
0007FE000000
ENDCHAR
STARTCHAR 01CD
ENCODING 461
SWIDTH 565 0
DWIDTH 44 0
BBX 39 70 4 0
BITMAP
07F807F800
03FC0FF000
01FC0FE000
01FE1FE000
00FF3FC000
007FFF8000
007FFF8000
003FFF0000
001FFE0000
000FFC0000
0000000000
0000000000
0000000000
0000000000
0000C00000
001FFE0000
00FFFF8000
01FFFFE000
03FFFFF000
07FFFFF800
0FFFFFFC00
1FFFFFFE00
3FFFFFFE00
3FFF3FFF00
7FF807FF00
7FF003FF80
7FE001FF80
FFE001FF80
FFC000FFC0
FFC000FFC0
FFC000FFC0
FFC000FFC0
FFC000FFC0
FFC000FFC0
FFC000FFC0
FFC000FFC0
FFC000FFC0
FFC000FFC0
FFC000FFC0
FFC000FFC0
FFC000FFC0
FFC000FFC0
FFC000FFC0
FFC000FFC0
FFC000FFC0
FFC000FFC0
FFC000FFC0
FFC000FFC0
FFC000FFC0
FFC000FFC0
FFC000FFC0
FFC000FFC0
FFC000FFC0
FFC000FFC0
FFC000FFC0
FFC000FFC0
FFC000FFC0
FFC000FFC0
FFC000FFC0
FFC000FFC0
FFC000FFC0
FFFFFFFFFE
FFFFFFFFFE
FFFFFFFFFE
FFFFFFFFFE
FFFFFFFFFE
FFFFFFFFFE
FFFFFFFFFE
FFFFFFFFFE
FFFFFFFFFE
ENDCHAR
ENDFONT
